<svg width="146" height="105" viewBox="0 0 146 105" fill="none" xmlns="http://www.w3.org/2000/svg">
<path d="M41.2017 104.382C33.2382 104.382 26.1631 103.016 19.9766 100.285C13.8229 97.521 8.98556 93.7202 5.46449 88.8828C1.94342 84.0455 0.16643 78.4841 0.133523 72.1989H27.7756C27.8085 74.1404 28.4008 75.8845 29.5526 77.4311C30.7372 78.9448 32.3497 80.1295 34.3899 80.9851C36.4302 81.8407 38.7666 82.2685 41.3992 82.2685C43.933 82.2685 46.1707 81.8242 48.1122 80.9357C50.0537 80.0143 51.5675 78.7474 52.6534 77.1349C53.7393 75.5225 54.2659 73.6797 54.233 71.6065C54.2659 69.5663 53.6406 67.7564 52.3572 66.1768C51.1068 64.5973 49.3462 63.3633 47.0756 62.4748C44.805 61.5863 42.1889 61.142 39.2273 61.142H28.9602V42.1875H39.2273C41.9586 42.1875 44.3608 41.7433 46.4339 40.8548C48.54 39.9663 50.1689 38.7322 51.3207 37.1527C52.5053 35.5732 53.0812 33.7633 53.0483 31.723C53.0812 29.7486 52.604 28.0045 51.6168 26.4908C50.6296 24.977 49.2475 23.7924 47.4705 22.9368C45.7264 22.0812 43.7027 21.6534 41.3992 21.6534C38.8982 21.6534 36.6605 22.0977 34.6861 22.9861C32.7446 23.8746 31.2144 25.1087 30.0955 26.6882C28.9767 28.2678 28.4008 30.0776 28.3679 32.1179H2.10796C2.14086 25.9313 3.83558 20.4687 7.19212 15.7301C10.5816 10.9915 15.2215 7.27296 21.1119 4.57457C27.0023 1.87618 33.7647 0.526985 41.3992 0.526985C48.8691 0.526985 55.467 1.79391 61.1928 4.32777C66.9516 6.86162 71.4434 10.3498 74.6683 14.7923C77.9261 19.2018 79.5386 24.2531 79.5057 29.946C79.5715 35.6061 77.63 40.246 73.6811 43.8658C69.7652 47.4856 64.7962 49.6245 58.7742 50.2827V51.0724C66.9351 51.9609 73.0723 54.4619 77.1857 58.5753C81.2991 62.6558 83.3229 67.7893 83.2571 73.9759C83.29 79.8991 81.513 85.1478 77.9261 89.7219C74.3722 94.296 69.4196 97.8829 63.0685 100.483C56.7504 103.082 49.4614 104.382 41.2017 104.382ZM145.069 1.90909V103H117.625V27.1818H117.032L94.9186 40.4105V17.1122L119.796 1.90909H145.069Z" fill="#EECC1C"/>
</svg>
