<svg width="76" height="55" viewBox="0 0 76 55" fill="none" xmlns="http://www.w3.org/2000/svg">
<path d="M21.9318 54.7159C17.8068 54.7159 14.142 54.0085 10.9375 52.5938C7.75 51.1619 5.24432 49.1932 3.42045 46.6875C1.59659 44.1818 0.676136 41.3011 0.659091 38.0455H14.9773C14.9943 39.0511 15.3011 39.9545 15.8977 40.7557C16.5114 41.5398 17.3466 42.1534 18.4034 42.5966C19.4602 43.0398 20.6705 43.2614 22.0341 43.2614C23.3466 43.2614 24.5057 43.0312 25.5114 42.571C26.517 42.0937 27.3011 41.4375 27.8636 40.6023C28.4261 39.767 28.6989 38.8125 28.6818 37.7386C28.6989 36.6818 28.375 35.7443 27.7102 34.9261C27.0625 34.108 26.1506 33.4687 24.9744 33.0085C23.7983 32.5483 22.4432 32.3182 20.9091 32.3182H15.5909V22.5H20.9091C22.3239 22.5 23.5682 22.2699 24.642 21.8097C25.733 21.3494 26.5767 20.7102 27.1733 19.892C27.7869 19.0739 28.0852 18.1364 28.0682 17.0795C28.0852 16.0568 27.8381 15.1534 27.3267 14.3693C26.8153 13.5852 26.0994 12.9716 25.179 12.5284C24.2756 12.0852 23.2273 11.8636 22.0341 11.8636C20.7386 11.8636 19.5795 12.0937 18.5568 12.554C17.5511 13.0142 16.7585 13.6534 16.179 14.4716C15.5994 15.2898 15.3011 16.2273 15.2841 17.2841H1.68182C1.69886 14.0795 2.5767 11.25 4.31534 8.79545C6.07102 6.34091 8.47443 4.41477 11.5256 3.01704C14.5767 1.61932 18.0795 0.920453 22.0341 0.920453C25.9034 0.920453 29.321 1.5767 32.2869 2.8892C35.2699 4.2017 37.5966 6.00852 39.267 8.30966C40.9545 10.5937 41.7898 13.2102 41.7727 16.1591C41.8068 19.0909 40.8011 21.4943 38.7557 23.3693C36.7273 25.2443 34.1534 26.3523 31.0341 26.6932V27.1023C35.2614 27.5625 38.4403 28.858 40.571 30.9886C42.7017 33.1023 43.75 35.7614 43.7159 38.9659C43.733 42.0341 42.8125 44.7528 40.9545 47.1222C39.1136 49.4915 36.5483 51.3494 33.2585 52.696C29.9858 54.0426 26.2102 54.7159 21.9318 54.7159ZM75.7337 1.63636V54H61.5178V14.7273H61.2109L49.7564 21.5795V9.51136L62.6428 1.63636H75.7337Z" fill="#EECC1C"/>
</svg>
