<svg width="160" height="101" viewBox="0 0 160 101" fill="none" xmlns="http://www.w3.org/2000/svg">
<path fill-rule="evenodd" clip-rule="evenodd" d="M140.011 66.35H58.0625C52.5397 66.35 48.0625 61.8729 48.0625 56.35V16.4098H20.6029C19.8872 16.4098 19.226 16.7923 18.8692 17.4127L0.26626 49.7602C0.0918098 50.0635 0 50.4073 0 50.7573V55.9462H3.66366C4.52543 55.9462 5.22403 56.6448 5.22403 57.5066C5.22403 58.3684 4.52543 59.067 3.66366 59.067H0V80.9961C0 82.1007 0.895432 82.9961 2 82.9961H16.1997C18.0559 75.8168 24.6011 70.512 32.3906 70.512C40.1801 70.512 46.7253 75.8168 48.5814 82.9961H91.4295C93.2856 75.8168 99.8308 70.512 107.62 70.512C115.41 70.512 121.955 75.8168 123.811 82.9961H138.011C139.116 82.9961 140.011 82.1007 140.011 80.9961V66.35ZM32.3908 100.683C39.8925 100.683 45.9739 94.6279 45.9739 87.1581C45.9739 79.6882 39.8925 73.6327 32.3908 73.6327C24.889 73.6327 18.8076 79.6882 18.8076 87.1581C18.8076 94.6279 24.889 100.683 32.3908 100.683ZM121.203 87.1581C121.203 94.6279 115.122 100.683 107.62 100.683C100.118 100.683 94.0371 94.6279 94.0371 87.1581C94.0371 79.6882 100.118 73.6327 107.62 73.6327C115.122 73.6327 121.203 79.6882 121.203 87.1581ZM58.0625 0.682861H152.997C156.863 0.682861 159.997 3.81687 159.997 7.68286V56.35C159.997 60.216 156.863 63.35 152.997 63.35H58.0625C54.1965 63.35 51.0625 60.216 51.0625 56.35V7.68286C51.0625 3.81686 54.1965 0.682861 58.0625 0.682861ZM24.0173 27.1566C24.5687 26.2949 25.5212 25.7737 26.5441 25.7737H36.7045C38.3613 25.7737 39.7045 27.1168 39.7045 28.7737V40.4607C39.7045 42.1175 38.3613 43.4607 36.7045 43.4607H19.0647C16.694 43.4607 15.2599 40.8404 16.5379 38.8435L24.0173 27.1566Z" fill="#EECC1C"/>
</svg>
