<svg width="79" height="49" viewBox="0 0 79 49" fill="none" xmlns="http://www.w3.org/2000/svg">
<path fill-rule="evenodd" clip-rule="evenodd" d="M69.1895 32.1562H28.915C26.0634 32.1562 23.7516 29.871 23.7516 27.0521V7.65619H10.2083C9.83807 7.65619 9.49615 7.85212 9.31217 8.16973L0.136534 24.009C0.0470676 24.1635 0 24.3384 0 24.5163V27.0521H1.80719C2.23494 27.0521 2.5817 27.3949 2.5817 27.8177C2.5817 28.2406 2.23494 28.5833 1.80719 28.5833H0V39.302C0 39.8658 0.462346 40.3229 1.03268 40.3229H8.00537C8.92248 36.8005 12.157 34.1979 16.0065 34.1979C19.856 34.1979 23.0906 36.8005 24.0077 40.3229H45.1818C46.0989 36.8005 49.3335 34.1979 53.183 34.1979C57.0325 34.1979 60.2671 36.8005 61.1842 40.3229H68.1569C68.7272 40.3229 69.1895 39.8658 69.1895 39.302V32.1562ZM11.8495 12.9583C12.1339 12.5171 12.6265 12.25 13.1558 12.25H18.0719C18.9274 12.25 19.6209 12.9356 19.6209 13.7813V19.3958C19.6209 20.2415 18.9274 20.9271 18.0719 20.9271H9.53635C8.31359 20.9271 7.5729 19.5923 8.23003 18.5729L11.8495 12.9583Z" fill="#EECC1C"/>
<path d="M16.0065 49C19.7137 49 22.719 46.0292 22.719 42.3646C22.719 38.6999 19.7137 35.7292 16.0065 35.7292C12.2994 35.7292 9.29412 38.6999 9.29412 42.3646C9.29412 46.0292 12.2994 49 16.0065 49Z" fill="#EECC1C"/>
<path d="M59.8954 42.3646C59.8954 46.0292 56.8902 49 53.183 49C49.4758 49 46.4706 46.0292 46.4706 42.3646C46.4706 38.6999 49.4758 35.7292 53.183 35.7292C56.8902 35.7292 59.8954 38.6999 59.8954 42.3646Z" fill="#EECC1C"/>
<path d="M28.915 0H75.3856C77.3818 0 79 1.59965 79 3.57292V27.0521C79 29.0254 77.3818 30.625 75.3856 30.625H28.915C26.9189 30.625 25.3007 29.0254 25.3007 27.0521V3.57292C25.3007 1.59965 26.9189 0 28.915 0Z" fill="#EECC1C"/>
</svg>
