<svg width="246" height="107" viewBox="0 0 246 107" fill="none" xmlns="http://www.w3.org/2000/svg">
<path d="M159.446 47.3C158.978 47.5162 158.432 47.6818 157.805 47.7968C157.177 47.9118 156.492 47.9716 155.753 47.9716C154.435 47.9716 153.252 47.783 152.214 47.4104C151.177 47.0332 150.293 46.4951 149.569 45.7867C148.845 45.0783 148.29 44.232 147.904 43.243C147.517 42.2541 147.324 41.1409 147.324 39.899C147.324 38.5328 147.517 37.3231 147.904 36.2651C148.29 35.2072 148.845 34.3194 149.569 33.5973C150.293 32.8751 151.167 32.3323 152.19 31.9643C153.214 31.5963 154.348 31.4124 155.603 31.4124C156.569 31.4124 157.356 31.4767 157.959 31.6055C158.563 31.7343 159.065 31.8769 159.47 32.0287L159.06 33.8456C158.529 33.6617 157.988 33.5329 157.443 33.4547C156.897 33.3765 156.356 33.3397 155.825 33.3397C153.812 33.3397 152.282 33.8778 151.23 34.9496C150.177 36.0213 149.646 37.6037 149.646 39.6874C149.646 40.6855 149.796 41.5779 150.095 42.369C150.395 43.1602 150.815 43.8272 151.365 44.37C151.91 44.9127 152.581 45.3267 153.368 45.6119C154.155 45.8971 155.048 46.0351 156.048 46.0351C156.579 46.0351 157.114 45.9891 157.655 45.8971C158.196 45.8051 158.674 45.6579 159.094 45.4601L159.446 47.3Z" fill="#3C3C3B"/>
<path d="M175.083 47.7385L170.689 40.9079L166.272 47.7385H163.617L169.338 39.3669L164.172 31.6393H166.827L170.738 37.964L174.817 31.6393H177.327L172.138 39.3209L177.882 47.7385H175.083Z" fill="#3C3C3B"/>
<path d="M190.762 45.0696C190.269 44.3199 189.854 43.6713 189.516 43.1239C189.178 42.5812 188.898 42.135 188.672 41.79C188.445 41.445 188.232 41.1782 188.029 40.985C187.827 40.7918 187.609 40.6585 187.378 40.5803C187.146 40.5021 186.856 40.4653 186.518 40.4653H184.93V47.7329H182.758V31.6337H184.93V38.9473H186.354L192.316 31.6337H195.092L188.599 39.0393C189.067 39.1175 189.478 39.3337 189.83 39.6971C190.183 40.0559 190.588 40.5849 191.037 41.284C191.486 41.9832 192.046 42.8617 192.717 43.9289C193.383 44.996 194.267 46.2656 195.362 47.7375H192.611C191.867 46.7072 191.254 45.8194 190.762 45.0696Z" fill="#3C3C3B"/>
<path d="M130.2 9.5293H129.041V98.4708H130.2V9.5293Z" fill="#3C3C3B"/>
<path d="M149.063 77.8943H147.325V65.0002H151.308C152.08 65.0002 152.775 65.0784 153.389 65.2302C154.002 65.3821 154.528 65.6259 154.962 65.9571C155.402 66.2883 155.735 66.7069 155.966 67.2083C156.198 67.7143 156.314 68.3123 156.314 69.0115C156.314 70.3501 155.86 71.3714 154.953 72.0798C154.045 72.7882 152.78 73.1378 151.153 73.1378H149.063V77.8943ZM149.063 71.5922H151.153C152.235 71.5922 153.06 71.3852 153.62 70.9666C154.18 70.5479 154.46 69.9085 154.46 69.0483C154.46 68.1651 154.18 67.5257 153.62 67.1301C153.06 66.7391 152.24 66.5413 151.153 66.5413H149.063V71.5922Z" fill="#11559B"/>
<path d="M166.114 78.0779C165.173 78.0779 164.323 77.9261 163.57 77.6179C162.817 77.3097 162.17 76.8727 161.634 76.3023C161.099 75.7319 160.688 75.0327 160.408 74.2093C160.123 73.3858 159.983 72.4658 159.983 71.4446C159.983 70.4142 160.133 69.4896 160.428 68.6707C160.722 67.8519 161.142 67.1619 161.673 66.5869C162.209 66.0165 162.851 65.5749 163.599 65.2713C164.347 64.9631 165.163 64.8113 166.056 64.8113C167.061 64.8113 167.949 64.9723 168.716 65.2989C169.484 65.6255 170.126 66.0809 170.652 66.6605C171.174 67.2447 171.569 67.9439 171.84 68.7582C172.11 69.577 172.245 70.4694 172.245 71.44C172.245 72.5348 172.091 73.4962 171.782 74.3243C171.473 75.1523 171.048 75.8423 170.507 76.3989C169.967 76.9509 169.32 77.3695 168.576 77.6501C167.823 77.9353 167.003 78.0779 166.114 78.0779ZM166.288 76.5323C167.563 76.5323 168.567 76.1045 169.296 75.2535C170.025 74.3979 170.387 73.1328 170.387 71.4492C170.387 70.566 170.285 69.8024 170.087 69.163C169.889 68.5235 169.6 67.9945 169.228 67.5805C168.856 67.1619 168.398 66.8537 167.867 66.6605C167.331 66.4627 166.727 66.3661 166.061 66.3661C165.467 66.3661 164.912 66.4719 164.401 66.6789C163.884 66.8859 163.44 67.2033 163.068 67.6173C162.696 68.0359 162.397 68.5649 162.18 69.2044C161.963 69.8438 161.852 70.5936 161.852 71.4492C161.852 72.2956 161.958 73.0408 162.17 73.6802C162.383 74.3197 162.682 74.8487 163.068 75.2719C163.454 75.6951 163.923 76.0125 164.468 76.2195C165.009 76.4265 165.617 76.5323 166.288 76.5323Z" fill="#11559B"/>
<path d="M186.009 77.5442C185.637 77.719 185.198 77.8478 184.696 77.9398C184.194 78.0318 183.643 78.0778 183.054 78.0778C181.997 78.0778 181.056 77.926 180.221 77.627C179.39 77.328 178.685 76.8956 178.101 76.3298C177.522 75.764 177.078 75.0877 176.769 74.2919C176.46 73.5007 176.305 72.6083 176.305 71.6101C176.305 70.5153 176.46 69.5446 176.769 68.6982C177.078 67.8518 177.522 67.1388 178.101 66.5592C178.681 65.9796 179.381 65.5472 180.196 65.2528C181.017 64.9584 181.925 64.8112 182.934 64.8112C183.706 64.8112 184.334 64.8618 184.816 64.9676C185.299 65.0734 185.705 65.1838 186.023 65.308L185.695 66.7616C185.27 66.6144 184.836 66.5086 184.401 66.4488C183.962 66.389 183.532 66.3568 183.107 66.3568C181.495 66.3568 180.269 66.7846 179.424 67.6448C178.579 68.505 178.159 69.77 178.159 71.4399C178.159 72.2403 178.28 72.9533 178.516 73.5881C178.753 74.2183 179.091 74.7565 179.53 75.1889C179.97 75.626 180.505 75.9572 181.133 76.1826C181.765 76.408 182.48 76.523 183.281 76.523C183.706 76.523 184.136 76.4862 184.565 76.4126C184.995 76.339 185.381 76.224 185.714 76.063L186.009 77.5442Z" fill="#11559B"/>
<path d="M198.168 74.4488H192.39L191.077 77.8943H189.319L194.48 65.0002H196.218L201.282 77.8943H199.467L198.168 74.4488ZM192.95 72.94H197.608L195.344 66.8817H195.267L192.95 72.94Z" fill="#11559B"/>
<path d="M208.38 77.8943H206.642V66.5459H202.64V65.0002H212.382V66.5459H208.38V77.8943Z" fill="#11559B"/>
<path d="M221.408 78.0778C220.466 78.0778 219.617 77.926 218.863 77.6178C218.11 77.3096 217.463 76.8726 216.928 76.3022C216.392 75.7318 215.981 75.0325 215.701 74.2091C215.417 73.3857 215.277 72.4657 215.277 71.4445C215.277 70.4141 215.426 69.4894 215.721 68.6706C216.015 67.8518 216.435 67.1618 216.966 66.5868C217.502 66.0164 218.144 65.5748 218.892 65.2712C219.641 64.963 220.457 64.8112 221.35 64.8112C222.354 64.8112 223.242 64.9722 224.01 65.2988C224.777 65.6254 225.419 66.0808 225.945 66.6604C226.467 67.2446 226.863 67.9438 227.133 68.758C227.403 69.5768 227.539 70.4693 227.539 71.4399C227.539 72.5347 227.384 73.4961 227.075 74.3241C226.766 75.1521 226.341 75.8422 225.801 76.3988C225.26 76.9508 224.613 77.3694 223.865 77.65C223.117 77.9352 222.296 78.0778 221.408 78.0778ZM221.581 76.5322C222.856 76.5322 223.86 76.1044 224.589 75.2533C225.318 74.3977 225.68 73.1327 225.68 71.4491C225.68 70.5659 225.579 69.8023 225.381 69.1628C225.183 68.5234 224.893 67.9944 224.521 67.5804C224.15 67.1618 223.691 66.8536 223.16 66.6604C222.624 66.4626 222.021 66.366 221.354 66.366C220.761 66.366 220.206 66.4718 219.694 66.6788C219.177 66.8858 218.733 67.2032 218.361 67.6172C217.99 68.0358 217.69 68.5648 217.473 69.2042C217.256 69.8436 217.145 70.5935 217.145 71.4491C217.145 72.2955 217.251 73.0407 217.463 73.6801C217.676 74.3195 217.975 74.8485 218.361 75.2717C218.748 75.695 219.216 76.0124 219.761 76.2194C220.302 76.4264 220.91 76.5322 221.581 76.5322Z" fill="#11559B"/>
<path d="M245.402 77.8943H243.664L242.834 67.8155L239.411 77.8943H237.596L234.193 67.8523L233.343 77.8943H231.6L232.759 65.0002H234.883L238.537 76.091L242.115 65.0002H244.239L245.402 77.8943Z" fill="#11559B"/>
<path d="M65.2882 61.486C60.9627 66.049 53.5911 66.394 48.8167 62.2634C44.0423 58.1328 43.6705 51.0813 47.9912 46.5183C52.3166 41.9553 59.6931 41.6149 64.4675 45.741C69.2371 49.8762 69.6088 56.923 65.2882 61.486Z" fill="url(#paint0_radial_6_405)"/>
<path d="M59.6724 15.8781C60.6523 16.7935 61.5551 17.7318 62.3758 18.6656C67.0681 24.0243 69.2646 29.2865 69.2646 29.2865C72.2577 29.8155 75.0577 29.9627 77.6645 29.8385C77.8335 29.8293 77.988 29.8293 78.1618 29.8201C78.3162 29.8063 78.4611 29.7879 78.6155 29.7787C84.3893 29.2819 91.8912 27.1752 98.7463 20.6251C98.9828 20.3997 99.2194 20.1605 99.4511 19.9259C98.3891 18.7208 97.298 17.5294 96.1105 16.3933C76.1921 -2.53025 45.1077 -4.17697 23.2246 11.4117C40.3913 3.48167 52.2863 8.95542 59.6724 15.8781Z" fill="url(#paint1_linear_6_405)"/>
<path d="M20.1264 69.9342C20.4691 68.6693 20.8698 67.4549 21.3091 66.3096C23.8339 59.7595 27.5221 55.3161 27.5221 55.3161C26.5083 52.5792 25.2387 50.1965 23.8242 48.1082C23.7325 47.9748 23.6553 47.8414 23.5587 47.708C23.4718 47.5884 23.3801 47.4735 23.2932 47.3539C19.9526 42.8369 14.2851 37.7035 4.91003 35.3208C4.58658 35.238 4.25348 35.1644 3.92038 35.0908C3.35074 36.5674 2.81971 38.0669 2.37558 39.6124C-4.85604 65.5092 9.18721 91.9902 34.2951 102.248C18.5043 92.0454 17.5292 79.4926 20.1264 69.9342Z" fill="url(#paint2_linear_6_405)"/>
<path d="M89.1708 75.6013C87.848 75.9509 86.5446 76.2269 85.2846 76.4385C78.0675 77.6298 72.1876 76.811 72.1876 76.811C70.2083 79.0143 68.6779 81.2544 67.4856 83.4669C67.4131 83.6095 67.3311 83.7429 67.2587 83.8901C67.1911 84.0235 67.138 84.1523 67.0704 84.2857C64.6325 89.2995 62.8029 96.5441 65.3276 105.477C65.4145 105.781 65.5159 106.098 65.6125 106.411C67.2393 106.139 68.8662 105.831 70.4931 105.417C97.6479 98.4393 114.694 73.6096 111.459 47.7588C110.074 65.8866 99.1589 72.9656 89.1708 75.6013Z" fill="url(#paint3_linear_6_405)"/>
<path d="M23.2251 11.411C23.2251 11.411 11.1032 18.6418 4.76953 33.1634C6.4302 33.4393 23.3362 36.6868 29.6361 54.5892C31.176 53.6508 35.907 50.0952 39.0835 40.2884C42.9262 28.4348 50.2206 19.686 59.6777 15.8774C59.6729 15.8774 47.6958 -0.392091 23.2251 11.411Z" fill="url(#paint4_linear_6_405)"/>
<path d="M61.6287 96.7708C61.6238 90.7589 63.3762 82.8059 70.381 75.3128L70.4582 75.1978C69.3141 74.0341 65.3121 71.1638 55.015 73.3993C42.3186 76.1592 28.314 75.8372 20.1217 69.9357C20.1217 69.9357 11.3259 87.9576 34.2904 102.249C34.2904 102.249 46.9096 108.624 63.2507 106.605C62.9611 105.832 61.6335 102.047 61.6287 96.7708Z" fill="url(#paint5_linear_6_405)"/>
<path d="M100.92 21.6597C99.115 23.748 90.5317 32.3174 76.2084 32.3266C73.9009 32.3266 71.4533 32.1058 68.8658 31.5952L68.7451 31.5676C68.272 33.2189 67.881 37.8969 74.876 45.0772C83.7249 54.1756 90.4399 65.8958 89.1751 75.6014C89.1751 75.6014 109.953 73.8489 111.459 47.7543C111.454 47.7543 110.938 34.1389 100.92 21.6597Z" fill="url(#paint6_linear_6_405)"/>
<defs>
<radialGradient id="paint0_radial_6_405" cx="0" cy="0" r="1" gradientUnits="userSpaceOnUse" gradientTransform="translate(52.9116 47.7911) rotate(0.0524932) scale(16.4121 15.683)">
<stop stop-color="#4A96D2"/>
<stop offset="1" stop-color="#1F2466"/>
</radialGradient>
<linearGradient id="paint1_linear_6_405" x1="40.6194" y1="4.40851" x2="89.0309" y2="24.8682" gradientUnits="userSpaceOnUse">
<stop stop-color="#4A96D2"/>
<stop offset="1" stop-color="#1F2466"/>
</linearGradient>
<linearGradient id="paint2_linear_6_405" x1="19.2311" y1="91.3943" x2="12.4759" y2="41.3724" gradientUnits="userSpaceOnUse">
<stop stop-color="#4A96D2"/>
<stop offset="1" stop-color="#1F2466"/>
</linearGradient>
<linearGradient id="paint3_linear_6_405" x1="109.121" y1="65.612" x2="68.999" y2="98.5881" gradientUnits="userSpaceOnUse">
<stop stop-color="#4995D1"/>
<stop offset="1" stop-color="#292B64"/>
</linearGradient>
<linearGradient id="paint4_linear_6_405" x1="20.98" y1="40.2179" x2="41.5819" y2="7.03958" gradientUnits="userSpaceOnUse">
<stop stop-color="#4A96D2"/>
<stop offset="1" stop-color="#1F2466"/>
</linearGradient>
<linearGradient id="paint5_linear_6_405" x1="62.733" y1="86.2372" x2="23.1847" y2="90.4684" gradientUnits="userSpaceOnUse">
<stop stop-color="#4A96D2"/>
<stop offset="1" stop-color="#1F2466"/>
</linearGradient>
<linearGradient id="paint6_linear_6_405" x1="88.223" y1="31.6712" x2="95.5766" y2="70.6272" gradientUnits="userSpaceOnUse">
<stop stop-color="#4A96D2"/>
<stop offset="1" stop-color="#1F2466"/>
</linearGradient>
</defs>
</svg>
