<svg width="1919" height="268" viewBox="0 0 1919 268" fill="none" xmlns="http://www.w3.org/2000/svg">
<path fill-rule="evenodd" clip-rule="evenodd" d="M0 223.751V268H86.9793L199.505 133.505L87.8083 0H0V43.258L75.5046 133.505L0 223.751ZM211.808 0L323.505 133.505L210.979 268H334.979L447.505 133.505L335.808 0H211.808ZM459.808 0L571.505 133.505L458.979 268H582.979L695.505 133.505L583.808 0H459.808ZM707.808 0L819.505 133.505L706.979 268H830.979L942.752 134.404L1054.53 268H1178.53L1066 133.505L1177.7 0H1053.7L942.752 132.606L831.808 0H707.808ZM1301.7 0L1190 133.505L1302.53 268H1426.53L1314 133.505L1425.7 0H1301.7ZM1549.7 0L1438 133.505L1550.53 268H1674.53L1562 133.505L1673.7 0H1549.7ZM1797.7 0L1686 133.505L1798.53 268H1919V263.786L1810 133.505L1919 3.22314V0H1797.7Z" fill="white" fill-opacity="0.03"/>
</svg>
