<svg width="324" height="80" viewBox="0 0 324 80" fill="none" xmlns="http://www.w3.org/2000/svg">
<path d="M30.0983 0.761719H0V79.1739H30.0983V0.761719Z" fill="#004E32"/>
<path d="M30.1118 79.1746H61.7294V34.7397L30.1118 79.1746Z" fill="#004E32"/>
<path d="M112.002 37.4216L97.5073 57.8027H80.4803C80.5898 57.4902 95.4816 36.5881 103.434 25.3491L85.9141 0.761475L66.752 27.6803V79.1737H86.2153H87.4334H141.717L112.686 38.3853L112.002 37.4216Z" fill="#EB6012"/>
<path d="M192.182 0.761719H124.499V32.7986H141.717V79.1739L174.977 32.7986H192.182V0.761719Z" fill="#004E32"/>
<path d="M323.349 0.761719H255.665V32.7986H272.87V79.1739L306.13 32.7986H323.349V0.761719Z" fill="#004E32"/>
<path d="M244.058 38.3855L243.415 37.4869L229.057 57.6207H212.03C212.139 57.3081 226.935 36.6144 234.901 25.3754L234.641 25.0108L215 0.761719L195.838 27.6805L159.197 79.1739H198.123H203.338H217.587H218.805H273.089L244.058 38.3855Z" fill="#004E32"/>
<path d="M55.9002 57.9071H7.06396V79.1739H55.9002V57.9071Z" fill="#004E32"/>
</svg>
