<svg width="297" height="71" viewBox="0 0 297 71" fill="none" xmlns="http://www.w3.org/2000/svg">
<path d="M28.1151 0.0419922H0.517578V70.7181H28.1151V0.0419922Z" fill="#004E32"/>
<path d="M28.1262 70.7198H57.1168V30.6688L28.1262 70.7198Z" fill="#004E32"/>
<path d="M103.213 33.0856L89.9221 51.456H74.3098C74.4102 51.1743 88.0647 32.3343 95.3562 22.2042L79.2922 0.0423584L61.7222 24.3054V70.7185H79.5683H80.6853H130.459L103.84 33.9542L103.213 33.0856Z" fill="#EB6012"/>
<path d="M176.732 0.0418701H114.672V28.918H130.46V70.718L160.956 28.918H176.732V0.0418701Z" fill="#004E32"/>
<path d="M297 0.0418701H234.94V28.918H250.716V70.718L281.212 28.918H297V0.0418701Z" fill="#004E32"/>
<path d="M224.297 33.9537L223.707 33.1438L210.542 51.2912H194.929C195.03 51.0094 208.596 32.3573 215.901 22.2272L215.662 21.8985L197.653 0.0418701L180.083 24.3049L146.486 70.718H182.179H186.96H200.025H201.142H250.915L224.297 33.9537Z" fill="#004E32"/>
<path d="M51.7746 51.5502H6.99609V70.7188H51.7746V51.5502Z" fill="#004E32"/>
</svg>
