<svg width="125" height="32" viewBox="0 0 125 32" fill="none" xmlns="http://www.w3.org/2000/svg">
<path d="M11.9906 0.945312H0.391602V31.075H11.9906V0.945312Z" fill="#004E32"/>
<path d="M11.9951 31.0755H24.1796V14.0015L11.9951 31.0755Z" fill="#004E32"/>
<path d="M43.5532 15.0319L37.9674 22.8633H31.4057C31.4479 22.7432 37.1867 14.7116 40.2513 10.3931L33.4997 0.945312L26.1152 11.2888V31.075H33.6158H34.0852H55.0045L43.817 15.4022L43.5532 15.0319Z" fill="#EB6012"/>
<path d="M74.4523 0.945068H48.3691V13.2552H55.0047V31.0748L67.8221 13.2552H74.4523V0.945068Z" fill="#004E32"/>
<path d="M125 0.945068H98.917V13.2552H105.547V31.0748L118.365 13.2552H125V0.945068Z" fill="#004E32"/>
<path d="M94.4431 15.4022L94.1952 15.0569L88.6621 22.7932H82.1004C82.1426 22.6731 87.8445 14.7216 90.9143 10.4031L90.8141 10.263L83.245 0.945312L75.8605 11.2888L61.7402 31.075H76.7413H78.751H84.2419H84.7113H105.631L94.4431 15.4022Z" fill="#004E32"/>
<path d="M21.9342 22.9033H3.11426V31.075H21.9342V22.9033Z" fill="#004E32"/>
</svg>
