<svg width="324" height="80" viewBox="0 0 324 80" fill="none" xmlns="http://www.w3.org/2000/svg">
<path d="M30.0983 0.761932H0V79.1741H30.0983V0.761932Z" fill="#CECECE"/>
<path d="M30.1118 79.1749H61.7294V34.74L30.1118 79.1749Z" fill="#CECECE"/>
<path d="M112.002 37.4218L97.5073 57.803H80.4803C80.5898 57.4904 95.4816 36.5883 103.434 25.3494L85.9141 0.761719L66.752 27.6805V79.1739H141.717L112.686 38.3855L112.002 37.4218Z" fill="#CECECE"/>
<path d="M192.182 0.761932H124.499V32.7988H141.717L141.717 79.1739L174.977 32.7988H192.182V0.761932Z" fill="#CECECE"/>
<path d="M323.349 0.761932H255.665V32.7988H272.87V79.1741L306.13 32.7988H323.349V0.761932Z" fill="#CECECE"/>
<path d="M244.058 38.3857L243.415 37.4871L229.057 57.6209H212.03C212.139 57.3083 226.935 36.6146 234.901 25.3756L234.641 25.011L215 0.761932L159.197 79.1741H273.089L244.058 38.3857Z" fill="#CECECE"/>
<path d="M55.9002 57.9073H7.06396V79.1741H55.9002V57.9073Z" fill="#CECECE"/>
</svg>
