<svg width="181" height="161" viewBox="0 0 181 161" fill="none" xmlns="http://www.w3.org/2000/svg">
<path fill-rule="evenodd" clip-rule="evenodd" d="M55.8607 112.239C55.2172 111.781 54.5167 111.4 53.7591 111.077L57.3126 106.387C57.9688 107.046 58.6471 107.687 59.3477 108.304L46.4998 125.261C45.4823 125.171 44.4362 125.018 43.3648 124.793L47.5745 119.238C50.5225 117.136 53.1441 114.44 55.8607 112.239ZM108.127 39.3167L121.986 21.024C122.471 20.9671 122.956 20.9102 123.438 20.8563C124.237 20.7665 125.029 20.6766 125.822 20.5688L110.701 40.5237C109.861 40.0984 109.002 39.6941 108.127 39.3167ZM52.2058 110.52L56.2094 105.237C55.5659 104.542 54.9478 103.82 54.3518 103.087L49.1975 109.888C50.2563 110.035 51.2643 110.241 52.2058 110.52ZM103.87 37.7294C104.802 38.0259 105.718 38.3524 106.621 38.7028L119.786 21.3295C118.41 21.5511 117.003 21.8536 115.542 22.3268L103.87 37.7294ZM47.3716 109.69L53.3501 101.802C52.7669 101.02 52.2089 100.221 51.6796 99.3999L43.9861 109.556C45.1558 109.565 46.2875 109.603 47.3716 109.69ZM99.3114 36.5375C100.307 36.7441 101.289 36.9837 102.256 37.2533L112.717 23.4439C110.752 24.3753 108.685 25.6781 106.488 27.5499C106.428 27.457 106.374 27.3672 106.327 27.2773L99.3114 36.5375ZM42.0017 109.571L50.7983 97.9624C50.2816 97.0849 49.7966 96.1894 49.3465 95.273L38.4228 109.69C39.64 109.636 40.8351 109.591 42.0017 109.571ZM94.417 35.7858C95.4853 35.8936 96.5409 36.0313 97.587 36.211L105.784 25.3906C105.75 23.9051 106.609 22.4765 107.794 20.8952C109.544 18.5682 112.004 15.9178 113.386 12.288C112.838 12.6204 112.232 12.9019 111.576 13.1415L94.417 35.7858ZM36.375 109.786L48.5952 93.6588C48.1577 92.6645 47.7615 91.6522 47.4065 90.6249L32.7581 109.957C33.9753 109.906 35.1831 109.846 36.375 109.786ZM89.1295 35.5612C89.3355 35.5582 89.5416 35.5522 89.7476 35.5522C90.6923 35.5522 91.6274 35.5851 92.5594 35.639L109.062 13.8573C107.807 14.1418 106.437 14.3754 104.982 14.636L89.1295 35.5612ZM30.7293 110.029L46.8232 88.7891C46.4872 87.648 46.205 86.486 45.9736 85.309L27.2043 110.08C27.2518 110.08 27.2962 110.08 27.3438 110.08C28.4691 110.086 29.6008 110.065 30.7293 110.029ZM83.3411 35.9924L98.408 16.1034C98.9564 15.9417 99.5016 15.795 100.041 15.6602C100.941 15.4356 101.822 15.2439 102.681 15.0702L87.1039 35.63C85.8327 35.7019 84.5774 35.8217 83.3411 35.9924ZM25.2548 110.05C24.1326 110.017 23.0168 109.957 21.9136 109.855L35.0468 92.5207C35.947 92.6165 36.8949 92.8741 37.9156 93.3383L25.2548 110.05ZM20.0909 109.654C19.048 109.517 18.0209 109.34 17.0097 109.118L28.1141 94.4644C29.7846 93.5689 31.3569 92.8172 33.0402 92.5686L20.0909 109.654ZM15.3486 108.702L24.8015 96.2224C24.6398 96.3032 24.4749 96.3841 24.3101 96.462C22.9819 97.0969 21.5364 97.6779 19.9039 98.0822L12.5781 107.759C13.4783 108.124 14.404 108.435 15.3486 108.702ZM11.104 107.1L17.612 98.5105C16.5025 98.6482 15.3106 98.7021 14.0236 98.6422L8.67268 105.701C9.45566 106.225 10.2672 106.689 11.104 107.1ZM7.39836 104.782C6.67878 104.219 5.9909 103.593 5.33154 102.907L9.10063 97.9295C10.1784 98.181 11.1991 98.3667 12.1692 98.4835L7.39836 104.782ZM4.26644 101.706L7.45542 97.4982C6.56149 97.2406 5.63269 96.9381 4.66268 96.5818L2.57368 99.34C3.10306 100.194 3.67048 100.978 4.26644 101.706ZM1.72096 97.8606C1.24863 96.9681 0.808007 96.0157 0.402252 94.9945L0.516371 94.8447C1.41981 95.264 2.29155 95.6474 3.13476 95.9918L1.72096 97.8606ZM38.0234 93.1975C37.6081 92.3081 37.0121 91.5564 36.2672 90.9095L45.2509 79.0527C45.3016 80.4454 45.4221 81.82 45.6123 83.1797L38.0234 93.1975ZM76.8396 37.3641L90.0836 19.883C91.9856 18.6431 93.8908 17.7147 95.7579 16.9989L81.0905 36.3578C79.6481 36.6273 78.2312 36.9628 76.8396 37.3641ZM34.9961 89.984C34.2289 89.5109 33.3667 89.1065 32.4442 88.7472L45.7391 71.1972C45.4569 72.9222 45.2889 74.6802 45.235 76.4652L34.9961 89.984ZM69.0985 40.3679C70.7532 39.5443 72.4682 38.8166 74.2338 38.1937L84.7835 24.2705C84.1336 24.9413 83.487 25.6601 82.8466 26.4328C82.1112 25.7709 81.5723 25.0941 81.1951 24.4023L69.0985 40.3679ZM30.8878 88.1961C29.9653 87.8996 29.0017 87.6331 28.019 87.3815L34.0768 79.3852C34.5744 79.7356 35.0721 80.1399 35.5666 80.5981C35.6332 79.7715 35.4969 78.8641 35.2148 77.8847L50.6937 57.4567C48.8615 60.6103 47.4445 64.0065 46.5125 67.5794L30.8878 88.1961ZM56.8751 49.2957C59.4808 46.6003 62.4511 44.2223 65.7098 42.2397L80.5738 22.6233C80.2282 20.6796 80.8527 18.6281 81.7435 16.4748L56.8751 49.2957ZM26.3611 86.9622C25.8412 86.8334 25.3213 86.7047 24.8046 86.5759C24.345 86.4591 23.8853 86.3423 23.432 86.2225L30.0256 77.5194C30.9226 77.735 31.8229 78.0674 32.7327 78.5526L26.3611 86.9622ZM21.8058 85.7643C20.8453 85.4768 19.9197 85.1593 19.0511 84.7969L24.6556 77.4026C25.8285 77.2229 27.0363 77.136 28.2694 77.2379L21.8058 85.7643ZM17.5961 84.1141L22.3225 77.8758C20.7978 78.2411 19.3555 78.6724 18.0368 78.927L15.3169 82.5178C15.9731 83.1318 16.7402 83.6559 17.5961 84.1141ZM14.2677 81.2959C13.6749 80.4304 13.2755 79.4181 13.1106 78.2172L13.1265 78.1962C13.919 78.8701 14.8478 79.1336 15.8907 79.1516L14.2677 81.2959ZM34.5808 76.1178L84.1939 10.6378C84.8469 8.769 85.2653 6.84329 85.0846 4.85769L33.2336 73.2876C33.7471 74.2759 34.2067 75.2223 34.5808 76.1178ZM32.4157 71.7632L55.3314 41.521C54.8844 40.4937 54.7576 39.164 54.783 37.6426L30.948 69.1008C31.452 70.0142 31.9465 70.9037 32.4157 71.7632ZM30.1175 67.5914L54.9446 34.8274C55.0809 33.1952 55.2648 31.4462 55.3504 29.6882L41.3328 48.1876C41.3233 49.2957 41.3677 50.4217 41.4786 51.5628C40.6925 51.3352 39.9729 51.0986 39.3135 50.85L28.6878 64.875C29.1538 65.7974 29.6356 66.7049 30.1175 67.5914ZM27.9144 63.2877L37.8205 50.2151C36.8727 49.7659 36.0834 49.2837 35.4303 48.7686L26.6464 60.3587C26.7288 60.5684 26.8112 60.775 26.8968 60.9817C27.217 61.7633 27.5593 62.53 27.9144 63.2877ZM26.0029 58.6037L34.2765 47.6814C33.5664 46.8638 33.1036 45.9773 32.8024 45.022L25.0646 55.2345C25.3118 56.3755 25.6288 57.4986 26.0029 58.6037ZM24.7032 53.1081C24.5193 51.6407 24.4718 50.1522 24.5986 48.6428L32.2952 38.4812C32.2731 40.0924 32.2445 41.5868 32.3935 42.9555L24.7032 53.1081ZM25.1945 45.2526C25.9997 42.2577 27.5815 39.2089 30.2443 36.1452C30.8466 35.4503 32.0955 33.8631 32.85 32.9436C32.365 33.9409 32.3016 34.8813 32.3016 35.8726L25.1945 45.2526ZM41.4659 45.4023C41.6435 43.3928 41.9763 41.4491 42.3979 39.5683L54.8812 23.0935C55.1982 24.3543 55.3409 25.6841 55.3821 27.0377L41.4659 45.4023ZM43.4218 35.6121C43.9829 33.6624 44.5884 31.7936 45.1463 30.0146C45.3777 29.2809 45.5996 28.5621 45.8088 27.8553L52.713 18.7419C53.3787 19.5176 53.889 20.3711 54.2758 21.2816L43.4218 35.6121ZM46.8137 23.9261C47.1719 22.1321 47.3177 20.464 47.1085 18.9306L49.2292 16.1334C50.1358 16.5677 50.9156 17.0708 51.5845 17.6278L46.8137 23.9261ZM46.6203 16.975C46.3382 16.2442 45.9419 15.5494 45.4189 14.8935C46.2526 15.0672 47.0197 15.2769 47.7234 15.5194L46.6203 16.975ZM59.8517 35.5522L84.6694 2.80021C84.3777 1.87779 83.9339 0.943386 83.3031 0L61.5286 28.7358C61.3036 29.6163 61.0975 30.4908 60.8978 31.3534C60.5586 32.8029 60.2321 34.2165 59.8517 35.5522ZM62.8727 24.3573C63.7096 22.1411 64.8286 19.9908 66.4674 18.0591C69.1714 14.8696 71.774 12.0244 74.1229 9.51173L62.8727 24.3573ZM128.092 20.1825L112.112 41.2724C112.93 41.7246 113.735 42.2008 114.518 42.6979L132.802 18.5682C131.217 19.3649 129.654 19.85 128.092 20.1825ZM62.7459 111.026C61.9915 110.481 61.2592 109.915 60.5428 109.328L48.3955 125.36C49.6444 125.383 50.8522 125.318 52.0156 125.186L62.7459 111.026ZM136.863 15.8129C137.437 15.3128 138.017 14.7617 138.606 14.1478C136.933 21.1288 132.45 24.4322 128.805 26.7592C128.653 26.8551 128.5 26.9539 128.351 27.0467L136.863 15.8129ZM123.803 33.0485L115.833 43.5695C116.6 44.0966 117.348 44.6416 118.078 45.2106L127.977 32.144C126.567 32.4046 125.223 32.8388 124.024 33.5067C123.939 33.3479 123.866 33.1952 123.803 33.0485ZM66.4009 113.41C65.5957 112.937 64.8064 112.446 64.0361 111.927L54.2441 124.85C55.7625 124.566 57.2016 124.186 58.5552 123.763L66.4009 113.41ZM130.155 31.8745L119.298 46.2049C120.011 46.8039 120.705 47.4239 121.378 48.0648L133.645 31.8745C133.534 31.8685 133.423 31.8595 133.312 31.8565C132.266 31.8026 131.204 31.7996 130.155 31.8745ZM70.3158 115.452L66.0268 121.113C64.5908 121.589 62.9837 122.227 61.2085 122.868L67.7861 114.186C68.6135 114.635 69.4567 115.057 70.3158 115.452ZM135.493 32.0362L122.503 49.1819C123.162 49.8587 123.796 50.5565 124.408 51.2723L134.676 37.7205C133.813 37.6696 133.018 37.6276 132.301 37.6007C131.712 36.3907 132.843 35.5522 134.714 34.8783C135.509 34.5908 136.438 34.3363 137.424 34.0907L138.622 32.5094C137.655 32.3297 136.6 32.162 135.493 32.0362ZM74.5001 117.136C73.584 116.818 72.6837 116.474 71.7962 116.102L68.493 120.46C69.7388 120.247 70.8103 120.31 71.7074 120.822L74.5001 117.136ZM140.35 32.8358C141.234 32.9945 142.344 33.1832 142.845 33.2731C142.242 33.2761 140.537 33.4019 139.817 33.5366L140.35 32.8358ZM136.555 37.8433L125.435 52.5211C126.034 53.2788 126.608 54.0605 127.153 54.8571L139.858 38.0858C138.698 37.996 137.592 37.9121 136.555 37.8433ZM78.9793 118.435C78.0029 118.205 77.0361 117.941 76.0851 117.651L55.0619 145.398C56.4504 145.237 57.8039 144.982 59.1195 144.647L78.9793 118.435ZM141.726 38.2266C142.791 38.3075 143.894 38.3913 145.029 38.4752L129.578 58.8643C129.106 57.9748 128.602 57.1063 128.069 56.2528L141.726 38.2266ZM83.7818 119.304L66.8098 141.703C65.1582 142.547 63.4433 143.287 61.6649 143.892L80.6752 118.804C81.6991 119.004 82.7357 119.169 83.7818 119.304ZM146.899 38.6069C147.989 38.6848 149.099 38.7567 150.221 38.8256L131.629 63.3626C131.246 62.3653 130.827 61.383 130.368 60.4246L146.899 38.6069ZM88.9647 119.675C87.8362 119.657 86.7172 119.597 85.6108 119.499L70.3094 139.696C73.305 137.785 75.9773 135.605 78.4657 133.536L88.9647 119.675ZM152.11 38.9394L141.532 52.9015C142.746 52.9794 143.872 53.0273 144.908 53.0482L155.474 39.1041C154.348 39.0562 153.226 39.0023 152.11 38.9394ZM157.391 39.176L146.88 53.0512C148.268 53.0273 149.482 52.9464 150.544 52.8176L160.821 39.2538C159.69 39.2419 158.542 39.2149 157.391 39.176ZM162.787 39.2628C162.809 39.2628 162.831 39.2628 162.853 39.2628C163.972 39.2598 165.047 39.3497 166.083 39.5144L161.712 45.2825C161.421 45.3604 161.129 45.4442 160.84 45.5341C158.732 46.193 159.011 48.4002 157.195 50.254C156.345 51.1195 155.036 51.9102 152.808 52.4313L162.787 39.2628ZM167.802 39.8528L164.064 44.7884C165.32 44.5877 166.584 44.4739 167.833 44.42L170.639 40.7183C169.726 40.3859 168.784 40.0894 167.802 39.8528ZM172.151 41.3203C173.048 41.7036 173.904 42.1139 174.725 42.5272L173.26 44.4619C172.48 44.426 171.666 44.396 170.829 44.3811C170.502 44.3751 170.17 44.3721 169.837 44.3751L172.151 41.3203ZM176.142 43.267C177.02 43.7342 177.847 44.1834 178.627 44.5877L178.557 44.6806C177.616 44.6925 176.459 44.6326 175.156 44.5638L176.142 43.267ZM141.37 53.1111C142.188 53.6083 143.003 54.0695 143.805 54.5008L133.208 68.4898C132.938 67.3548 132.625 66.2347 132.263 65.1326L141.37 53.1111ZM94.6104 119.433C93.3994 119.558 92.179 119.639 90.9427 119.669L83.5409 129.439C85.5918 127.911 87.573 126.695 89.5828 126.066L94.6104 119.433ZM145.222 55.2405L133.633 70.5323C133.867 71.8231 134.038 73.1349 134.143 74.4616L147.764 56.4834C146.94 56.091 146.087 55.6807 145.222 55.2405ZM100.893 118.346L92.0807 129.975C92.7274 128.618 93.5167 127.291 94.4709 125.827C93.596 125.626 92.7369 125.563 91.8905 125.623L96.7913 119.154C98.1829 118.941 99.5523 118.672 100.893 118.346ZM149.222 57.1662L134.26 76.9144C134.263 77.151 134.27 77.3846 134.27 77.6212C134.27 79.0288 134.194 80.4214 134.048 81.7961L146.129 65.8513C145.859 65.7285 145.583 65.6177 145.298 65.5219C145.872 65.1805 146.455 64.887 147.051 64.6324L151.787 58.3821C151.426 58.2054 151.052 58.0257 150.668 57.843C150.202 57.6214 149.72 57.3968 149.222 57.1662ZM108.225 115.875L89.8047 140.184C89.9156 138.052 90.1344 136.276 90.4736 134.698L103.388 117.657C105.046 117.148 106.663 116.555 108.225 115.875ZM153.217 59.1039L149.73 63.707C150.224 63.5692 150.719 63.4464 151.216 63.3326C152.129 63.123 153.042 62.9403 153.943 62.7516L155.6 60.5654C154.909 60.0592 154.107 59.5801 153.217 59.1039ZM147.523 66.618L133.579 85.0215C133.087 87.6211 132.339 90.1398 131.363 92.5507L149.714 68.3311C148.991 67.6872 148.271 67.1062 147.523 66.618ZM118.185 109.942C116.058 111.616 113.763 113.104 111.329 114.386L97.0195 133.269C97.4411 132.91 97.8659 132.571 98.2907 132.245C100.202 130.783 102.104 129.663 103.873 128.828L118.185 109.942ZM150.868 69.4122C151.067 69.6069 151.27 69.8046 151.476 70.0052C151.93 70.4515 152.389 70.9127 152.865 71.3799L104.545 135.153C105.467 132.844 106.342 130.397 106.685 127.722L150.868 69.4122ZM154.003 72.479C154.659 73.0989 155.353 73.7189 156.092 74.3268L101.787 146C101.543 144.17 101.882 142.352 102.485 140.481L154.003 72.479ZM157.334 75.2912C157.743 75.5907 158.168 75.8842 158.609 76.1687C158.961 76.3933 159.309 76.6149 159.658 76.8335L150.582 88.8101C149.65 88.5285 148.734 88.2051 147.84 87.8247L157.334 75.2912ZM161.008 77.6541L152.221 89.2533C153.22 89.4959 154.231 89.6965 155.249 89.8642L163.437 79.0587C162.635 78.6065 161.826 78.1393 161.008 77.6541ZM164.822 79.8284L157.024 90.1188C158.105 90.2566 159.186 90.3614 160.26 90.4512L167.279 81.1881C166.48 80.7419 165.659 80.2926 164.822 79.8284ZM168.667 81.9608C169.501 82.434 170.306 82.9042 171.079 83.3833L165.472 90.7837C164.381 90.7208 163.265 90.6609 162.134 90.589L168.667 81.9608ZM172.408 84.2339L167.361 90.8945C168.496 90.9694 169.596 91.0532 170.645 91.167L174.649 85.8841C174.072 85.4079 173.46 84.9527 172.816 84.5094C172.677 84.4166 172.544 84.3267 172.408 84.2339ZM175.828 86.9293C176.522 87.5971 177.15 88.3009 177.701 89.0616L175.419 92.0775C174.506 91.79 173.508 91.5743 172.439 91.4066L175.828 86.9293ZM178.595 90.4812L176.941 92.6645C178.326 93.3173 179.435 94.2188 180.174 95.4856C179.93 93.5689 179.388 91.9277 178.595 90.4812ZM147.308 88.5285C147.809 89.5019 148.278 90.4033 148.709 91.2808L145.995 94.8627C145.121 94.4943 144.192 94.1859 143.184 93.9702L147.308 88.5285ZM149.463 92.8921L147.447 95.5515C148.696 96.2074 149.856 96.9621 151.017 97.7228C150.652 95.9199 150.123 94.3955 149.463 92.8921ZM142.705 94.5991L129.715 111.742C130.678 111.928 131.578 112.281 132.425 112.772L143.83 97.7198C143.488 96.5997 143.114 95.5515 142.705 94.5991ZM144.363 99.6216L133.728 113.659C134.441 114.216 135.116 114.862 135.763 115.575L145.184 103.141C144.93 101.928 144.658 100.745 144.363 99.6216ZM145.596 105.204L136.809 116.803C137.402 117.543 137.972 118.328 138.533 119.133L146.268 108.927C146.053 107.672 145.831 106.426 145.596 105.204ZM146.626 111.053L139.465 120.502C140.014 121.319 140.556 122.149 141.095 122.958L147.257 114.824C147.045 113.584 146.835 112.32 146.626 111.053ZM147.625 116.941L142.027 124.329C142.594 125.144 143.165 125.926 143.754 126.65L148.335 120.604C148.088 119.439 147.853 118.211 147.625 116.941ZM148.795 122.607L144.813 127.863C145.482 128.576 146.179 129.199 146.912 129.696L149.771 125.923C149.416 124.934 149.093 123.817 148.795 122.607ZM150.468 127.606L148.3 130.466C149.85 131.128 151.578 131.223 153.575 130.481C152.31 130.37 151.305 129.316 150.468 127.606ZM129.442 112.107L123.289 120.226C124.142 120.67 124.826 121.307 125.384 122.065L130.089 115.86C129.959 114.725 129.749 113.485 129.442 112.107ZM130.25 118.247L126.247 123.53C126.719 124.527 127.055 125.629 127.305 126.734L129.379 123.997C129.597 123.365 129.787 122.697 129.936 121.963C130.152 120.882 130.272 119.666 130.25 118.247ZM122.55 121.2L102.218 148.034C102.5 149.172 102.83 150.262 103.236 151.295L122.332 126.09C122.55 124.311 122.617 122.667 122.55 121.2ZM121.783 129.421L103.978 152.921C104.383 153.697 104.856 154.431 105.41 155.123C105.477 155.206 105.544 155.287 105.613 155.368L119.602 136.908C120.446 134.653 121.099 132.463 121.574 130.391C121.65 130.061 121.72 129.738 121.783 129.421ZM116.791 143.221L106.716 156.515C107.366 157.108 108.108 157.662 108.951 158.168L114.882 150.34C115.05 147.905 115.592 145.503 116.632 143.523C116.686 143.425 116.737 143.323 116.791 143.221ZM114.838 153.005C114.889 155.746 115.041 157.698 114.765 160.444C113.075 160.025 111.617 159.513 110.359 158.914L114.838 153.005ZM52.9571 145.569L71.0607 121.676C67.4153 123.446 64.3943 126.56 61.3543 129.882L49.4923 145.536C50.6715 145.614 51.8254 145.623 52.9571 145.569ZM47.6569 145.359C46.6488 145.234 45.6218 145.054 44.5757 144.82L46.8454 141.825C49.1848 140.924 51.2548 139.618 53.1631 138.091L47.6569 145.359ZM42.9178 144.404C41.9953 144.149 41.057 143.853 40.1092 143.508L40.3977 143.125C41.7671 143.077 43.0541 142.901 44.2714 142.616L42.9178 144.404ZM41.6942 124.395L44.0114 121.337C41.9002 122.302 39.583 122.841 36.9487 122.664C38.5813 123.41 40.1631 123.976 41.6942 124.395Z" fill="#CECECE"/>
<path fill-rule="evenodd" clip-rule="evenodd" d="M118.09 80.8708C115.997 81.4697 114.834 81.5716 114.076 81.5716C109.195 81.5716 108.437 78.5617 108.437 76.8726C108.437 74.2491 110.618 72.3024 113.931 72.3024C115.5 72.3024 116.895 72.6139 118.029 73.0032V68.2025L117.563 68.1246C116.635 67.9689 114.92 67.6304 112.593 67.6304C103.524 67.6304 100.24 72.3564 100.24 77.0284C100.24 82.506 104.513 86.4293 112.387 86.4293C113.87 86.4293 115.731 86.2735 118.083 85.6985V80.8708H118.09ZM61.2997 67.9449V86.1178H79.2639V81.8321H69.0915V79.002H78.6267V74.8481H69.0915V72.2276H79.061V67.9449H61.2997ZM83.8984 75.0577V78.7684H90.9325C90.7867 79.2356 89.9435 81.7034 85.7877 81.7034C85.439 81.7034 83.4641 81.7033 81.0486 80.8708V85.7015C82.6462 86.0639 84.7416 86.4323 86.8908 86.4323C95.6114 86.4323 99.0413 81.5746 99.0413 77.0314C99.0413 73.4734 97.0347 67.6334 86.6879 67.6334C85.5246 67.6334 83.8984 67.6843 81.486 68.1276L81.0518 68.2055V73.0062C82.9981 72.2785 84.9191 72.1767 85.6165 72.1767C89.5409 72.1767 90.587 74.1233 90.9357 75.0577H83.8984Z" fill="#CECECE"/>
</svg>
