<svg width="246" height="107" viewBox="0 0 246 107" fill="none" xmlns="http://www.w3.org/2000/svg">
<path d="M159.446 47.2998C158.978 47.516 158.432 47.6816 157.805 47.7966C157.177 47.9115 156.492 47.9713 155.753 47.9713C154.435 47.9713 153.252 47.7828 152.214 47.4102C151.177 47.033 150.293 46.4948 149.569 45.7864C148.845 45.0781 148.29 44.2317 147.904 43.2428C147.517 42.2538 147.324 41.1407 147.324 39.8987C147.324 38.5326 147.517 37.3228 147.904 36.2649C148.29 35.2069 148.845 34.3192 149.569 33.597C150.293 32.8748 151.167 32.3321 152.19 31.9641C153.214 31.5961 154.348 31.4121 155.603 31.4121C156.569 31.4121 157.356 31.4765 157.959 31.6053C158.563 31.7341 159.065 31.8767 159.47 32.0285L159.06 33.8454C158.529 33.6614 157.988 33.5326 157.443 33.4544C156.897 33.3762 156.356 33.3394 155.825 33.3394C153.812 33.3394 152.282 33.8776 151.23 34.9493C150.177 36.0211 149.646 37.6034 149.646 39.6871C149.646 40.6853 149.796 41.5776 150.095 42.3688C150.395 43.16 150.815 43.8269 151.365 44.3697C151.91 44.9125 152.581 45.3265 153.368 45.6117C154.155 45.8968 155.048 46.0348 156.048 46.0348C156.579 46.0348 157.114 45.9888 157.655 45.8968C158.196 45.8048 158.674 45.6577 159.094 45.4599L159.446 47.2998Z" fill="#CECECE"/>
<path d="M175.082 47.7384L170.689 40.9077L166.272 47.7384H163.617L169.338 39.3668L164.172 31.6392H166.827L170.738 37.9639L174.817 31.6392H177.327L172.138 39.3208L177.882 47.7384H175.082Z" fill="#CECECE"/>
<path d="M190.762 45.0693C190.269 44.3195 189.854 43.6709 189.516 43.1236C189.178 42.5808 188.898 42.1346 188.672 41.7896C188.445 41.4446 188.232 41.1779 188.029 40.9847C187.827 40.7915 187.609 40.6581 187.378 40.5799C187.146 40.5017 186.856 40.4649 186.518 40.4649H184.93V47.7326H182.758V31.6333H184.93V38.947H186.354L192.316 31.6333H195.092L188.599 39.039C189.067 39.1172 189.478 39.3333 189.83 39.6967C190.183 40.0555 190.588 40.5845 191.037 41.2837C191.486 41.9828 192.046 42.8614 192.717 43.9285C193.383 44.9957 194.267 46.2652 195.362 47.7372H192.611C191.867 46.7068 191.254 45.819 190.762 45.0693Z" fill="#CECECE"/>
<path d="M130.2 9.5293H129.041V98.4708H130.2V9.5293Z" fill="#CECECE"/>
<path d="M149.063 77.894H147.325V65H151.308C152.08 65 152.775 65.0782 153.389 65.23C154.002 65.3818 154.528 65.6256 154.962 65.9568C155.402 66.288 155.735 66.7066 155.966 67.208C156.198 67.7141 156.314 68.3121 156.314 69.0113C156.314 70.3499 155.86 71.3711 154.953 72.0795C154.045 72.7879 152.78 73.1375 151.153 73.1375H149.063V77.894ZM149.063 71.5919H151.153C152.235 71.5919 153.06 71.3849 153.62 70.9663C154.18 70.5477 154.46 69.9083 154.46 69.0481C154.46 68.1649 154.18 67.5254 153.62 67.1298C153.06 66.7388 152.24 66.541 151.153 66.541H149.063V71.5919Z" fill="#CECECE"/>
<path d="M166.114 78.0777C165.173 78.0777 164.323 77.9259 163.57 77.6177C162.817 77.3095 162.17 76.8725 161.634 76.302C161.099 75.7316 160.688 75.0324 160.408 74.209C160.123 73.3856 159.983 72.4656 159.983 71.4444C159.983 70.4139 160.133 69.4893 160.428 68.6705C160.722 67.8517 161.142 67.1617 161.673 66.5867C162.209 66.0163 162.851 65.5746 163.599 65.271C164.347 64.9628 165.163 64.811 166.056 64.811C167.061 64.811 167.949 64.972 168.716 65.2986C169.484 65.6252 170.126 66.0807 170.652 66.6603C171.174 67.2445 171.569 67.9437 171.84 68.7579C172.11 69.5767 172.245 70.4691 172.245 71.4398C172.245 72.5346 172.091 73.496 171.782 74.324C171.473 75.152 171.048 75.842 170.507 76.3986C169.967 76.9507 169.32 77.3693 168.576 77.6499C167.823 77.9351 167.003 78.0777 166.114 78.0777ZM166.288 76.532C167.563 76.532 168.567 76.1042 169.296 75.2532C170.025 74.3976 170.387 73.1326 170.387 71.449C170.387 70.5657 170.285 69.8021 170.087 69.1627C169.889 68.5233 169.6 67.9943 169.228 67.5803C168.856 67.1617 168.398 66.8535 167.867 66.6603C167.331 66.4625 166.727 66.3659 166.061 66.3659C165.467 66.3659 164.912 66.4717 164.401 66.6787C163.884 66.8857 163.44 67.2031 163.068 67.6171C162.696 68.0357 162.397 68.5647 162.18 69.2041C161.963 69.8435 161.852 70.5933 161.852 71.449C161.852 72.2954 161.958 73.0406 162.17 73.68C162.383 74.3194 162.682 74.8484 163.068 75.2716C163.454 75.6948 163.923 76.0122 164.468 76.2192C165.009 76.4262 165.617 76.532 166.288 76.532Z" fill="#CECECE"/>
<path d="M186.009 77.5441C185.637 77.7189 185.198 77.8477 184.696 77.9397C184.194 78.0317 183.643 78.0777 183.054 78.0777C181.997 78.0777 181.056 77.9259 180.221 77.6269C179.39 77.3279 178.685 76.8955 178.101 76.3296C177.522 75.7638 177.078 75.0876 176.769 74.2918C176.46 73.5006 176.305 72.6082 176.305 71.61C176.305 70.5151 176.46 69.5445 176.769 68.6981C177.078 67.8517 177.522 67.1387 178.101 66.5591C178.681 65.9795 179.381 65.5471 180.196 65.2526C181.017 64.9582 181.925 64.811 182.934 64.811C183.706 64.811 184.334 64.8616 184.816 64.9674C185.299 65.0732 185.705 65.1836 186.023 65.3078L185.695 66.7615C185.27 66.6143 184.836 66.5085 184.401 66.4487C183.962 66.3889 183.532 66.3567 183.107 66.3567C181.495 66.3567 180.269 66.7845 179.424 67.6447C178.579 68.5049 178.159 69.7699 178.159 71.4398C178.159 72.2402 178.28 72.9532 178.516 73.588C178.753 74.2182 179.091 74.7564 179.53 75.1888C179.97 75.6258 180.505 75.957 181.133 76.1824C181.765 76.4078 182.48 76.5229 183.281 76.5229C183.706 76.5229 184.136 76.486 184.565 76.4124C184.995 76.3388 185.381 76.2238 185.714 76.0628L186.009 77.5441Z" fill="#CECECE"/>
<path d="M198.168 74.4486H192.39L191.077 77.894H189.319L194.48 65H196.218L201.282 77.894H199.467L198.168 74.4486ZM192.95 72.9397H197.608L195.344 66.8814H195.267L192.95 72.9397Z" fill="#CECECE"/>
<path d="M208.38 77.894H206.642V66.5456H202.64V65H212.382V66.5456H208.38V77.894Z" fill="#CECECE"/>
<path d="M221.408 78.0777C220.466 78.0777 219.617 77.9259 218.863 77.6177C218.11 77.3095 217.463 76.8725 216.928 76.302C216.392 75.7316 215.981 75.0324 215.701 74.209C215.417 73.3856 215.277 72.4656 215.277 71.4444C215.277 70.4139 215.426 69.4893 215.721 68.6705C216.015 67.8517 216.435 67.1617 216.966 66.5867C217.502 66.0163 218.144 65.5746 218.892 65.271C219.641 64.9628 220.457 64.811 221.35 64.811C222.354 64.811 223.242 64.972 224.01 65.2986C224.777 65.6252 225.419 66.0807 225.945 66.6603C226.467 67.2445 226.863 67.9437 227.133 68.7579C227.403 69.5767 227.538 70.4691 227.538 71.4398C227.538 72.5346 227.384 73.496 227.075 74.324C226.766 75.152 226.341 75.842 225.801 76.3986C225.26 76.9507 224.613 77.3693 223.865 77.6499C223.116 77.9351 222.296 78.0777 221.408 78.0777ZM221.581 76.532C222.856 76.532 223.86 76.1042 224.589 75.2532C225.318 74.3976 225.68 73.1326 225.68 71.449C225.68 70.5657 225.579 69.8021 225.381 69.1627C225.183 68.5233 224.893 67.9943 224.521 67.5803C224.15 67.1617 223.691 66.8535 223.16 66.6603C222.624 66.4625 222.021 66.3659 221.354 66.3659C220.761 66.3659 220.205 66.4717 219.694 66.6787C219.177 66.8857 218.733 67.2031 218.361 67.6171C217.99 68.0357 217.69 68.5647 217.473 69.2041C217.256 69.8435 217.145 70.5933 217.145 71.449C217.145 72.2954 217.251 73.0406 217.463 73.68C217.676 74.3194 217.975 74.8484 218.361 75.2716C218.748 75.6948 219.216 76.0122 219.761 76.2192C220.302 76.4262 220.91 76.532 221.581 76.532Z" fill="#CECECE"/>
<path d="M245.402 77.894H243.664L242.834 67.8152L239.411 77.894H237.596L234.193 67.8521L233.343 77.894H231.6L232.759 65H234.883L238.538 76.0908L242.115 65H244.239L245.402 77.894Z" fill="#CECECE"/>
<path d="M65.2882 61.4857C60.9627 66.0487 53.5911 66.3936 48.8167 62.263C44.0423 58.1324 43.6705 51.0809 47.9912 46.518C52.3166 41.955 59.6931 41.6146 64.4675 45.7406C69.2371 49.8758 69.6088 56.9227 65.2882 61.4857Z" fill="url(#paint0_radial_446_2157)"/>
<path d="M59.6724 15.8779C60.6523 16.7932 61.5551 17.7316 62.3758 18.6653C67.0681 24.0241 69.2646 29.2862 69.2646 29.2862C72.2577 29.8152 75.0577 29.9624 77.6645 29.8382C77.8335 29.829 77.988 29.829 78.1618 29.8198C78.3162 29.806 78.4611 29.7876 78.6155 29.7784C84.3893 29.2816 91.8912 27.1749 98.7463 20.6248C98.9828 20.3995 99.2194 20.1603 99.4511 19.9257C98.3891 18.7205 97.298 17.5292 96.1105 16.393C76.1921 -2.5305 45.1077 -4.17722 23.2246 11.4115C40.3913 3.48143 52.2863 8.95518 59.6724 15.8779Z" fill="url(#paint1_linear_446_2157)"/>
<path d="M20.1264 69.9342C20.4691 68.6693 20.8698 67.4549 21.3091 66.3096C23.8339 59.7595 27.5221 55.3161 27.5221 55.3161C26.5083 52.5792 25.2387 50.1965 23.8242 48.1082C23.7325 47.9748 23.6553 47.8414 23.5587 47.708C23.4718 47.5884 23.3801 47.4735 23.2932 47.3539C19.9526 42.8369 14.2851 37.7035 4.91003 35.3208C4.58658 35.238 4.25348 35.1644 3.92038 35.0908C3.35074 36.5674 2.81971 38.0669 2.37558 39.6124C-4.85604 65.5092 9.18721 91.9902 34.2951 102.248C18.5043 92.0454 17.5292 79.4926 20.1264 69.9342Z" fill="url(#paint2_linear_446_2157)"/>
<path d="M89.1708 75.6013C87.848 75.9509 86.5446 76.2269 85.2846 76.4385C78.0675 77.6298 72.1876 76.811 72.1876 76.811C70.2083 79.0143 68.6779 81.2544 67.4856 83.4669C67.4131 83.6095 67.3311 83.7429 67.2587 83.8901C67.1911 84.0235 67.138 84.1523 67.0704 84.2857C64.6325 89.2995 62.8029 96.5441 65.3276 105.477C65.4145 105.781 65.5159 106.098 65.6125 106.411C67.2393 106.139 68.8662 105.831 70.4931 105.417C97.6479 98.4393 114.694 73.6096 111.459 47.7588C110.074 65.8866 99.1589 72.9656 89.1708 75.6013Z" fill="url(#paint3_linear_446_2157)"/>
<path d="M23.2251 11.4107C23.2251 11.4107 11.1032 18.6416 4.76953 33.1631C6.4302 33.4391 23.3362 36.6866 29.6361 54.5889C31.176 53.6506 35.907 50.0949 39.0835 40.2882C42.9262 28.4345 50.2206 19.6857 59.6777 15.8771C59.6729 15.8771 47.6958 -0.392335 23.2251 11.4107Z" fill="url(#paint4_linear_446_2157)"/>
<path d="M61.6287 96.7707C61.6238 90.7588 63.3762 82.8058 70.381 75.3127L70.4582 75.1977C69.3141 74.034 65.3121 71.1637 55.015 73.3992C42.3186 76.1591 28.314 75.8371 20.1217 69.9355C20.1217 69.9355 11.3259 87.9575 34.2904 102.249C34.2904 102.249 46.9096 108.624 63.2507 106.605C62.9611 105.832 61.6335 102.047 61.6287 96.7707Z" fill="url(#paint5_linear_446_2157)"/>
<path d="M100.92 21.6597C99.115 23.748 90.5317 32.3174 76.2084 32.3266C73.9009 32.3266 71.4533 32.1058 68.8658 31.5952L68.7451 31.5676C68.272 33.2189 67.881 37.8969 74.876 45.0772C83.7249 54.1756 90.4399 65.8958 89.1751 75.6014C89.1751 75.6014 109.953 73.8489 111.459 47.7543C111.454 47.7543 110.938 34.1389 100.92 21.6597Z" fill="url(#paint6_linear_446_2157)"/>
<defs>
<radialGradient id="paint0_radial_446_2157" cx="0" cy="0" r="1" gradientUnits="userSpaceOnUse" gradientTransform="translate(52.9116 47.7907) rotate(0.0524932) scale(16.4121 15.683)">
<stop stop-color="#CECECE"/>
<stop offset="1" stop-color="#707070"/>
</radialGradient>
<linearGradient id="paint1_linear_446_2157" x1="40.6194" y1="4.40826" x2="89.0309" y2="24.868" gradientUnits="userSpaceOnUse">
<stop stop-color="#CECECE"/>
<stop offset="1" stop-color="#707070"/>
</linearGradient>
<linearGradient id="paint2_linear_446_2157" x1="19.2311" y1="91.3943" x2="12.4759" y2="41.3724" gradientUnits="userSpaceOnUse">
<stop stop-color="#CECECE"/>
<stop offset="1" stop-color="#707070"/>
</linearGradient>
<linearGradient id="paint3_linear_446_2157" x1="109.121" y1="65.612" x2="68.999" y2="98.5881" gradientUnits="userSpaceOnUse">
<stop stop-color="#CECECE"/>
<stop offset="1" stop-color="#707070"/>
</linearGradient>
<linearGradient id="paint4_linear_446_2157" x1="20.98" y1="40.2177" x2="41.5819" y2="7.03933" gradientUnits="userSpaceOnUse">
<stop stop-color="#CECECE"/>
<stop offset="1" stop-color="#707070"/>
</linearGradient>
<linearGradient id="paint5_linear_446_2157" x1="62.733" y1="86.2371" x2="23.1847" y2="90.4683" gradientUnits="userSpaceOnUse">
<stop stop-color="#CECECE"/>
<stop offset="1" stop-color="#707070"/>
</linearGradient>
<linearGradient id="paint6_linear_446_2157" x1="88.223" y1="31.6712" x2="95.5766" y2="70.6272" gradientUnits="userSpaceOnUse">
<stop stop-color="#CECECE"/>
<stop offset="1" stop-color="#707070"/>
</linearGradient>
</defs>
</svg>
