<svg width="181" height="161" viewBox="0 0 181 161" fill="none" xmlns="http://www.w3.org/2000/svg">
<path fill-rule="evenodd" clip-rule="evenodd" d="M119.284 102.88C119.934 101.954 120.406 100.921 120.368 99.8548H121.142C122.175 97.6566 120.495 96.0723 120.755 93.8741C119.592 94.485 118.815 93.7513 117.525 94.3622C113.778 98.6359 112.875 90.3371 109.128 91.9214C108.611 92.8977 106.544 92.4096 107.061 93.8741C108.224 94.9732 106.804 96.0723 107.191 97.414C106.544 100.22 102.54 97.0486 101.377 100.1C99.697 102.053 97.7601 99.6122 95.9501 99.3697C92.5899 102.176 93.1066 96.3179 89.8796 97.417C87.8128 98.028 90.5263 99.738 88.5863 100.469C87.5529 100.589 87.0362 99.9806 86.5195 99.3697C84.3227 97.7824 82.2559 99.9806 80.319 100.469C78.8989 99.8578 77.9923 98.3933 77.4755 97.0516C76.5721 97.6626 75.1488 96.3179 74.6353 96.4407C74.3753 96.1951 73.9886 95.9525 74.1186 95.7099C72.5684 94.2454 74.2485 89.4836 70.3717 90.9481C70.6284 89.9717 69.3383 89.9717 68.8216 89.4836C70.2417 85.4555 66.2317 87.3662 64.2948 86.6894C62.5831 86.0155 62.8208 86.7193 62.7574 86.8601C62.564 87.2853 58.3258 87.468 59.7777 89.4806H59.2609C58.4875 89.3578 57.1941 88.7468 57.7108 87.6507C55.1273 87.6507 54.7406 84.9643 53.5772 83.38C52.7055 83.1973 51.1078 82.8859 50.4199 83.4938C53.3743 101.706 70.1624 115.219 89.7496 115.219C100.94 115.216 111.822 110.663 119.284 102.88ZM119.44 52.6496C119.522 52.8053 119.579 53.0869 119.55 53.2007C119.218 54.6172 117.072 56.3543 119.465 57.2587C118.818 57.3815 118.175 58.3578 117.785 57.2587C118.172 58.846 115.975 59.5767 115.718 60.5531C112.361 57.9895 113.394 64.704 109.648 62.0176C108.744 63.1167 105.771 62.7513 106.677 64.704H107.064C107.194 65.8031 105.514 65.9259 105.127 66.7794C104.354 66.5368 104.354 67.3904 104.354 67.7558V68.4865C101.9 68.2439 103.577 64.5812 100.48 65.5575C100.09 68.4865 96.3463 66.1685 94.7962 66.5338C94.5363 65.8001 96.993 63.9702 94.6663 63.1167C93.6329 63.1167 92.5994 63.1167 92.2095 62.0176C91.1761 64.9466 87.2993 63.9702 85.6224 65.9229C85.8791 66.1685 86.0091 66.2883 86.0091 66.5338C85.1057 67.3874 84.3544 65.6923 83.2639 67.4653C82.8169 67.1089 82.2178 67.1418 81.5616 67.4024C80.6075 67.7827 79.7484 69.8971 78.8006 70.7716C78.4963 71.0501 78.1983 71.2717 77.913 71.4454C76.8986 72.0624 76.271 72.2331 76.0966 71.9246C75.6243 71.0801 74.9935 70.1846 74.9142 70.0798C74.3214 69.2771 74.3151 68.774 70.993 67.3664C69.8296 66.3901 68.6979 65.9229 67.021 65.8001C66.3743 65.8001 65.6009 66.8992 65.0842 65.8001C64.4375 64.09 67.4109 65.4347 66.2475 63.8474C65.3441 64.2128 64.4375 64.8238 64.1807 65.5575C63.794 64.704 62.6306 64.5812 61.7272 64.3386L60.9505 65.3149L59.7872 63.4821C59.7872 63.9702 59.0105 64.2158 59.2705 64.704H58.8837C58.1071 62.7513 60.0471 62.1404 60.4338 60.7987C61.5972 61.5294 61.2105 64.704 63.5341 63.8504C64.8274 61.8978 64.0508 59.5797 63.7908 57.6241C63.2741 57.0131 62.6274 56.6478 61.724 56.8903C60.1739 58.3548 58.237 59.9421 56.427 61.0412C56.1671 62.2602 55.0069 62.9939 53.8435 62.2602L53.536 62.1943C59.9108 48.8281 74.2105 40.0172 89.756 40.0172C101.095 40.0202 111.977 44.7192 119.44 52.6496ZM90.3963 60.0649V58.846H89.8796C89.2329 59.2114 89.7496 59.9451 90.3963 60.0649ZM91.4297 61.0442L92.2064 60.7987L91.4297 60.0649V61.0442ZM80.319 60.5561C76.832 59.3372 74.3753 61.4096 71.6618 63.1197C71.4019 63.9732 72.0486 64.3386 72.1785 65.0723L73.3419 62.7543C75.4087 61.5324 77.7355 60.8017 80.319 60.8017V60.5561ZM54.5536 62.8382C53.5201 62.4728 53.2602 63.8145 53.0034 64.4254C53.3902 64.7908 53.7769 64.9136 54.4236 64.7908C54.8135 64.4254 54.5536 63.5719 54.5536 62.8382ZM56.1607 64.704H55.644V66.2913C56.2875 65.9259 56.1607 65.3149 56.1607 64.704ZM126.807 91.2625C126.328 92.4245 125.789 93.5596 125.193 94.6557L124.762 94.6078C125.409 91.556 123.599 89.4806 123.082 86.917C124.632 87.2823 125.409 89.4806 126.442 90.4569C126.959 89.9687 125.925 88.7498 126.959 88.3815L122.565 83.988C121.792 84.5989 122.695 85.4525 122.825 86.1862C122.048 85.9436 121.145 84.9643 120.242 84.9643C119.338 85.3297 119.725 86.5516 118.561 86.4288C118.038 86.4288 117.629 86.3629 117.084 86.1143C117.062 84.2276 118.748 82.5085 118.729 82.1192C118.704 81.619 118.175 80.6966 118.175 78.9805C117.271 76.4169 121.145 76.2941 121.145 73.9761L122.565 73.4879V73.7305L124.115 72.5116C122.952 71.5353 123.342 69.4598 122.825 68.1181C123.342 67.5072 123.342 67.2646 124.115 67.019L124.892 67.7528C125.665 67.1418 124.505 65.3119 126.055 65.3119L126.829 69.4598C126.252 71.6401 126.994 73.8204 128.743 75.3927C128.953 75.5814 129.247 75.764 129.545 75.8509C129.545 76.2911 129.545 77.1746 129.545 77.6149C129.545 81.7748 128.766 86.0125 127.314 89.9568C126.889 90.0167 126.756 90.1694 126.667 90.3131C126.518 90.5617 126.718 90.9181 126.807 91.2625ZM79.0257 65.9259C78.1222 66.2913 77.6055 67.5132 76.7021 67.7558H77.4755C78.7689 68.2439 79.9323 67.025 79.0257 65.9259ZM53.834 69.4658H53.0605L53.5772 70.1996C53.9639 70.1966 53.834 69.8312 53.834 69.4658ZM98.4036 91.9214C98.9203 94.8504 96.3368 96.5575 94.6567 97.9022C95.9469 95.9495 97.757 94.2394 97.757 91.9214H98.4036ZM93.17 68.7321C93.281 68.6512 93.3888 68.5704 93.4965 68.4865C94.0132 68.6093 94.7867 67.8755 94.6599 67.2676C94.4475 67.1538 94.1908 67.1568 93.8833 67.2676C93.1478 67.8366 93.1161 68.0552 92.9323 68.217C92.647 68.4655 92.8499 68.6901 93.17 68.7321ZM77.6025 51.8462V58.2542H79.9166V56.3069H81.1402C81.7742 56.3069 82.2972 56.1961 82.7093 55.9744C83.1214 55.7527 83.4289 55.4771 83.6286 55.1476C83.8315 54.818 83.9266 54.4585 83.9171 54.0751C83.9076 53.6886 83.7935 53.3321 83.5779 53.0026C83.3624 52.673 83.0422 52.3974 82.6206 52.1757C82.199 51.9541 81.6759 51.8432 81.0578 51.8432H77.6025V51.8462ZM79.9166 53.3681H80.9215C81.1656 53.3681 81.3494 53.437 81.4699 53.5748C81.5935 53.7126 81.6569 53.8684 81.6633 54.0361C81.6696 54.2039 81.6189 54.3567 81.5048 54.4945C81.3938 54.6323 81.2258 54.7012 81.0039 54.7012H79.9166V53.3681ZM88.9003 51.8466L86.4531 58.2546H88.745L88.9669 57.4248H91.1732L91.3919 58.2546H93.6838L91.2556 51.8466H88.9003ZM90.051 54.0036L90.7199 56.0917H89.3917L90.051 54.0036ZM100.26 51.6274C99.4646 51.6544 98.8021 51.8371 98.2663 52.1816C97.7338 52.5262 97.3312 52.9515 97.0618 53.4578C96.7923 53.9671 96.6592 54.5124 96.6592 55.0965C96.6592 55.6807 96.7955 56.2199 97.0681 56.7173C97.3407 57.2146 97.7496 57.628 98.2917 57.9575C98.8369 58.287 99.5153 58.4518 100.333 58.4518C100.942 58.4518 101.474 58.3559 101.931 58.1642C102.387 57.9725 102.768 57.7178 103.072 57.4033C103.376 57.0857 103.601 56.7232 103.754 56.3158C103.906 55.9084 103.979 55.486 103.979 55.0486C103.96 54.6262 103.864 54.2128 103.696 53.8024C103.528 53.3949 103.291 53.0264 102.98 52.7059C102.669 52.3824 102.289 52.1217 101.836 51.924C101.376 51.7263 100.853 51.6274 100.26 51.6274ZM100.333 53.308C100.479 53.308 100.631 53.338 100.783 53.3979C100.939 53.4578 101.072 53.5537 101.192 53.6885C101.31 53.8233 101.408 53.9971 101.484 54.2068C101.56 54.4165 101.598 54.6711 101.598 54.9677C101.598 55.5669 101.493 56.0312 101.278 56.3608C101.065 56.6903 100.748 56.8551 100.33 56.8551C99.9337 56.8551 99.6167 56.7023 99.379 56.3997C99.1413 56.0971 99.024 55.6448 99.024 55.0456C99.024 54.4584 99.1508 54.0211 99.4012 53.7365C99.6548 53.4519 99.9623 53.308 100.333 53.308Z" fill="white"/>
<path fill-rule="evenodd" clip-rule="evenodd" d="M55.8608 112.239C55.2173 111.781 54.5168 111.4 53.7592 111.077L57.3127 106.387C57.9689 107.046 58.6472 107.687 59.3478 108.304L46.4999 125.261C45.4824 125.171 44.4363 125.018 43.3648 124.793L47.5746 119.238C50.5226 117.135 53.1442 114.44 55.8608 112.239ZM108.127 39.3166L121.986 21.0239C122.471 20.967 122.956 20.9101 123.438 20.8562C124.237 20.7663 125.029 20.6765 125.822 20.5687L110.701 40.5235C109.861 40.0983 109.002 39.694 108.127 39.3166ZM52.2059 110.52L56.2095 105.237C55.566 104.542 54.9479 103.82 54.3519 103.087L49.1976 109.888C50.2563 110.035 51.2644 110.241 52.2059 110.52ZM103.87 37.7293C104.802 38.0258 105.718 38.3523 106.621 38.7027L119.786 21.3294C118.411 21.551 117.003 21.8535 115.542 22.3267L103.87 37.7293ZM47.3717 109.69L53.3502 101.802C52.767 101.02 52.209 100.22 51.6797 99.3998L43.9862 109.555C45.1559 109.564 46.2875 109.603 47.3717 109.69ZM99.3115 36.5374C100.307 36.744 101.29 36.9836 102.256 37.2531L112.717 23.4438C110.752 24.3752 108.685 25.6779 106.488 27.5497C106.428 27.4569 106.374 27.3671 106.327 27.2772L99.3115 36.5374ZM42.0018 109.57L50.7984 97.9623C50.2817 97.0848 49.7967 96.1893 49.3466 95.2729L38.4229 109.69C39.6401 109.636 40.8352 109.591 42.0018 109.57ZM94.4171 35.7856C95.4854 35.8935 96.541 36.0312 97.5871 36.2109L105.785 25.3904C105.75 23.905 106.609 22.4764 107.794 20.8951C109.544 18.5681 112.004 15.9176 113.386 12.2879C112.838 12.6203 112.232 12.9018 111.576 13.1414L94.4171 35.7856ZM36.3751 109.786L48.5953 93.6586C48.1578 92.6643 47.7616 91.6521 47.4065 90.6248L32.7582 109.957C33.9754 109.906 35.1832 109.846 36.3751 109.786ZM89.1296 35.561C89.3356 35.558 89.5417 35.552 89.7477 35.552C90.6924 35.552 91.6275 35.585 92.5595 35.6389L109.062 13.8572C107.807 14.1417 106.438 14.3753 104.983 14.6358L89.1296 35.561ZM30.7294 110.029L46.8233 88.789C46.4873 87.6479 46.2051 86.4859 45.9737 85.3089L27.2044 110.08C27.2519 110.08 27.2963 110.08 27.3439 110.08C28.4692 110.086 29.6009 110.065 30.7294 110.029ZM83.3412 35.9923L98.4081 16.1033C98.9565 15.9416 99.5017 15.7949 100.041 15.6601C100.941 15.4355 101.822 15.2438 102.681 15.0701L87.104 35.6299C85.8328 35.7018 84.5775 35.8216 83.3412 35.9923ZM25.2549 110.05C24.1327 110.017 23.0169 109.957 21.9137 109.855L35.0469 92.5206C35.9471 92.6164 36.895 92.874 37.9157 93.3382L25.2549 110.05ZM20.091 109.654C19.0481 109.517 18.021 109.34 17.0098 109.118L28.1142 94.4643C29.7847 93.5688 31.357 92.8171 33.0403 92.5685L20.091 109.654ZM15.3487 108.702L24.8015 96.2223C24.6399 96.3031 24.475 96.384 24.3102 96.4618C22.982 97.0967 21.5365 97.6778 19.904 98.0821L12.5782 107.759C13.4784 108.124 14.4041 108.435 15.3487 108.702ZM11.1041 107.1L17.6121 98.5103C16.5026 98.6481 15.3107 98.702 14.0237 98.6421L8.67278 105.701C9.45576 106.225 10.2673 106.689 11.1041 107.1ZM7.39845 104.782C6.67887 104.219 5.99099 103.593 5.33164 102.907L9.10072 97.9293C10.1785 98.1809 11.1992 98.3666 12.1692 98.4834L7.39845 104.782ZM4.26653 101.706L7.45551 97.4981C6.56158 97.2405 5.63278 96.938 4.66277 96.5816L2.57377 99.3399C3.10315 100.193 3.67057 100.978 4.26653 101.706ZM1.72105 97.8604C1.24872 96.968 0.808099 96.0156 0.402344 94.9943L0.516462 94.8446C1.4199 95.2639 2.29164 95.6472 3.13485 95.9916L1.72105 97.8604ZM38.0235 93.1974C37.6082 92.3079 37.0122 91.5562 36.2673 90.9093L45.251 79.0526C45.3017 80.4452 45.4221 81.8199 45.6123 83.1796L38.0235 93.1974ZM76.8396 37.3639L90.0837 19.8829C91.9857 18.643 93.8909 17.7146 95.758 16.9988L81.0906 36.3577C79.6482 36.6272 78.2313 36.9626 76.8396 37.3639ZM34.9961 89.9839C34.229 89.5107 33.3668 89.1064 32.4443 88.747L45.7391 71.1971C45.457 72.9221 45.289 74.6801 45.2351 76.465L34.9961 89.9839ZM69.0986 40.3678C70.7533 39.5442 72.4683 38.8165 74.2339 38.1935L84.7836 24.2704C84.1337 24.9412 83.4871 25.66 82.8467 26.4327C82.1113 25.7708 81.5724 25.0939 81.1952 24.4021L69.0986 40.3678ZM30.8879 88.196C29.9654 87.8995 29.0017 87.6329 28.0191 87.3814L34.0769 79.3851C34.5745 79.7355 35.0722 80.1398 35.5667 80.598C35.6333 79.7714 35.497 78.8639 35.2149 77.8846L50.6938 57.4566C48.8616 60.6102 47.4446 64.0064 46.5126 67.5793L30.8879 88.196ZM56.8752 49.2955C59.4809 46.6001 62.4512 44.2222 65.7099 42.2396L80.5739 22.6232C80.2283 20.6795 80.8528 18.628 81.7436 16.4747L56.8752 49.2955ZM26.3612 86.9621C25.8413 86.8333 25.3214 86.7045 24.8047 86.5758C24.3451 86.459 23.8854 86.3422 23.4321 86.2224L30.0256 77.5192C30.9227 77.7349 31.823 78.0673 32.7328 78.5525L26.3612 86.9621ZM21.8059 85.7641C20.8454 85.4766 19.9198 85.1592 19.0512 84.7968L24.6557 77.4025C25.8286 77.2228 27.0364 77.1359 28.2695 77.2377L21.8059 85.7641ZM17.5962 84.114L22.3226 77.8756C20.7979 78.241 19.3555 78.6723 18.0368 78.9268L15.317 82.5177C15.9732 83.1316 16.7403 83.6558 17.5962 84.114ZM14.2678 81.2958C13.675 80.4303 13.2756 79.418 13.1107 78.2171L13.1266 78.1961C13.9191 78.8699 14.8479 79.1335 15.8908 79.1515L14.2678 81.2958ZM34.5809 76.1176L84.194 10.6377C84.847 8.76887 85.2654 6.84317 85.0847 4.85757L33.2336 73.2875C33.7472 74.2758 34.2068 75.2222 34.5809 76.1176ZM32.4158 71.7631L55.3315 41.5208C54.8845 40.4936 54.7577 39.1639 54.7831 37.6425L30.9481 69.1007C31.4521 70.0141 31.9466 70.9036 32.4158 71.7631ZM30.1176 67.5912L54.9447 34.8273C55.081 33.1951 55.2649 31.4461 55.3505 29.6881L41.3329 48.1874C41.3234 49.2955 41.3678 50.4216 41.4787 51.5627C40.6926 51.335 39.973 51.0985 39.3136 50.8499L28.6879 64.8749C29.1539 65.7973 29.6357 66.7048 30.1176 67.5912ZM27.9144 63.2876L37.8206 50.215C36.8728 49.7657 36.0834 49.2836 35.4304 48.7684L26.6465 60.3586C26.7289 60.5683 26.8113 60.7749 26.8969 60.9815C27.2171 61.7632 27.5594 62.5299 27.9144 63.2876ZM26.003 58.6036L34.2766 47.6813C33.5665 46.8637 33.1037 45.9772 32.8025 45.0219L25.0647 55.2344C25.3119 56.3754 25.6289 57.4985 26.003 58.6036ZM24.7033 53.108C24.5194 51.6405 24.4719 50.1521 24.5987 48.6427L32.2953 38.481C32.2731 40.0923 32.2446 41.5867 32.3936 42.9554L24.7033 53.108ZM25.1946 45.2525C25.9998 42.2576 27.5816 39.2088 30.2444 36.145C30.8467 35.4502 32.0956 33.8629 32.8501 32.9435C32.3651 33.9408 32.3017 34.8812 32.3017 35.8725L25.1946 45.2525ZM41.466 45.4022C41.6436 43.3926 41.9764 41.449 42.398 39.5682L54.8813 23.0934C55.1983 24.3542 55.341 25.6839 55.3822 27.0376L41.466 45.4022ZM43.4219 35.6119C43.983 33.6623 44.5884 31.7935 45.1464 30.0145C45.3778 29.2808 45.5997 28.562 45.8089 27.8552L52.7131 18.7418C53.3788 19.5175 53.8891 20.371 54.2759 21.2815L43.4219 35.6119ZM46.8138 23.9259C47.172 22.132 47.3178 20.4639 47.1086 18.9305L49.2293 16.1333C50.1359 16.5675 50.9157 17.0707 51.5846 17.6277L46.8138 23.9259ZM46.6204 16.9748C46.3383 16.2441 45.942 15.5493 45.419 14.8934C46.2527 15.0671 47.0198 15.2767 47.7235 15.5193L46.6204 16.9748ZM59.8518 35.552L84.6694 2.80009C84.3778 1.87766 83.934 0.943264 83.3032 -0.00012207L61.5287 28.7357C61.3037 29.6162 61.0976 30.4907 60.8979 31.3532C60.5587 32.8028 60.2322 34.2163 59.8518 35.552ZM62.8728 24.3572C63.7097 22.141 64.8287 19.9907 66.4675 18.059C69.1715 14.8694 71.774 12.0243 74.123 9.5116L62.8728 24.3572ZM128.092 20.1823L112.112 41.2723C112.93 41.7245 113.735 42.2007 114.518 42.6978L132.802 18.5681C131.217 19.3647 129.654 19.8499 128.092 20.1823ZM62.746 111.026C61.9915 110.481 61.2593 109.915 60.5429 109.328L48.3956 125.359C49.6445 125.383 50.8523 125.317 52.0157 125.186L62.746 111.026ZM136.863 15.8128C137.437 15.3127 138.017 14.7616 138.606 14.1477C136.933 21.1287 132.45 24.4321 128.805 26.7591C128.653 26.8549 128.501 26.9538 128.352 27.0466L136.863 15.8128ZM123.803 33.0483L115.833 43.5693C116.6 44.0964 117.349 44.6415 118.078 45.2105L127.977 32.1439C126.567 32.4044 125.223 32.8387 124.025 33.5065C123.939 33.3478 123.866 33.1951 123.803 33.0483ZM66.401 113.41C65.5958 112.937 64.8065 112.445 64.0362 111.927L54.2442 124.85C55.7626 124.566 57.2017 124.185 58.5553 123.763L66.401 113.41ZM130.155 31.8743L119.298 46.2048C120.011 46.8038 120.706 47.4237 121.378 48.0646L133.645 31.8743C133.534 31.8684 133.423 31.8594 133.313 31.8564C132.266 31.8025 131.204 31.7995 130.155 31.8743ZM70.3159 115.452L66.0269 121.113C64.5909 121.589 62.9837 122.227 61.2086 122.868L67.7862 114.186C68.6136 114.635 69.4568 115.057 70.3159 115.452ZM135.493 32.0361L122.503 49.1817C123.162 49.8586 123.796 50.5564 124.408 51.2722L134.676 37.7203C133.813 37.6694 133.018 37.6275 132.301 37.6005C131.712 36.3906 132.843 35.552 134.714 34.8782C135.509 34.5907 136.438 34.3361 137.424 34.0906L138.622 32.5093C137.655 32.3296 136.6 32.1619 135.493 32.0361ZM74.5002 117.135C73.5841 116.818 72.6838 116.474 71.7962 116.102L68.4931 120.46C69.7389 120.247 70.8104 120.31 71.7075 120.822L74.5002 117.135ZM140.35 32.8357C141.234 32.9944 142.344 33.1831 142.845 33.2729C142.242 33.2759 140.537 33.4017 139.817 33.5365L140.35 32.8357ZM136.555 37.8431L125.435 52.521C126.034 53.2787 126.608 54.0604 127.153 54.857L139.859 38.0857C138.698 37.9959 137.592 37.912 136.555 37.8431ZM78.9794 118.435C78.003 118.205 77.0362 117.941 76.0852 117.651L55.062 145.398C56.4505 145.236 57.804 144.982 59.1196 144.646L78.9794 118.435ZM141.726 38.2265C142.791 38.3073 143.894 38.3912 145.029 38.475L129.578 58.8642C129.106 57.9747 128.602 57.1062 128.069 56.2526L141.726 38.2265ZM83.7819 119.304L66.8099 141.702C65.1583 142.547 63.4434 143.287 61.665 143.892L80.6753 118.804C81.6992 119.004 82.7358 119.169 83.7819 119.304ZM146.899 38.6068C147.989 38.6847 149.099 38.7566 150.221 38.8255L131.629 63.3625C131.246 62.3652 130.827 61.3829 130.368 60.4245L146.899 38.6068ZM88.9647 119.675C87.8362 119.657 86.7172 119.597 85.6109 119.498L70.3095 139.696C73.3051 137.785 75.9774 135.605 78.4658 133.535L88.9647 119.675ZM152.11 38.9393L141.532 52.9014C142.746 52.9792 143.872 53.0272 144.908 53.0481L155.474 39.104C154.348 39.0561 153.226 39.0021 152.11 38.9393ZM157.392 39.1758L146.88 53.0511C148.268 53.0272 149.482 52.9463 150.544 52.8175L160.821 39.2537C159.69 39.2417 158.542 39.2148 157.392 39.1758ZM162.787 39.2627C162.809 39.2627 162.831 39.2627 162.853 39.2627C163.972 39.2597 165.047 39.3496 166.084 39.5143L161.712 45.2824C161.421 45.3603 161.129 45.4441 160.84 45.534C158.732 46.1928 159.011 48.4001 157.195 50.2539C156.345 51.1194 155.036 51.9101 152.808 52.4312L162.787 39.2627ZM167.802 39.8527L164.064 44.7882C165.32 44.5876 166.584 44.4738 167.833 44.4199L170.639 40.7182C169.726 40.3858 168.784 40.0893 167.802 39.8527ZM172.151 41.3202C173.048 41.7035 173.904 42.1138 174.725 42.5271L173.26 44.4618C172.481 44.4259 171.666 44.3959 170.829 44.3809C170.503 44.375 170.17 44.372 169.837 44.375L172.151 41.3202ZM176.142 43.2668C177.02 43.7341 177.847 44.1833 178.627 44.5876L178.557 44.6804C177.616 44.6924 176.459 44.6325 175.156 44.5636L176.142 43.2668ZM141.371 53.111C142.188 53.6082 143.003 54.0694 143.805 54.5006L133.208 68.4897C132.938 67.3546 132.625 66.2346 132.263 65.1324L141.371 53.111ZM94.6105 119.433C93.3995 119.558 92.1791 119.639 90.9428 119.669L83.5409 129.438C85.5919 127.911 87.5731 126.695 89.5829 126.066L94.6105 119.433ZM145.222 55.2404L133.633 70.5322C133.867 71.823 134.038 73.1348 134.143 74.4615L147.764 56.4832C146.94 56.0909 146.087 55.6806 145.222 55.2404ZM100.893 118.345L92.0808 129.974C92.7275 128.618 93.5168 127.291 94.471 125.827C93.5961 125.626 92.737 125.563 91.8906 125.623L96.7914 119.154C98.183 118.941 99.5524 118.672 100.893 118.345ZM149.223 57.1661L134.26 76.9143C134.264 77.1509 134.27 77.3845 134.27 77.6211C134.27 79.0287 134.194 80.4213 134.048 81.7959L146.129 65.8512C145.859 65.7284 145.583 65.6176 145.298 65.5218C145.872 65.1804 146.455 64.8869 147.051 64.6323L151.787 58.382C151.426 58.2053 151.052 58.0256 150.668 57.8429C150.202 57.6213 149.72 57.3967 149.223 57.1661ZM108.225 115.875L89.8048 140.184C89.9157 138.052 90.1345 136.276 90.4737 134.697L103.388 117.657C105.046 117.147 106.663 116.554 108.225 115.875ZM153.217 59.1038L149.73 63.7069C150.224 63.5691 150.719 63.4463 151.216 63.3325C152.129 63.1229 153.042 62.9402 153.943 62.7515L155.601 60.5653C154.909 60.0591 154.107 59.5799 153.217 59.1038ZM147.523 66.6179L133.579 85.0214C133.087 87.621 132.339 90.1397 131.363 92.5505L149.714 68.331C148.991 67.6871 148.272 67.1061 147.523 66.6179ZM118.185 109.942C116.058 111.616 113.763 113.104 111.329 114.386L97.0196 133.269C97.4412 132.909 97.866 132.571 98.2908 132.245C100.202 130.783 102.104 129.663 103.873 128.827L118.185 109.942ZM150.868 69.4121C151.067 69.6068 151.27 69.8044 151.476 70.0051C151.93 70.4513 152.389 70.9126 152.865 71.3797L104.545 135.153C105.468 132.844 106.342 130.397 106.685 127.722L150.868 69.4121ZM154.003 72.4789C154.659 73.0988 155.353 73.7188 156.092 74.3267L101.787 146C101.543 144.17 101.882 142.352 102.485 140.481L154.003 72.4789ZM157.335 75.2911C157.743 75.5906 158.168 75.884 158.609 76.1686C158.961 76.3932 159.309 76.6148 159.658 76.8334L150.582 88.8099C149.651 88.5284 148.734 88.205 147.84 87.8246L157.335 75.2911ZM161.008 77.654L152.221 89.2532C153.22 89.4958 154.231 89.6964 155.249 89.8641L163.437 79.0586C162.635 78.6064 161.826 78.1392 161.008 77.654ZM164.822 79.8283L157.024 90.1187C158.105 90.2565 159.186 90.3613 160.26 90.4511L167.279 81.188C166.48 80.7417 165.659 80.2925 164.822 79.8283ZM168.667 81.9606C169.501 82.4338 170.306 82.904 171.079 83.3832L165.472 90.7836C164.381 90.7207 163.266 90.6608 162.134 90.5889L168.667 81.9606ZM172.408 84.2338L167.361 90.8944C168.496 90.9692 169.596 91.0531 170.645 91.1669L174.649 85.8839C174.072 85.4078 173.46 84.9525 172.817 84.5093C172.677 84.4165 172.544 84.3266 172.408 84.2338ZM175.828 86.9291C176.522 87.597 177.15 88.3008 177.702 89.0615L175.419 92.0773C174.506 91.7898 173.508 91.5742 172.439 91.4065L175.828 86.9291ZM178.595 90.4811L176.941 92.6643C178.326 93.3172 179.435 94.2187 180.174 95.4855C179.93 93.5688 179.388 91.9276 178.595 90.4811ZM147.308 88.5284C147.809 89.5017 148.278 90.4032 148.709 91.2807L145.996 94.8626C145.121 94.4942 144.192 94.1857 143.184 93.9701L147.308 88.5284ZM149.463 92.8919L147.447 95.5514C148.696 96.2073 149.857 96.962 151.017 97.7227C150.652 95.9198 150.123 94.3954 149.463 92.8919ZM142.705 94.599L129.715 111.742C130.678 111.927 131.579 112.281 132.425 112.772L143.83 97.7197C143.488 96.5996 143.114 95.5514 142.705 94.599ZM144.363 99.6214L133.728 113.658C134.441 114.215 135.116 114.862 135.763 115.575L145.184 103.14C144.93 101.927 144.658 100.745 144.363 99.6214ZM145.596 105.204L136.809 116.803C137.402 117.543 137.972 118.327 138.533 119.133L146.268 108.927C146.053 107.672 145.831 106.426 145.596 105.204ZM146.626 111.053L139.465 120.502C140.014 121.319 140.556 122.149 141.095 122.958L147.257 114.823C147.045 113.584 146.836 112.32 146.626 111.053ZM147.625 116.941L142.027 124.329C142.594 125.144 143.165 125.925 143.754 126.65L148.335 120.604C148.088 119.439 147.853 118.211 147.625 116.941ZM148.795 122.607L144.813 127.863C145.482 128.576 146.179 129.199 146.912 129.696L149.771 125.922C149.416 124.934 149.093 123.817 148.795 122.607ZM150.468 127.606L148.3 130.466C149.85 131.128 151.578 131.223 153.575 130.481C152.31 130.37 151.305 129.316 150.468 127.606ZM129.442 112.107L123.289 120.226C124.142 120.669 124.827 121.307 125.384 122.065L130.089 115.86C129.959 114.725 129.749 113.485 129.442 112.107ZM130.25 118.247L126.247 123.53C126.719 124.527 127.055 125.629 127.305 126.734L129.379 123.997C129.597 123.365 129.788 122.697 129.937 121.963C130.152 120.882 130.273 119.666 130.25 118.247ZM122.551 121.2L102.218 148.034C102.5 149.172 102.83 150.262 103.236 151.295L122.332 126.09C122.55 124.311 122.617 122.667 122.551 121.2ZM121.783 129.42L103.978 152.921C104.383 153.697 104.856 154.431 105.411 155.122C105.477 155.206 105.544 155.287 105.613 155.368L119.602 136.908C120.446 134.652 121.099 132.463 121.574 130.391C121.65 130.061 121.72 129.738 121.783 129.42ZM116.791 143.221L106.717 156.515C107.366 157.108 108.108 157.662 108.951 158.168L114.882 150.34C115.05 147.905 115.592 145.503 116.632 143.523C116.686 143.424 116.737 143.323 116.791 143.221ZM114.838 153.005C114.889 155.745 115.041 157.698 114.765 160.444C113.075 160.025 111.617 159.513 110.359 158.914L114.838 153.005ZM52.9571 145.569L71.0608 121.676C67.4154 123.446 64.3944 126.56 61.3544 129.882L49.4924 145.536C50.6716 145.614 51.8255 145.623 52.9571 145.569ZM47.657 145.359C46.6489 145.233 45.6219 145.054 44.5758 144.82L46.8455 141.825C49.1849 140.924 51.2549 139.618 53.1632 138.091L47.657 145.359ZM42.9179 144.404C41.9954 144.149 41.0571 143.853 40.1093 143.508L40.3978 143.125C41.7672 143.077 43.0542 142.9 44.2715 142.616L42.9179 144.404ZM41.6943 124.395L44.0115 121.337C41.9003 122.302 39.5831 122.841 36.9488 122.664C38.5814 123.41 40.1632 123.976 41.6943 124.395Z" fill="#F1B900"/>
<path fill-rule="evenodd" clip-rule="evenodd" d="M118.09 80.8707C115.998 81.4697 114.834 81.5715 114.077 81.5715C109.195 81.5715 108.437 78.5617 108.437 76.8726C108.437 74.2491 110.618 72.3024 113.931 72.3024C115.5 72.3024 116.895 72.6138 118.029 73.0032V68.2024L117.563 68.1245C116.635 67.9688 114.92 67.6304 112.593 67.6304C103.524 67.6304 100.24 72.3563 100.24 77.0283C100.24 82.5059 104.513 86.4292 112.387 86.4292C113.87 86.4292 115.731 86.2735 118.083 85.6985V80.8707H118.09ZM61.2998 67.9448V86.1177H79.264V81.8321H69.0916V79.0019H78.6268V74.848H69.0916V72.2275H79.0611V67.9448H61.2998ZM83.8985 75.0577V78.7683H90.9326C90.7868 79.2355 89.9436 81.7033 85.7878 81.7033C85.4391 81.7033 83.4642 81.7033 81.0487 80.8707V85.7015C82.6463 86.0638 84.7417 86.4322 86.8909 86.4322C95.6115 86.4322 99.0414 81.5745 99.0414 77.0313C99.0414 73.4734 97.0348 67.6334 86.688 67.6334C85.5247 67.6334 83.8985 67.6843 81.4861 68.1275L81.0518 68.2054V73.0062C82.9982 72.2784 84.9192 72.1766 85.6166 72.1766C89.541 72.1766 90.5871 74.1233 90.9358 75.0577H83.8985Z" fill="#F1B900"/>
</svg>
