<svg width="70" height="62" viewBox="0 0 70 62" fill="none" xmlns="http://www.w3.org/2000/svg">
<path fill-rule="evenodd" clip-rule="evenodd" d="M46.1866 39.531C46.437 39.1754 46.619 38.7784 46.6044 38.3687H46.9024C47.3007 37.524 46.6532 36.9153 46.7534 36.0706C46.3051 36.3054 46.0058 36.0234 45.5086 36.2582C44.0646 37.9003 43.7165 34.7115 42.2726 35.3203C42.0734 35.6954 41.2769 35.5079 41.4761 36.0706C41.9244 36.4929 41.3771 36.9153 41.5262 37.4308C41.2769 38.5091 39.7341 37.2904 39.2857 38.4631C38.6383 39.2134 37.8919 38.2755 37.1943 38.1823C35.8994 39.2605 36.0986 37.0096 34.855 37.432C34.0585 37.6667 35.1042 38.3238 34.3566 38.6046C33.9583 38.6506 33.7592 38.417 33.5601 38.1823C32.7135 37.5724 31.917 38.417 31.1706 38.6046C30.6233 38.3698 30.274 37.8071 30.0748 37.2916C29.7267 37.5263 29.1782 37.0096 28.9803 37.0568C28.8801 36.9624 28.7311 36.8692 28.7812 36.776C28.1838 36.2133 28.8312 34.3836 27.3372 34.9463C27.4362 34.5711 26.939 34.5711 26.7399 34.3836C27.2871 32.8358 25.7418 33.57 24.9954 33.3099C24.3357 33.051 24.4274 33.3214 24.4029 33.3755C24.3284 33.5389 22.6951 33.6091 23.2546 34.3824H23.0555C22.7574 34.3352 22.259 34.1005 22.4581 33.6793C21.4625 33.6793 21.3135 32.647 20.8652 32.0383C20.5292 31.9681 19.9135 31.8484 19.6484 32.082C20.787 39.0799 27.2566 44.2722 34.8049 44.2722C39.1171 44.271 43.3109 42.5218 46.1866 39.531ZM46.2464 20.2302C46.2782 20.29 46.3002 20.3982 46.2892 20.4419C46.1609 20.9862 45.3339 21.6537 46.2562 22.0012C46.007 22.0484 45.759 22.4236 45.6088 22.0012C45.7578 22.6111 44.9112 22.8919 44.8123 23.2671C43.5186 22.282 43.9168 24.8621 42.4729 23.8298C42.1247 24.2521 40.9789 24.1118 41.3283 24.8621H41.4773C41.5274 25.2844 40.8799 25.3316 40.7309 25.6595C40.4328 25.5663 40.4328 25.8943 40.4328 26.0347V26.3155C39.4873 26.2223 40.1335 24.8149 38.94 25.19C38.7898 26.3155 37.347 25.4248 36.7497 25.5652C36.6495 25.2832 37.5963 24.5801 36.6996 24.2521C36.3013 24.2521 35.9031 24.2521 35.7528 23.8298C35.3546 24.9553 33.8606 24.5801 33.2144 25.3304C33.3133 25.4248 33.3634 25.4708 33.3634 25.5652C33.0152 25.8931 32.7257 25.2418 32.3055 25.9231C32.1332 25.7861 31.9024 25.7988 31.6495 25.8989C31.2818 26.045 30.9507 26.8575 30.5855 27.1935C30.4682 27.3005 30.3534 27.3857 30.2434 27.4524C29.8525 27.6895 29.6106 27.7551 29.5434 27.6366C29.3614 27.3121 29.1183 26.968 29.0878 26.9277C28.8593 26.6193 28.8569 26.426 27.5767 25.8851C27.1283 25.5099 26.6922 25.3304 26.046 25.2832C25.7968 25.2832 25.4987 25.7056 25.2996 25.2832C25.0504 24.6261 26.1962 25.1428 25.7479 24.5329C25.3998 24.6733 25.0504 24.9081 24.9514 25.19C24.8024 24.8621 24.3541 24.8149 24.0059 24.7217L23.7066 25.0968L23.2583 24.3925C23.2583 24.5801 22.959 24.6745 23.0592 24.8621H22.9101C22.6108 24.1118 23.3584 23.877 23.5075 23.3614C23.9558 23.6422 23.8068 24.8621 24.7022 24.5341C25.2006 23.7838 24.9013 22.8931 24.8012 22.1416C24.602 21.9069 24.3528 21.7665 24.0047 21.8597C23.4073 22.4224 22.6609 23.0323 21.9634 23.4547C21.8632 23.923 21.4161 24.205 20.9678 23.923L20.8493 23.8977C23.3059 18.7618 28.8166 15.3762 34.8073 15.3762C39.177 15.3774 43.3708 17.1829 46.2464 20.2302ZM35.0541 23.0795V22.6111H34.855C34.6058 22.7515 34.8049 23.0335 35.0541 23.0795ZM35.4523 23.4558L35.7516 23.3614L35.4523 23.0795V23.4558ZM31.1706 23.2682C29.8268 22.7999 28.8801 23.5962 27.8344 24.2533C27.7342 24.5813 27.9834 24.7217 28.0335 25.0036L28.4819 24.1129C29.2783 23.6434 30.175 23.3626 31.1706 23.3626V23.2682ZM21.2414 24.1451C20.8432 24.0047 20.743 24.5203 20.644 24.755C20.7931 24.8954 20.9421 24.9426 21.1913 24.8954C21.3416 24.755 21.2414 24.4271 21.2414 24.1451ZM21.8608 24.8621H21.6616V25.472C21.9096 25.3316 21.8608 25.0968 21.8608 24.8621ZM49.0854 35.0671C48.901 35.5136 48.6933 35.9498 48.4636 36.3709L48.2975 36.3525C48.5467 35.1799 47.8492 34.3824 47.6501 33.3973C48.2474 33.5377 48.5467 34.3824 48.945 34.7576C49.1441 34.57 48.7458 34.1016 49.1441 33.9601L47.4509 32.2719C47.1529 32.5066 47.501 32.8346 47.5511 33.1166C47.2518 33.0233 46.9037 32.647 46.5555 32.647C46.2073 32.7874 46.3564 33.257 45.908 33.2098C45.7065 33.2098 45.5489 33.1845 45.3388 33.0889C45.3302 32.364 45.9801 31.7034 45.9728 31.5538C45.963 31.3616 45.759 31.0072 45.759 30.3478C45.4109 29.3627 46.9037 29.3156 46.9037 28.4249L47.4509 28.2373V28.3305L48.0483 27.8621C47.6 27.487 47.7502 26.6895 47.5511 26.1739C47.7502 25.9392 47.7502 25.846 48.0483 25.7516L48.3476 26.0335C48.6457 25.7988 48.1986 25.0957 48.7959 25.0957L49.094 26.6895C48.8717 27.5272 49.1575 28.365 49.8318 28.9692C49.9125 29.0417 50.0261 29.1119 50.1409 29.1452C50.1409 29.3144 50.1409 29.6539 50.1409 29.823C50.1409 31.4215 49.8404 33.0498 49.2809 34.5654C49.1172 34.5884 49.0659 34.6471 49.0317 34.7023C48.9743 34.7978 49.0512 34.9348 49.0854 35.0671ZM30.6722 25.3316C30.324 25.472 30.1249 25.9415 29.7768 26.0347H30.0748C30.5732 26.2223 31.0216 25.7539 30.6722 25.3316ZM20.9641 26.6918H20.666L20.8652 26.9737C21.0142 26.9726 20.9641 26.8322 20.9641 26.6918ZM38.1399 35.3203C38.339 36.4458 37.3434 37.1017 36.6959 37.6184C37.1931 36.8681 37.8907 36.211 37.8907 35.3203H38.1399ZM36.123 26.4098C36.1658 26.3788 36.2073 26.3477 36.2488 26.3155C36.4479 26.3627 36.746 26.0807 36.6972 25.8471C36.6153 25.8034 36.5164 25.8045 36.3979 25.8471C36.1144 26.0658 36.1022 26.1498 36.0314 26.2119C35.9214 26.3074 35.9996 26.3937 36.123 26.4098ZM30.124 19.9218V22.3837H31.0158V21.6356H31.4873C31.7317 21.6356 31.9332 21.593 32.092 21.5078C32.2508 21.4227 32.3693 21.3168 32.4463 21.1902C32.5245 21.0636 32.5611 20.9254 32.5575 20.7781C32.5538 20.6296 32.5098 20.4927 32.4267 20.3661C32.3437 20.2395 32.2203 20.1336 32.0578 20.0484C31.8953 19.9632 31.6938 19.9207 31.4556 19.9207H30.124V19.9218ZM31.0158 20.5065H31.403C31.4971 20.5065 31.568 20.533 31.6144 20.5859C31.662 20.6389 31.6865 20.6987 31.6889 20.7632C31.6913 20.8276 31.6718 20.8863 31.6278 20.9393C31.5851 20.9922 31.5203 21.0187 31.4348 21.0187H31.0158V20.5065ZM34.4773 19.9221L33.5342 22.384H34.4174L34.5029 22.0652H35.3532L35.4374 22.384H36.3207L35.3849 19.9221H34.4773ZM34.9207 20.7508L35.1785 21.553H34.6666L34.9207 20.7508ZM38.8555 19.8381C38.5489 19.8485 38.2936 19.9187 38.0871 20.0511C37.8819 20.1834 37.7268 20.3469 37.6229 20.5414C37.5191 20.737 37.4678 20.9465 37.4678 21.1709C37.4678 21.3954 37.5203 21.6026 37.6254 21.7936C37.7304 21.9847 37.888 22.1435 38.0969 22.2701C38.307 22.3967 38.5684 22.46 38.8836 22.46C39.1182 22.46 39.3234 22.4232 39.4993 22.3495C39.6752 22.2759 39.8218 22.178 39.9391 22.0572C40.0564 21.9352 40.1431 21.7959 40.2017 21.6394C40.2604 21.4829 40.2885 21.3206 40.2885 21.1525C40.2811 20.9902 40.2445 20.8314 40.1797 20.6737C40.115 20.5172 40.0234 20.3756 39.9037 20.2525C39.7839 20.1282 39.6373 20.028 39.4627 19.9521C39.2855 19.8761 39.084 19.8381 38.8555 19.8381ZM38.8836 20.4838C38.9398 20.4838 38.9984 20.4953 39.0571 20.5184C39.1169 20.5414 39.1682 20.5782 39.2147 20.63C39.2599 20.6818 39.2977 20.7485 39.3271 20.8291C39.3564 20.9097 39.371 21.0075 39.371 21.1215C39.371 21.3516 39.3307 21.53 39.2476 21.6566C39.1658 21.7833 39.0436 21.8466 38.8824 21.8466C38.7297 21.8466 38.6075 21.7879 38.5159 21.6716C38.4243 21.5554 38.3791 21.3816 38.3791 21.1514C38.3791 20.9258 38.428 20.7578 38.5245 20.6484C38.6222 20.5391 38.7407 20.4838 38.8836 20.4838Z" fill="white"/>
<path fill-rule="evenodd" clip-rule="evenodd" d="M21.745 43.1273C21.497 42.9513 21.2271 42.8051 20.9351 42.6808L22.3045 40.8787C22.5574 41.1319 22.8188 41.3782 23.0888 41.6152L18.1376 48.1309C17.7455 48.0964 17.3424 48.0377 16.9294 47.9514L18.5517 45.8167C19.6878 45.0089 20.6981 43.9732 21.745 43.1273ZM41.8868 15.1071L47.2277 8.07819C47.4146 8.05633 47.6015 8.03446 47.7872 8.01375C48.095 7.97923 48.4004 7.9447 48.7058 7.90328L42.8788 15.5709C42.555 15.4075 42.224 15.2521 41.8868 15.1071ZM20.3365 42.4668L21.8794 40.4368C21.6314 40.1698 21.3932 39.8925 21.1635 39.6106L19.1772 42.224C19.5852 42.2804 19.9737 42.3598 20.3365 42.4668ZM40.2462 14.4972C40.6054 14.6111 40.9584 14.7366 41.3066 14.8712L46.3799 8.19557C45.8497 8.28073 45.3073 8.39696 44.7442 8.57878L40.2462 14.4972ZM18.4736 42.148L20.7775 39.1169C20.5527 38.8165 20.3377 38.5093 20.1337 38.194L17.1689 42.0962C17.6197 42.0997 18.0558 42.1147 18.4736 42.148ZM38.4895 14.0392C38.8731 14.1186 39.2518 14.2107 39.6244 14.3142L43.6557 9.00802C42.8983 9.36591 42.1018 9.8665 41.2553 10.5857C41.232 10.5501 41.2113 10.5155 41.193 10.481L38.4895 14.0392ZM16.4042 42.102L19.7941 37.6416C19.595 37.3044 19.4081 36.9603 19.2346 36.6082L15.025 42.148C15.4941 42.1273 15.9546 42.1101 16.4042 42.102ZM36.6034 13.7504C37.0151 13.7918 37.4219 13.8447 37.825 13.9138L40.9841 9.75602C40.9706 9.18524 41.3017 8.63632 41.7586 8.02871C42.4329 7.13456 43.3808 6.11612 43.9135 4.72138C43.7021 4.84912 43.4688 4.95729 43.2159 5.04935L36.6034 13.7504ZM14.2358 42.1848L18.9451 35.9879C18.7765 35.6059 18.6238 35.2169 18.487 34.8222L12.842 42.2504C13.3111 42.2309 13.7765 42.2079 14.2358 42.1848ZM34.5658 13.6641C34.6452 13.6629 34.7246 13.6606 34.804 13.6606C35.168 13.6606 35.5284 13.6733 35.8875 13.694L42.2472 5.32439C41.7634 5.43371 41.2357 5.52347 40.675 5.62359L34.5658 13.6641ZM12.0601 42.2781L18.2622 34.1168C18.1327 33.6783 18.024 33.2318 17.9348 32.7796L10.7017 42.2976C10.72 42.2976 10.7371 42.2976 10.7555 42.2976C11.1891 42.2999 11.6252 42.2919 12.0601 42.2781ZM32.3351 13.8298L38.1414 6.18747C38.3527 6.12533 38.5628 6.06894 38.7705 6.01716C39.1174 5.93085 39.4571 5.8572 39.7881 5.79045L33.7851 13.6905C33.2953 13.7181 32.8115 13.7642 32.3351 13.8298ZM9.95042 42.2861C9.51798 42.2735 9.08797 42.2504 8.66285 42.2113L13.724 35.5506C14.0709 35.5875 14.4362 35.6864 14.8295 35.8648L9.95042 42.2861ZM7.96043 42.1342C7.55852 42.0813 7.16272 42.0134 6.77303 41.9282L11.0523 36.2975C11.6961 35.9534 12.302 35.6646 12.9507 35.569L7.96043 42.1342ZM6.13291 41.7683L9.77573 36.973C9.71343 37.0041 9.64991 37.0351 9.58639 37.0651C9.07453 37.309 8.51748 37.5323 7.88836 37.6876L5.06523 41.4058C5.41216 41.5462 5.76887 41.6659 6.13291 41.7683ZM4.49718 41.1526L7.00514 37.8522C6.57758 37.9051 6.11825 37.9258 5.62228 37.9028L3.56021 40.6152C3.86195 40.8166 4.17468 40.9949 4.49718 41.1526ZM3.06913 40.2619C2.79182 40.0456 2.52674 39.805 2.27264 39.5415L3.72513 37.6289C4.14047 37.7256 4.53383 37.7969 4.90764 37.8418L3.06913 40.2619ZM1.86218 39.0801L3.09112 37.4632C2.74662 37.3643 2.38869 37.248 2.01488 37.1111L1.20985 38.1709C1.41385 38.4989 1.63252 38.8004 1.86218 39.0801ZM0.881234 37.6025C0.699215 37.2595 0.529412 36.8936 0.373047 36.5012L0.417025 36.4436C0.765182 36.6047 1.10112 36.752 1.42607 36.8844L0.881234 37.6025ZM14.871 35.8107C14.711 35.4689 14.4814 35.1801 14.1943 34.9315L17.6563 30.3756C17.6758 30.9107 17.7223 31.4389 17.7956 31.9614L14.871 35.8107ZM29.8296 14.3568L34.9334 7.63975C35.6664 7.16333 36.4006 6.80659 37.1201 6.53155L31.4678 13.9702C30.9119 14.0737 30.3659 14.2026 29.8296 14.3568ZM13.7044 34.5759C13.4088 34.3941 13.0765 34.2388 12.721 34.1007L17.8444 27.3571C17.7357 28.02 17.671 28.6955 17.6502 29.3813L13.7044 34.5759ZM26.8464 15.511C27.4841 15.1946 28.145 14.9149 28.8254 14.6756L32.8909 9.32563C32.6405 9.58341 32.3913 9.85959 32.1445 10.1565C31.8611 9.90217 31.6534 9.6421 31.5081 9.37627L26.8464 15.511ZM12.1212 33.8889C11.7657 33.775 11.3944 33.6726 11.0157 33.5759L13.3501 30.5033C13.5419 30.638 13.7337 30.7933 13.9243 30.9694C13.95 30.6518 13.8974 30.3031 13.7887 29.9268L19.7538 22.0774C19.0477 23.2891 18.5017 24.5941 18.1425 25.967L12.1212 33.8889ZM22.1359 18.9415C23.1401 17.9058 24.2847 16.9921 25.5405 16.2303L31.2686 8.69271C31.1355 7.94585 31.3761 7.15757 31.7194 6.33017L22.1359 18.9415ZM10.3768 33.4148C10.1764 33.3653 9.97608 33.3158 9.77696 33.2663C9.59982 33.2215 9.42269 33.1766 9.248 33.1306L11.7889 29.7864C12.1347 29.8693 12.4816 29.997 12.8322 30.1834L10.3768 33.4148ZM8.62132 32.9545C8.25117 32.844 7.89446 32.722 7.55974 32.5828L9.71954 29.7415C10.1715 29.6725 10.637 29.6391 11.1122 29.6782L8.62132 32.9545ZM6.99903 32.3204L8.82044 29.9233C8.23285 30.0637 7.67702 30.2295 7.16883 30.3273L6.1207 31.707C6.37357 31.943 6.6692 32.1443 6.99903 32.3204ZM5.71634 31.2375C5.4879 30.905 5.33398 30.516 5.27046 30.0545L5.27657 30.0465C5.58197 30.3054 5.9399 30.4067 6.34181 30.4136L5.71634 31.2375ZM13.5444 29.2478L32.6637 4.08731C32.9154 3.36922 33.0766 2.62928 33.007 1.86631L13.0252 28.1604C13.2231 28.5401 13.4002 28.9038 13.5444 29.2478ZM12.71 27.5746L21.541 15.9541C21.3688 15.5594 21.3199 15.0484 21.3297 14.4638L12.1444 26.5516C12.3387 26.9026 12.5292 27.2443 12.71 27.5746ZM11.8244 25.9716L21.392 13.3821C21.4445 12.7549 21.5154 12.0829 21.5483 11.4074L16.1464 18.5157C16.1427 18.9415 16.1598 19.3742 16.2026 19.8126C15.8996 19.7252 15.6223 19.6343 15.3682 19.5388L11.2734 24.9278C11.453 25.2823 11.6387 25.631 11.8244 25.9716ZM10.9754 24.3179L14.7929 19.2948C14.4276 19.1222 14.1234 18.9369 13.8718 18.739L10.4867 23.1925C10.5185 23.273 10.5502 23.3524 10.5832 23.4318C10.7066 23.7322 10.8385 24.0268 10.9754 24.3179ZM10.2387 22.5181L13.4271 18.3212C13.1535 18.0071 12.9751 17.6664 12.8591 17.2994L9.87713 21.2235C9.97241 21.6619 10.0946 22.0935 10.2387 22.5181ZM9.73787 20.4064C9.66701 19.8426 9.64869 19.2706 9.69755 18.6906L12.6636 14.7861C12.6551 15.4052 12.6441 15.9794 12.7015 16.5053L9.73787 20.4064ZM9.92721 17.388C10.2375 16.2372 10.8471 15.0657 11.8732 13.8885C12.1053 13.6215 12.5866 13.0116 12.8774 12.6583C12.6905 13.0415 12.666 13.4028 12.666 13.7837L9.92721 17.388ZM16.1977 17.4455C16.2661 16.6733 16.3944 15.9265 16.5569 15.2038L21.3675 8.87338C21.4897 9.35785 21.5447 9.8688 21.5606 10.3889L16.1977 17.4455ZM16.9514 13.6836C17.1677 12.9345 17.401 12.2164 17.616 11.5328C17.7052 11.2509 17.7907 10.9747 17.8713 10.7031L20.532 7.2013C20.7885 7.49935 20.9852 7.82732 21.1342 8.17716L16.9514 13.6836ZM18.2586 9.19329C18.3966 8.50398 18.4528 7.863 18.3722 7.2738L19.1894 6.19898C19.5388 6.36584 19.8393 6.55917 20.0971 6.77322L18.2586 9.19329ZM18.184 6.52235C18.0753 6.24156 17.9226 5.97458 17.721 5.72256C18.0423 5.7893 18.338 5.86986 18.6092 5.96307L18.184 6.52235ZM23.283 13.6606L32.847 1.07573C32.7346 0.721291 32.5635 0.36225 32.3204 -0.000244141L23.9292 11.0414C23.8425 11.3798 23.7631 11.7158 23.6861 12.0472C23.5554 12.6042 23.4296 13.1474 23.283 13.6606ZM24.4472 9.35901C24.7697 8.50743 25.2009 7.68118 25.8325 6.93893C26.8745 5.71335 27.8775 4.62012 28.7827 3.65462L24.4472 9.35901ZM49.5805 7.75483L43.4224 15.8586C43.7376 16.0323 44.0478 16.2153 44.3496 16.4063L51.3958 7.13456C50.785 7.44066 50.1827 7.62709 49.5805 7.75483ZM24.3983 42.6613C24.1076 42.4518 23.8254 42.2343 23.5493 42.0088L18.8681 48.1689C19.3494 48.1781 19.8149 48.1528 20.2632 48.1021L24.3983 42.6613ZM52.9607 6.07584C53.1818 5.88367 53.4053 5.67192 53.6325 5.43601C52.9875 8.11847 51.2602 9.38777 49.8554 10.2819C49.7967 10.3188 49.7381 10.3567 49.6807 10.3924L52.9607 6.07584ZM47.9277 12.6986L44.8565 16.7412C45.1522 16.9438 45.4405 17.1532 45.7214 17.3718L49.5365 12.351C48.9929 12.4511 48.4749 12.618 48.0132 12.8746C47.9802 12.8136 47.9521 12.7549 47.9277 12.6986ZM25.8068 43.5773C25.4966 43.3955 25.1924 43.2067 24.8955 43.0077L21.122 47.9732C21.7071 47.8639 22.2618 47.7178 22.7834 47.5555L25.8068 43.5773ZM50.3758 12.2474L46.1918 17.7539C46.4666 17.9841 46.7341 18.2223 46.9931 18.4685L51.7207 12.2474C51.678 12.2451 51.6352 12.2417 51.5925 12.2405C51.1893 12.2198 50.7801 12.2187 50.3758 12.2474ZM27.3155 44.3621L25.6627 46.5371C25.1093 46.7201 24.49 46.9652 23.8059 47.2114L26.3407 43.8753C26.6595 44.048 26.9845 44.2102 27.3155 44.3621ZM52.4329 12.3096L47.4268 18.8978C47.6809 19.1579 47.9252 19.426 48.161 19.701L52.1178 14.4938C51.7855 14.4742 51.4789 14.4581 51.2028 14.4477C50.9756 13.9828 51.4117 13.6606 52.1324 13.4017C52.439 13.2912 52.797 13.1934 53.1769 13.099L53.6387 12.4914C53.2661 12.4224 52.8593 12.3579 52.4329 12.3096ZM28.928 45.0088C28.575 44.8869 28.2281 44.7545 27.886 44.6118L26.6131 46.2862C27.0932 46.2045 27.5061 46.2287 27.8518 46.4255L28.928 45.0088ZM54.3044 12.6168C54.6453 12.6778 55.0728 12.7503 55.2658 12.7849C55.0337 12.786 54.3765 12.8343 54.0992 12.8861L54.3044 12.6168ZM52.8422 14.5409L48.5568 20.1809C48.7877 20.472 49.0088 20.7724 49.2189 21.0785L54.1151 14.6342C53.668 14.5996 53.2416 14.5674 52.8422 14.5409ZM30.6542 45.5083C30.2779 45.4197 29.9053 45.3184 29.5388 45.2068L21.4372 55.8687C21.9722 55.8066 22.4939 55.7087 23.0008 55.5799L30.6542 45.5083ZM54.8346 14.6882C55.2451 14.7193 55.6702 14.7515 56.1075 14.7838L50.1534 22.6182C49.9714 22.2765 49.7772 21.9427 49.5719 21.6148L54.8346 14.6882ZM32.5049 45.842L25.9644 54.4487C25.328 54.7732 24.6671 55.0574 23.9818 55.2899L31.3077 45.6498C31.7023 45.7269 32.1018 45.7902 32.5049 45.842ZM56.8283 14.8344C57.2485 14.8643 57.6761 14.8919 58.1085 14.9184L50.9438 24.3467C50.796 23.9635 50.6347 23.586 50.4576 23.2178L56.8283 14.8344ZM34.5022 45.9847C34.0673 45.9778 33.6361 45.9548 33.2098 45.9168L27.3131 53.6776C28.4675 52.9434 29.4973 52.1057 30.4563 51.3105L34.5022 45.9847ZM58.8366 14.9621L54.7601 20.327C55.228 20.357 55.6616 20.3754 56.0611 20.3834L60.1327 15.0254C59.699 15.007 59.2666 14.9863 58.8366 14.9621ZM60.8718 15.053L56.8209 20.3846C57.356 20.3754 57.8239 20.3443 58.2331 20.2948L62.1936 15.083C61.7574 15.0784 61.3152 15.068 60.8718 15.053ZM62.9509 15.0864C62.9595 15.0864 62.968 15.0864 62.9766 15.0864C63.4078 15.0853 63.8219 15.1198 64.2214 15.1831L62.5368 17.3995C62.4244 17.4294 62.312 17.4616 62.2009 17.4961C61.3885 17.7493 61.496 18.5974 60.796 19.3098C60.4686 19.6423 59.9641 19.9461 59.1053 20.1464L62.9509 15.0864ZM64.8835 15.3131L63.4433 17.2096C63.927 17.1325 64.4144 17.0888 64.8957 17.068L65.9769 15.6457C65.625 15.5179 65.2622 15.404 64.8835 15.3131ZM66.5596 15.877C66.9053 16.0243 67.2351 16.1819 67.5515 16.3408L66.9871 17.0842C66.6866 17.0703 66.3727 17.0588 66.0502 17.0531C65.9243 17.0508 65.7961 17.0496 65.6678 17.0508L66.5596 15.877ZM68.0976 16.625C68.436 16.8045 68.7548 16.9771 69.0553 17.1325L69.0284 17.1682C68.6656 17.1728 68.2197 17.1497 67.7176 17.1233L68.0976 16.625ZM54.6978 20.4076C55.013 20.5986 55.3269 20.7758 55.636 20.9416L51.5522 26.3168C51.4483 25.8807 51.3274 25.4503 51.1881 25.0268L54.6978 20.4076ZM36.6779 45.8915C36.2112 45.9398 35.7409 45.9709 35.2645 45.9824L32.4121 49.7362C33.2024 49.1493 33.9659 48.6821 34.7404 48.4405L36.6779 45.8915ZM56.182 21.2258L51.7159 27.1016C51.8062 27.5976 51.8722 28.1017 51.9125 28.6115L57.1618 21.7034C56.8441 21.5526 56.5155 21.395 56.182 21.2258ZM39.0991 45.4738L35.7031 49.9422C35.9523 49.4209 36.2565 48.9111 36.6242 48.3484C36.287 48.2713 35.9559 48.2471 35.6298 48.2701L37.5184 45.7845C38.0546 45.7028 38.5824 45.5992 39.0991 45.4738ZM57.7237 21.9657L51.9577 29.5539C51.959 29.6449 51.9614 29.7346 51.9614 29.8255C51.9614 30.3664 51.9321 30.9015 51.8759 31.4297L56.5314 25.303C56.4276 25.2558 56.3213 25.2132 56.2114 25.1764C56.4325 25.0452 56.6572 24.9324 56.8869 24.8346L58.712 22.433C58.5727 22.3651 58.4286 22.296 58.2808 22.2258C58.1012 22.1407 57.9155 22.0543 57.7237 21.9657ZM41.9247 44.5244L34.826 53.8652C34.8687 53.0459 34.953 52.3634 35.0837 51.757L40.0605 45.2091C40.6994 45.0135 41.3224 44.7856 41.9247 44.5244ZM59.2629 22.7103L57.9192 24.479C58.1097 24.4261 58.3003 24.3789 58.4921 24.3352C58.8439 24.2546 59.1957 24.1844 59.5427 24.1119L60.1816 23.2719C59.9153 23.0774 59.6062 22.8933 59.2629 22.7103ZM57.0689 25.5976L51.6951 32.6691C51.5057 33.668 51.2174 34.6358 50.8412 35.5621L57.9131 26.2558C57.6345 26.0084 57.3572 25.7852 57.0689 25.5976ZM45.763 42.2447C44.9433 42.888 44.0588 43.4599 43.1206 43.9524L37.6063 51.2081C37.7688 51.07 37.9325 50.9399 38.0962 50.8145C38.8328 50.2529 39.5658 49.8225 40.2474 49.5015L45.763 42.2447ZM58.3577 26.6713C58.4347 26.7461 58.5129 26.822 58.5923 26.8991C58.767 27.0706 58.9441 27.2478 59.1273 27.4273L40.5064 51.9319C40.8619 51.0447 41.1991 50.1045 41.331 49.0768L58.3577 26.6713ZM59.5659 27.8497C59.8188 28.0879 60.0863 28.3261 60.3709 28.5597L39.4436 56.1C39.3496 55.3969 39.4803 54.6984 39.7124 53.9791L59.5659 27.8497ZM60.8498 28.9302C61.0074 29.0453 61.1711 29.1581 61.3409 29.2674C61.4765 29.3537 61.6108 29.4389 61.7452 29.5229L58.2478 34.1248C57.8886 34.0167 57.5356 33.8924 57.1911 33.7462L60.8498 28.9302ZM62.2656 29.8382L58.8793 34.2951C59.2641 34.3884 59.6538 34.4655 60.046 34.5299L63.2014 30.3779C62.8923 30.2041 62.5808 30.0246 62.2656 29.8382ZM63.7352 30.6737L60.7301 34.6277C61.1466 34.6806 61.5632 34.7209 61.9773 34.7555L64.682 31.1961C64.3741 31.0246 64.0577 30.852 63.7352 30.6737ZM65.217 31.493C65.5383 31.6748 65.8486 31.8555 66.1467 32.0396L63.9856 34.8832C63.5654 34.859 63.1354 34.836 62.6993 34.8084L65.217 31.493ZM66.6585 32.3664L64.7137 34.9258C65.1511 34.9545 65.575 34.9868 65.9793 35.0305L67.5222 33.0005C67.2999 32.8175 67.0641 32.6426 66.8161 32.4723C66.7624 32.4366 66.711 32.4021 66.6585 32.3664ZM67.9766 33.4021C68.2442 33.6588 68.486 33.9292 68.6986 34.2215L67.819 35.3803C67.4672 35.2698 67.0824 35.187 66.6707 35.1225L67.9766 33.4021ZM69.0431 34.767L68.4054 35.6059C68.9392 35.8567 69.3668 36.2031 69.6514 36.6899C69.5574 35.9534 69.3485 35.3228 69.0431 34.767ZM56.9859 34.0167C57.1789 34.3907 57.3597 34.737 57.5258 35.0742L56.4801 36.4505C56.1429 36.309 55.785 36.1905 55.3965 36.1076L56.9859 34.0167ZM57.8165 35.6933L57.0396 36.7152C57.5209 36.9672 57.968 37.2572 58.4151 37.5495C58.2746 36.8568 58.0706 36.271 57.8165 35.6933ZM55.2121 36.3493L50.2059 42.9363C50.5773 43.0077 50.9243 43.1434 51.2504 43.3322L55.6458 37.5484C55.5138 37.118 55.3697 36.7152 55.2121 36.3493ZM55.851 38.2791L51.7525 43.6728C52.0274 43.8868 52.2876 44.1354 52.5368 44.4093L56.1674 39.6313C56.0696 39.1652 55.9646 38.7107 55.851 38.2791ZM56.3262 40.4242L52.9399 44.8811C53.1683 45.1654 53.3882 45.4669 53.6045 45.7764L56.5852 41.8546C56.5021 41.3724 56.4166 40.8937 56.3262 40.4242ZM56.7232 42.6716L53.9636 46.3023C54.1749 46.6165 54.3838 46.9352 54.5915 47.246L56.9663 44.1205C56.8845 43.644 56.8038 43.1584 56.7232 42.6716ZM57.108 44.934L54.9507 47.773C55.1693 48.086 55.3892 48.3864 55.6164 48.6649L57.3817 46.3414C57.2864 45.8938 57.196 45.422 57.108 44.934ZM57.5588 47.1113L56.0245 49.1309C56.2822 49.4048 56.551 49.6442 56.8332 49.8352L57.935 48.3852C57.7982 48.0055 57.6736 47.5762 57.5588 47.1113ZM58.2038 49.032L57.3682 50.1309C57.9656 50.3853 58.6314 50.4221 59.401 50.1367C58.9135 50.0941 58.5263 49.689 58.2038 49.032ZM50.1009 43.0767L47.7298 46.1964C48.0584 46.3668 48.3222 46.6119 48.5372 46.903L50.3501 44.5186C50.3 44.0825 50.2194 43.6061 50.1009 43.0767ZM50.4124 45.4358L48.8695 47.4658C49.0515 47.849 49.181 48.2724 49.2775 48.6971L50.0765 47.6453C50.1608 47.4025 50.234 47.1458 50.2915 46.8639C50.3745 46.4485 50.421 45.9813 50.4124 45.4358ZM47.4451 46.5704L39.6098 56.8814C39.7185 57.3187 39.8455 57.7376 40.0019 58.1346L47.3608 48.4497C47.4451 47.7661 47.4708 47.1343 47.4451 46.5704ZM47.1495 49.7293L40.2877 58.7595C40.4441 59.0575 40.6261 59.3394 40.8399 59.6053C40.8656 59.6375 40.8912 59.6686 40.9181 59.6996L46.309 52.6063C46.634 51.7397 46.8856 50.8985 47.0689 50.1022C47.0982 49.9756 47.1251 49.8513 47.1495 49.7293ZM45.2255 55.0321L41.3432 60.1404C41.5936 60.3682 41.8795 60.5811 42.2044 60.7756L44.4901 57.7675C44.5548 56.8319 44.7637 55.909 45.1644 55.1483C45.1852 55.1103 45.2047 55.0712 45.2255 55.0321ZM44.473 58.7917C44.4925 59.8446 44.5511 60.5949 44.4449 61.6502C43.7937 61.4891 43.2318 61.2923 42.7468 61.0622L44.473 58.7917ZM20.626 55.9343L27.6026 46.7534C26.1978 47.4335 25.0336 48.6303 23.8621 49.9065L19.2908 55.9216C19.7452 55.9516 20.1899 55.955 20.626 55.9343ZM18.5835 55.8537C18.195 55.8054 17.7992 55.7364 17.3961 55.6466L18.2708 54.4958C19.1723 54.1494 19.97 53.6477 20.7054 53.0608L18.5835 55.8537ZM16.7572 55.4866C16.4017 55.3888 16.0401 55.2749 15.6749 55.1426L15.786 54.9953C16.3138 54.9769 16.8097 54.909 17.2788 54.7996L16.7572 55.4866ZM16.2857 47.7983L17.1787 46.6234C16.3651 46.9939 15.4721 47.2011 14.4569 47.1332C15.086 47.4197 15.6956 47.6372 16.2857 47.7983Z" fill="#F1B900"/>
<path fill-rule="evenodd" clip-rule="evenodd" d="M45.7259 31.0741C44.9196 31.3043 44.4713 31.3434 44.1793 31.3434C42.298 31.3434 42.0061 30.1869 42.0061 29.5379C42.0061 28.5298 42.8465 27.7818 44.1231 27.7818C44.7278 27.7818 45.2653 27.9015 45.7027 28.0511V26.2064L45.5231 26.1764C45.1651 26.1166 44.5043 25.9866 43.6076 25.9866C40.1126 25.9866 38.847 27.8025 38.847 29.5977C38.847 31.7025 40.4937 33.21 43.5282 33.21C44.0999 33.21 44.817 33.1501 45.7234 32.9292V31.0741H45.7259ZM23.8408 26.1074V33.0903H30.7637V31.4435H26.8435V30.3561H30.5181V28.7599H26.8435V27.753H30.6855V26.1074H23.8408ZM32.5496 28.8405V30.2663H35.2604C35.2042 30.4458 34.8792 31.3941 33.2777 31.3941C33.1433 31.3941 32.3823 31.3941 31.4514 31.0741V32.9303C32.0671 33.0696 32.8746 33.2111 33.7028 33.2111C37.0635 33.2111 38.3852 31.3446 38.3852 29.5989C38.3852 28.2317 37.612 25.9877 33.6246 25.9877C33.1763 25.9877 32.5496 26.0073 31.62 26.1776L31.4526 26.2075V28.0522C32.2027 27.7726 32.943 27.7334 33.2117 27.7334C34.7241 27.7334 35.1272 28.4815 35.2616 28.8405H32.5496Z" fill="#F1B900"/>
</svg>
