<svg width="166" height="145" viewBox="0 0 166 145" fill="none" xmlns="http://www.w3.org/2000/svg">
<path fill-rule="evenodd" clip-rule="evenodd" d="M109.582 92.8595C110.178 92.0253 110.611 91.0941 110.576 90.1331H111.285C112.233 88.1517 110.692 86.7237 110.931 84.7424C109.864 85.293 109.152 84.6317 107.969 85.1824C104.533 89.0344 103.705 81.5544 100.269 82.9823C99.7957 83.8624 97.9006 83.4223 98.3744 84.7424C99.4411 85.733 98.139 86.7237 98.4936 87.9331C97.9006 90.4624 94.2296 87.6037 93.1629 90.3544C91.6224 92.1144 89.8465 89.9144 88.1868 89.6958C85.1059 92.2251 85.5797 86.9451 82.6208 87.9357C80.7257 88.4864 83.2137 90.0278 81.4349 90.6864C80.4873 90.7944 80.0136 90.2464 79.5398 89.6958C77.5255 88.2651 75.6304 90.2464 73.8545 90.6864C72.5524 90.1358 71.7211 88.8158 71.2473 87.6064C70.4189 88.1571 69.1139 86.9451 68.643 87.0557C68.4047 86.8344 68.0501 86.6157 68.1693 86.3971C66.7479 85.0771 68.2884 80.785 64.7337 82.105C64.9691 81.225 63.7861 81.225 63.3124 80.785C64.6145 77.1543 60.9377 78.8766 59.1618 78.2665C57.5922 77.6591 57.8102 78.2935 57.7521 78.4203C57.5748 78.8037 53.6887 78.9683 55.0199 80.7823H54.5461C53.8369 80.6716 52.6511 80.121 53.1248 79.133C50.756 79.133 50.4014 76.7116 49.3346 75.2836C48.5353 75.119 47.0704 74.8382 46.4397 75.3862C49.1486 91.8013 64.5419 103.981 82.5016 103.981C92.7618 103.978 102.74 99.8752 109.582 92.8595ZM109.725 47.5851C109.8 47.7254 109.852 47.9792 109.826 48.0818C109.521 49.3586 107.553 50.9242 109.748 51.7394C109.155 51.8501 108.565 52.7301 108.207 51.7394C108.562 53.1701 106.548 53.8288 106.312 54.7088C103.234 52.3981 104.182 58.4502 100.746 56.0288C99.9178 57.0195 97.1914 56.6902 98.0227 58.4502H98.3773C98.4965 59.4408 96.956 59.5515 96.6014 60.3208C95.8922 60.1022 95.8922 60.8715 95.8922 61.2009V61.8595C93.6425 61.6409 95.1801 58.3395 92.3403 59.2195C91.9828 61.8595 88.5502 59.7702 87.1289 60.0995C86.8905 59.4381 89.1431 57.7888 87.0097 57.0195C86.0621 57.0195 85.1146 57.0195 84.7571 56.0288C83.8095 58.6688 80.2548 57.7888 78.7172 59.5488C78.9527 59.7702 79.0718 59.8781 79.0718 60.0995C78.2435 60.8688 77.5546 59.341 76.5547 60.939C76.1449 60.6178 75.5956 60.6475 74.9939 60.8823C74.119 61.2251 73.3313 63.1309 72.4623 63.9191C72.1832 64.1702 71.91 64.3699 71.6484 64.5265C70.7183 65.0826 70.1428 65.2365 69.983 64.9584C69.5499 64.1972 68.9715 63.3901 68.8988 63.2956C68.3553 62.5721 68.3495 62.1186 65.3034 60.8499C64.2367 59.9699 63.199 59.5488 61.6614 59.4381C61.0685 59.4381 60.3593 60.4288 59.8855 59.4381C59.2926 57.8968 62.0189 59.1088 60.9522 57.6781C60.1239 58.0075 59.2926 58.5581 59.0571 59.2195C58.7025 58.4502 57.6358 58.3395 56.8075 58.1208L56.0953 59.0008L55.0286 57.3488C55.0286 57.7888 54.3165 58.0102 54.5549 58.4502H54.2003C53.4881 56.6902 55.267 56.1395 55.6216 54.9301C56.6883 55.5888 56.3337 58.4502 58.4642 57.6808C59.6501 55.9208 58.938 53.8315 58.6996 52.0688C58.2259 51.5181 57.6329 51.1888 56.8045 51.4074C55.3832 52.7274 53.6073 54.1581 51.9477 55.1488C51.7093 56.2474 50.6455 56.9088 49.5788 56.2474L49.2969 56.1881C55.142 44.1406 68.2536 36.199 82.5074 36.199C92.9042 36.2017 102.882 40.437 109.725 47.5851ZM83.0945 54.2688V53.1701H82.6208C82.0278 53.4995 82.5016 54.1608 83.0945 54.2688ZM84.0421 55.1515L84.7542 54.9301L84.0421 54.2688V55.1515ZM73.8545 54.7115C70.6573 53.6128 68.4047 55.4808 65.9167 57.0222C65.6783 57.7915 66.2713 58.1208 66.3904 58.7822L67.4571 56.6928C69.3522 55.5915 71.4857 54.9328 73.8545 54.9328V54.7115ZM50.2299 56.7684C49.2823 56.4391 49.044 57.6484 48.8086 58.1991C49.1632 58.5284 49.5178 58.6391 50.1107 58.5284C50.4682 58.1991 50.2299 57.4298 50.2299 56.7684ZM51.7035 58.4502H51.2297V59.8808C51.8198 59.5515 51.7035 59.0008 51.7035 58.4502ZM116.479 82.3885C116.041 83.4358 115.546 84.4589 115 85.4469L114.605 85.4037C115.198 82.653 113.538 80.7823 113.064 78.4716C114.486 78.801 115.198 80.7823 116.145 81.6623C116.619 81.2223 115.671 80.1237 116.619 79.7916L112.59 75.8316C111.881 76.3823 112.71 77.1516 112.829 77.813C112.117 77.5943 111.288 76.7116 110.46 76.7116C109.632 77.041 109.986 78.1423 108.919 78.0316C108.44 78.0316 108.065 77.9722 107.565 77.7482C107.545 76.0476 109.091 74.4981 109.074 74.1472C109.05 73.6964 108.565 72.865 108.565 71.3182C107.736 69.0075 111.288 68.8969 111.288 66.8075L112.59 66.3675V66.5862L114.012 65.4875C112.945 64.6075 113.303 62.7368 112.829 61.5275C113.303 60.9768 113.303 60.7581 114.012 60.5368L114.724 61.1982C115.433 60.6475 114.369 58.9981 115.791 58.9981L116.5 62.7368C115.971 64.702 116.651 66.6671 118.255 68.0843C118.447 68.2544 118.718 68.4191 118.991 68.4973C118.991 68.8942 118.991 69.6905 118.991 70.0873C118.991 73.8368 118.276 77.6564 116.945 81.2115C116.555 81.2655 116.433 81.4032 116.352 81.5328C116.215 81.7568 116.398 82.078 116.479 82.3885ZM72.6686 59.5515C71.8403 59.8808 71.3665 60.9822 70.5381 61.2009H71.2473C72.4332 61.6409 73.4999 60.5422 72.6686 59.5515ZM49.5701 62.7422H48.8609L49.3346 63.4036C49.6893 63.4009 49.5701 63.0715 49.5701 62.7422ZM90.4365 82.9823C90.9103 85.6224 88.5415 87.161 87.001 88.3731C88.1839 86.613 89.8436 85.0717 89.8436 82.9823H90.4365ZM85.6378 62.0809C85.7395 62.008 85.8383 61.9351 85.9372 61.8595C86.4109 61.9702 87.1201 61.3088 87.0039 60.7609C86.8091 60.6583 86.5737 60.661 86.2918 60.7609C85.6174 61.2737 85.5884 61.4708 85.4198 61.6166C85.1582 61.8406 85.3442 62.0431 85.6378 62.0809ZM71.3635 46.8612V52.6361H73.4853V50.8812H74.6073C75.1886 50.8812 75.6682 50.7813 76.046 50.5816C76.4239 50.3818 76.7058 50.1334 76.8889 49.8364C77.0749 49.5394 77.1621 49.2154 77.1534 48.8699C77.1447 48.5216 77.0401 48.2003 76.8424 47.9033C76.6448 47.6063 76.3512 47.3579 75.9646 47.1582C75.5781 46.9584 75.0985 46.8585 74.5317 46.8585H71.3635V46.8612ZM73.4853 48.2327H74.4067C74.6305 48.2327 74.7991 48.2948 74.9095 48.419C75.0229 48.5432 75.081 48.6836 75.0868 48.8348C75.0927 48.986 75.0462 49.1236 74.9415 49.2478C74.8398 49.372 74.6857 49.4341 74.4823 49.4341H73.4853V48.2327ZM81.7226 46.8619L79.4788 52.6368H81.5802L81.7837 51.889H83.8067L84.0072 52.6368H86.1087L83.8822 46.8619H81.7226ZM82.7777 48.8057L83.391 50.6875H82.1732L82.7777 48.8057ZM92.139 46.6642C91.4095 46.6885 90.802 46.8532 90.3108 47.1637C89.8225 47.4742 89.4534 47.8575 89.2063 48.3138C88.9592 48.7728 88.8372 49.2641 88.8372 49.7906C88.8372 50.3171 88.9621 50.803 89.2121 51.2512C89.4621 51.6994 89.837 52.072 90.334 52.369C90.834 52.6659 91.456 52.8144 92.2059 52.8144C92.7639 52.8144 93.2522 52.728 93.6708 52.5552C94.0893 52.3825 94.4381 52.153 94.7172 51.8695C94.9962 51.5833 95.2026 51.2566 95.3421 50.8894C95.4816 50.5223 95.5484 50.1416 95.5484 49.7474C95.531 49.3667 95.4438 48.9942 95.2898 48.6243C95.1357 48.2571 94.9177 47.925 94.6329 47.6361C94.348 47.3446 93.9992 47.1097 93.5836 46.9315C93.1621 46.7533 92.6826 46.6642 92.139 46.6642ZM92.2059 48.1788C92.3396 48.1788 92.4791 48.2058 92.6186 48.2598C92.761 48.3138 92.8831 48.4002 92.9936 48.5217C93.1011 48.6432 93.1912 48.7998 93.261 48.9888C93.3307 49.1777 93.3656 49.4072 93.3656 49.6745C93.3656 50.2145 93.2697 50.633 93.072 50.9299C92.8773 51.2269 92.5866 51.3754 92.203 51.3754C91.8396 51.3754 91.549 51.2377 91.331 50.965C91.113 50.6924 91.0055 50.2847 91.0055 49.7447C91.0055 49.2155 91.1217 48.8214 91.3513 48.5649C91.5839 48.3084 91.8658 48.1788 92.2059 48.1788Z" fill="white"/>
<path fill-rule="evenodd" clip-rule="evenodd" d="M51.4279 101.295C50.8379 100.882 50.1955 100.539 49.5009 100.247L52.7591 96.0201C53.3608 96.6139 53.9828 97.1916 54.6252 97.7477L42.8448 113.032C41.9118 112.951 40.9526 112.813 39.9702 112.611L43.8301 107.603C46.5333 105.708 48.937 103.279 51.4279 101.295ZM99.3516 35.5669L112.059 19.079C112.504 19.0277 112.949 18.9764 113.39 18.9278C114.123 18.8468 114.849 18.7658 115.576 18.6687L101.712 36.6548C100.941 36.2715 100.154 35.907 99.3516 35.5669ZM48.0767 99.7452L51.7477 94.9835C51.1576 94.3572 50.5908 93.7067 50.0444 93.0453L45.3183 99.1757C46.2891 99.3079 47.2134 99.4942 48.0767 99.7452ZM95.448 34.1362C96.3026 34.4035 97.1426 34.6977 97.9709 35.0135L110.042 19.3543C108.78 19.5541 107.49 19.8267 106.15 20.2532L95.448 34.1362ZM43.6441 98.9975L49.1259 91.8873C48.5911 91.1827 48.0796 90.462 47.5942 89.7224L40.5399 98.876C41.6124 98.8841 42.6501 98.9192 43.6441 98.9975ZM91.2684 33.0619C92.181 33.2481 93.0821 33.4641 93.9686 33.707L103.56 21.2601C101.758 22.0996 99.8631 23.2738 97.8489 24.961C97.7936 24.8773 97.7442 24.7963 97.7006 24.7153L91.2684 33.0619ZM38.7204 98.8895L46.7861 88.4267C46.3124 87.6357 45.8677 86.8286 45.4549 86.0026L35.4389 98.9975C36.555 98.9489 37.6508 98.9084 38.7204 98.8895ZM86.7806 32.3843C87.7601 32.4815 88.728 32.6057 89.6872 32.7676L97.2036 23.0147C97.1716 21.6758 97.9593 20.3882 99.0464 18.9629C100.651 16.8655 102.906 14.4765 104.174 11.2048C103.671 11.5044 103.116 11.7582 102.514 11.9741L86.7806 32.3843ZM33.5612 99.0839L44.7661 84.5476C44.365 83.6514 44.0016 82.739 43.6761 81.8131L30.2448 99.2378C31.3609 99.1919 32.4683 99.1379 33.5612 99.0839ZM81.9324 32.1819C82.1214 32.1792 82.3103 32.1738 82.4992 32.1738C83.3654 32.1738 84.2228 32.2035 85.0774 32.2521L100.209 12.6193C99.058 12.8757 97.8023 13.0863 96.4682 13.3211L81.9324 32.1819ZM28.3846 99.3026L43.1413 80.1584C42.8332 79.1299 42.5745 78.0825 42.3623 77.0217L25.1525 99.3484C25.1961 99.3484 25.2368 99.3484 25.2804 99.3484C26.3122 99.3538 27.3499 99.3349 28.3846 99.3026ZM76.625 32.5706L90.44 14.6438C90.9428 14.4981 91.4428 14.3658 91.9369 14.2443C92.7623 14.0419 93.5704 13.8691 94.3581 13.7126L80.0751 32.244C78.9096 32.3087 77.7586 32.4167 76.625 32.5706ZM23.3649 99.3214C22.336 99.2918 21.3129 99.2378 20.3014 99.146L32.3434 83.5218C33.1688 83.6082 34.0379 83.8404 34.9738 84.2588L23.3649 99.3214ZM18.6301 98.9651C17.6739 98.841 16.7321 98.6817 15.8049 98.4819L25.9867 85.2738C27.5184 84.4666 28.9601 83.7891 30.5035 83.565L18.6301 98.9651ZM14.2819 98.1067L22.9493 86.8583C22.8011 86.9312 22.6499 87.0041 22.4988 87.0742C21.2809 87.6465 19.9555 88.1702 18.4586 88.5346L11.7416 97.2564C12.567 97.5857 13.4157 97.8665 14.2819 98.1067ZM10.39 96.6625L16.3572 88.9206C15.3399 89.0448 14.247 89.0934 13.0669 89.0394L8.16065 95.4019C8.87857 95.8743 9.62266 96.2927 10.39 96.6625ZM6.99221 94.5732C6.33241 94.0657 5.70169 93.5015 5.09712 92.8834L8.55304 88.397C9.54127 88.6237 10.4772 88.7911 11.3666 88.8963L6.99221 94.5732ZM4.12051 91.8009L7.04452 88.0082C6.22487 87.7761 5.37324 87.5035 4.48383 87.1822L2.5684 89.6684C3.0538 90.4377 3.57407 91.145 4.12051 91.8009ZM1.78653 88.3349C1.35345 87.5304 0.949434 86.672 0.577393 85.7515L0.682029 85.6166C1.5104 85.9945 2.30971 86.34 3.08286 86.6504L1.78653 88.3349ZM35.0726 84.1319C34.6919 83.3302 34.1454 82.6526 33.4624 82.0696L41.6996 71.3826C41.7461 72.6378 41.8566 73.8769 42.031 75.1024L35.0726 84.1319ZM70.6637 33.8069L82.8073 18.0505C84.5513 16.9329 86.2981 16.0961 88.0101 15.451L74.5614 32.8999C73.2389 33.1429 71.9396 33.4452 70.6637 33.8069ZM32.2969 81.2354C31.5935 80.8089 30.8029 80.4445 29.9571 80.1206L42.1472 64.3021C41.8886 65.8569 41.7345 67.4415 41.6851 69.0503L32.2969 81.2354ZM63.5658 36.5144C65.083 35.7721 66.6555 35.1161 68.2745 34.5546L77.9475 22.0051C77.3517 22.6098 76.7587 23.2576 76.1716 23.9541C75.4973 23.3575 75.0032 22.7475 74.6573 22.1239L63.5658 36.5144ZM28.5299 79.6239C27.6841 79.3567 26.8005 79.1164 25.8995 78.8897L31.4539 71.6823C31.9103 71.9981 32.3666 72.3625 32.82 72.7755C32.8811 72.0305 32.7561 71.2125 32.4974 70.3298L46.6902 51.9172C45.0102 54.7597 43.711 57.8208 42.8564 61.0412L28.5299 79.6239ZM52.358 44.5613C54.7472 42.1319 57.4707 39.9885 60.4587 38.2015L74.0876 20.5204C73.7708 18.7685 74.3434 16.9194 75.1601 14.9786L52.358 44.5613ZM24.3793 78.5117C23.9027 78.3957 23.426 78.2796 22.9522 78.1635C22.5308 78.0582 22.1093 77.953 21.6937 77.845L27.7393 70.0005C28.5619 70.1949 29.3874 70.4945 30.2216 70.9318L24.3793 78.5117ZM20.2026 77.432C19.3219 77.1728 18.4732 76.8867 17.6768 76.5601L22.8156 69.8952C23.891 69.7333 24.9984 69.655 26.1291 69.7468L20.2026 77.432ZM16.3427 75.9446L20.6764 70.3217C19.2783 70.6511 17.9558 71.0398 16.7467 71.2692L14.2528 74.5058C14.8545 75.0592 15.5579 75.5316 16.3427 75.9446ZM13.2908 73.4045C12.7472 72.6243 12.381 71.7119 12.2299 70.6295L12.2444 70.6106C12.971 71.2179 13.8227 71.4555 14.7789 71.4717L13.2908 73.4045ZM31.9161 68.7372L77.4069 9.71743C78.0057 8.033 78.3893 6.29729 78.2237 4.50758L30.6808 66.1863C31.1517 67.0771 31.5731 67.9301 31.9161 68.7372ZM29.9309 64.8123L50.9425 37.5537C50.5327 36.6278 50.4165 35.4293 50.4397 34.058L28.5852 62.4125C29.0473 63.2358 29.5007 64.0375 29.9309 64.8123ZM27.8236 61.052L50.5879 31.5205C50.7129 30.0493 50.8815 28.4729 50.96 26.8883L38.1071 43.5626C38.0984 44.5613 38.1391 45.5763 38.2408 46.6048C37.52 46.3996 36.8602 46.1864 36.2556 45.9623L26.5128 58.6036C26.94 59.4351 27.3818 60.253 27.8236 61.052ZM25.8036 57.173L34.8866 45.3901C34.0175 44.9851 33.2938 44.5505 32.6951 44.0862L24.6409 54.5329C24.7165 54.7219 24.7921 54.9081 24.8706 55.0944C25.1641 55.799 25.478 56.49 25.8036 57.173ZM24.0509 52.9511L31.6371 43.1064C30.986 42.3694 30.5616 41.5704 30.2855 40.7093L23.1906 49.9143C23.4173 50.9427 23.7079 51.955 24.0509 52.9511ZM22.8592 47.9977C22.6906 46.675 22.647 45.3334 22.7633 43.9729L29.8205 34.8138C29.8001 36.2661 29.7739 37.6131 29.9106 38.8467L22.8592 47.9977ZM23.3097 40.9171C24.048 38.2177 25.4984 35.4697 27.9399 32.7083C28.4921 32.082 29.6373 30.6513 30.3291 29.8226C29.8844 30.7215 29.8263 31.5691 29.8263 32.4626L23.3097 40.9171ZM38.2292 41.0521C38.3919 39.2408 38.6971 37.4889 39.0837 35.7937L50.5298 20.9443C50.8205 22.0807 50.9513 23.2792 50.989 24.4994L38.2292 41.0521ZM40.0225 32.2278C40.537 30.4704 41.0922 28.786 41.6037 27.1826C41.8159 26.5212 42.0194 25.8734 42.2112 25.2363L48.5417 17.022C49.1521 17.7212 49.62 18.4905 49.9746 19.3111L40.0225 32.2278ZM43.1326 21.6947C43.461 20.0777 43.5947 18.5742 43.4029 17.1921L45.3474 14.6708C46.1787 15.0623 46.8937 15.5158 47.507 16.0178L43.1326 21.6947ZM42.9553 15.4294C42.6966 14.7707 42.3333 14.1445 41.8537 13.5533C42.6181 13.7099 43.3215 13.8988 43.9668 14.1175L42.9553 15.4294ZM55.0873 32.1738L77.8429 2.65309C77.5755 1.82168 77.1686 0.979463 76.5902 0.12915L56.6249 26.0299C56.4185 26.8236 56.2296 27.6118 56.0465 28.3892C55.7355 29.6957 55.4361 30.9698 55.0873 32.1738ZM57.8573 22.0834C58.6246 20.0858 59.6506 18.1477 61.1533 16.4066C63.6326 13.5317 66.0189 10.9673 68.1727 8.70246L57.8573 22.0834ZM117.657 18.3204L103.005 37.3296C103.755 37.7372 104.493 38.1665 105.211 38.6146L121.976 16.8655C120.523 17.5835 119.09 18.0208 117.657 18.3204ZM57.741 100.201C57.0493 99.7102 56.3778 99.2 55.7209 98.6709L44.5829 113.121C45.7281 113.142 46.8355 113.083 47.9023 112.964L57.741 100.201ZM125.7 14.382C126.226 13.9312 126.758 13.4345 127.298 12.8811C125.764 19.1734 121.654 22.1509 118.311 24.2483C118.172 24.3347 118.032 24.4238 117.896 24.5075L125.7 14.382ZM113.725 29.9171L106.417 39.4001C107.121 39.8752 107.807 40.3665 108.475 40.8793L117.553 29.1019C116.259 29.3367 115.027 29.7281 113.928 30.3301C113.85 30.187 113.783 30.0493 113.725 29.9171ZM61.0923 102.35C60.354 101.924 59.6303 101.481 58.924 101.014L49.9456 112.662C51.3378 112.405 52.6574 112.063 53.8985 111.682L61.0923 102.35ZM119.549 28.8589L109.594 41.7756C110.248 42.3154 110.885 42.8742 111.501 43.4519L122.749 28.8589C122.648 28.8535 122.546 28.8454 122.444 28.8427C121.485 28.7941 120.511 28.7914 119.549 28.8589ZM64.6819 104.191L60.7493 109.293C59.4326 109.722 57.959 110.297 56.3313 110.875L62.3625 103.049C63.1211 103.454 63.8942 103.835 64.6819 104.191ZM124.444 29.0047L112.533 44.4588C113.137 45.0688 113.719 45.6978 114.28 46.3429L123.694 34.1281C122.904 34.0823 122.174 34.0445 121.517 34.0202C120.976 32.9296 122.014 32.1738 123.729 31.5664C124.459 31.3073 125.31 31.0778 126.214 30.8565L127.313 29.4312C126.426 29.2692 125.458 29.118 124.444 29.0047ZM68.5186 105.708C67.6786 105.422 66.8531 105.112 66.0393 104.777L63.0106 108.705C64.1529 108.513 65.1353 108.57 65.9579 109.031L68.5186 105.708ZM128.897 29.7254C129.708 29.8685 130.725 30.0385 131.184 30.1195C130.632 30.1222 129.068 30.2356 128.409 30.3571L128.897 29.7254ZM125.418 34.2388L115.221 47.4686C115.771 48.1515 116.297 48.8561 116.797 49.5741L128.446 34.4575C127.383 34.3765 126.368 34.3009 125.418 34.2388ZM72.6256 106.88C71.7304 106.672 70.8439 106.434 69.9719 106.173L50.6955 131.182C51.9686 131.037 53.2097 130.807 54.4159 130.505L72.6256 106.88ZM130.158 34.5843C131.135 34.6572 132.146 34.7328 133.187 34.8084L119.02 53.1859C118.587 52.3842 118.125 51.6014 117.637 50.8321L130.158 34.5843ZM77.0291 107.663L61.4673 127.851C59.9529 128.613 58.3805 129.279 56.7499 129.825L74.1806 107.212C75.1194 107.393 76.0699 107.541 77.0291 107.663ZM134.902 34.9272C135.902 34.9973 136.919 35.0621 137.948 35.1242L120.901 57.2404C120.549 56.3415 120.166 55.4561 119.744 54.5923L134.902 34.9272ZM81.7813 107.997C80.7466 107.981 79.7205 107.927 78.7061 107.838L64.6761 126.043C67.4228 124.321 69.8731 122.355 72.1547 120.49L81.7813 107.997ZM139.68 35.2268L129.981 47.8114C131.094 47.8816 132.126 47.9248 133.077 47.9437L142.764 35.3753C141.732 35.3321 140.703 35.2835 139.68 35.2268ZM144.523 35.4401L134.884 47.9464C136.158 47.9248 137.271 47.8519 138.244 47.7358L147.668 35.5102C146.63 35.4994 145.578 35.4751 144.523 35.4401ZM149.47 35.5183C149.49 35.5183 149.51 35.5183 149.531 35.5183C150.557 35.5156 151.542 35.5966 152.492 35.7451L148.484 40.9441C148.217 41.0143 147.95 41.0899 147.685 41.1709C145.752 41.7648 146.008 43.7542 144.342 45.4252C143.563 46.2053 142.363 46.9179 140.32 47.3876L149.47 35.5183ZM154.068 36.0501L150.641 40.4987C151.792 40.3179 152.952 40.2153 154.097 40.1667L156.669 36.8302C155.832 36.5306 154.969 36.2634 154.068 36.0501ZM158.056 37.3728C158.878 37.7183 159.663 38.0882 160.416 38.4607L159.073 40.2045C158.358 40.1721 157.611 40.1451 156.844 40.1316C156.544 40.1262 156.239 40.1235 155.934 40.1262L158.056 37.3728ZM161.715 39.1274C162.52 39.5485 163.279 39.9535 163.994 40.3179L163.93 40.4016C163.067 40.4124 162.006 40.3584 160.811 40.2963L161.715 39.1274ZM129.833 48.0004C130.583 48.4485 131.33 48.8642 132.065 49.2529L122.348 61.8618C122.101 60.8387 121.814 59.8292 121.482 58.8358L129.833 48.0004ZM86.9579 107.779C85.8476 107.892 84.7286 107.965 83.595 107.992L76.8082 116.797C78.6887 115.421 80.5053 114.325 82.3481 113.758L86.9579 107.779ZM133.364 49.9197L122.738 63.7028C122.953 64.8663 123.11 66.0486 123.206 67.2444L135.695 51.0399C134.94 50.6863 134.158 50.3165 133.364 49.9197ZM92.7187 106.799L84.6385 117.281C85.2314 116.058 85.9551 114.862 86.83 113.542C86.0278 113.361 85.2401 113.304 84.4641 113.358L88.9576 107.528C90.2336 107.336 91.4893 107.093 92.7187 106.799ZM137.032 51.6554L123.313 69.4552C123.316 69.6685 123.322 69.8791 123.322 70.0923C123.322 71.361 123.252 72.6162 123.119 73.8553L134.196 59.4836C133.949 59.373 133.696 59.2731 133.434 59.1867C133.96 58.879 134.495 58.6144 135.041 58.385L139.384 52.7513C139.052 52.5921 138.71 52.4301 138.358 52.2654C137.931 52.0657 137.489 51.8632 137.032 51.6554ZM99.4417 104.572L82.5516 126.483C82.6533 124.561 82.8538 122.96 83.1648 121.538L95.0062 106.178C96.5264 105.719 98.0087 105.185 99.4417 104.572ZM140.695 53.4019L137.497 57.5509C137.951 57.4267 138.404 57.316 138.861 57.2134C139.698 57.0245 140.535 56.8598 141.36 56.6898L142.88 54.7192C142.247 54.263 141.511 53.8311 140.695 53.4019ZM135.474 60.1747L122.688 76.7625C122.238 79.1056 121.552 81.3758 120.657 83.5488L137.483 61.7187C136.82 61.1384 136.16 60.6147 135.474 60.1747ZM108.574 99.2243C106.624 100.733 104.519 102.075 102.287 103.23L89.1669 120.25C89.5535 119.926 89.943 119.621 90.3325 119.327C92.0851 118.009 93.8291 117 95.4509 116.247L108.574 99.2243ZM138.541 62.6932C138.724 62.8687 138.91 63.0469 139.099 63.2277C139.515 63.6299 139.936 64.0456 140.372 64.4667L96.0671 121.948C96.9129 119.867 97.7152 117.661 98.0291 115.251L138.541 62.6932ZM141.416 65.4574C142.017 66.0162 142.654 66.575 143.331 67.123L93.5384 131.725C93.3146 130.076 93.6256 128.437 94.1779 126.75L141.416 65.4574ZM144.47 67.9922C144.845 68.2621 145.235 68.5266 145.639 68.7831C145.961 68.9855 146.281 69.1853 146.601 69.3824L138.279 80.1773C137.425 79.9235 136.585 79.632 135.765 79.2892L144.47 67.9922ZM147.839 70.122L139.782 80.5768C140.698 80.7954 141.625 80.9763 142.558 81.1275L150.065 71.388C149.33 70.9804 148.589 70.5593 147.839 70.122ZM151.336 72.0818L144.185 81.3569C145.177 81.4811 146.168 81.5756 147.153 81.6565L153.588 73.3073C152.856 72.9051 152.103 72.5002 151.336 72.0818ZM154.861 74.0037C155.626 74.4302 156.364 74.854 157.073 75.286L151.932 81.9562C150.932 81.8995 149.909 81.8455 148.871 81.7807L154.861 74.0037ZM158.291 76.0526L153.664 82.0561C154.704 82.1235 155.713 82.1991 156.675 82.3017L160.346 77.54C159.817 77.1108 159.256 76.7004 158.666 76.3009C158.538 76.2172 158.416 76.1363 158.291 76.0526ZM161.427 78.482C162.064 79.084 162.639 79.7184 163.145 80.404L161.052 83.1223C160.215 82.8632 159.3 82.6688 158.32 82.5177L161.427 78.482ZM163.965 81.6835L162.447 83.6514C163.718 84.2399 164.735 85.0524 165.412 86.1942C165.188 84.4666 164.691 82.9874 163.965 81.6835ZM135.277 79.9235C135.736 80.8008 136.166 81.6134 136.562 82.4043L134.074 85.6328C133.271 85.3007 132.42 85.0227 131.495 84.8283L135.277 79.9235ZM137.253 83.8566L135.405 86.2536C136.55 86.8448 137.614 87.5251 138.678 88.2107C138.343 86.5857 137.858 85.2117 137.253 83.8566ZM131.056 85.3952L119.145 100.847C120.029 101.014 120.854 101.333 121.63 101.775L132.088 88.208C131.774 87.1984 131.431 86.2536 131.056 85.3952ZM132.577 89.9221L122.825 102.574C123.479 103.076 124.098 103.659 124.691 104.302L133.329 93.0939C133.097 92.0007 132.847 90.9344 132.577 89.9221ZM133.707 94.9538L125.65 105.409C126.194 106.075 126.717 106.783 127.231 107.509L134.323 98.3092C134.126 97.1781 133.922 96.0552 133.707 94.9538ZM134.652 100.226L128.086 108.742C128.589 109.479 129.086 110.227 129.58 110.956L135.23 103.624C135.036 102.507 134.844 101.368 134.652 100.226ZM135.567 105.533L130.434 112.192C130.955 112.926 131.478 113.631 132.019 114.284L136.219 108.834C135.992 107.784 135.777 106.677 135.567 105.533ZM136.64 110.64L132.989 115.377C133.603 116.02 134.242 116.581 134.914 117.03L137.535 113.628C137.21 112.737 136.913 111.731 136.64 110.64ZM138.175 115.145L136.187 117.723C137.608 118.32 139.192 118.406 141.023 117.737C139.863 117.637 138.942 116.687 138.175 115.145ZM118.895 101.176L113.254 108.494C114.036 108.894 114.663 109.469 115.175 110.151L119.488 104.558C119.369 103.535 119.177 102.418 118.895 101.176ZM119.637 106.71L115.966 111.471C116.399 112.37 116.707 113.364 116.936 114.36L118.837 111.893C119.038 111.323 119.212 110.721 119.349 110.06C119.546 109.085 119.657 107.989 119.637 106.71ZM112.576 109.371L93.9337 133.558C94.1924 134.584 94.4947 135.566 94.8667 136.498L112.376 113.779C112.576 112.176 112.638 110.694 112.576 109.371ZM111.873 116.781L95.5468 137.963C95.9189 138.663 96.352 139.324 96.8606 139.947C96.9217 140.023 96.9827 140.096 97.0466 140.169L109.873 123.53C110.647 121.497 111.245 119.524 111.681 117.656C111.751 117.359 111.815 117.067 111.873 116.781ZM107.295 129.22L98.0581 141.203C98.654 141.737 99.3341 142.237 100.107 142.693L105.545 135.637C105.7 133.442 106.197 131.277 107.15 129.493C107.199 129.404 107.246 129.312 107.295 129.22ZM105.505 138.039C105.551 140.509 105.691 142.269 105.438 144.744C103.889 144.366 102.552 143.905 101.398 143.365L105.505 138.039ZM48.7655 131.336L65.365 109.801C62.0224 111.396 59.2524 114.203 56.465 117.197L45.5886 131.307C46.6699 131.377 47.7279 131.385 48.7655 131.336ZM43.9057 131.147C42.9814 131.034 42.0397 130.872 41.0805 130.662L43.1616 127.962C45.3067 127.15 47.2047 125.973 48.9544 124.596L43.9057 131.147ZM39.5604 130.286C38.7146 130.057 37.8542 129.79 36.9852 129.479L37.2497 129.134C38.5053 129.09 39.6854 128.931 40.8015 128.675L39.5604 130.286ZM38.4384 112.252L40.5632 109.495C38.6274 110.365 36.5027 110.851 34.0873 110.691C35.5842 111.363 37.0346 111.874 38.4384 112.252Z" fill="#F1B900"/>
<path fill-rule="evenodd" clip-rule="evenodd" d="M108.486 73.0217C106.567 73.5616 105.501 73.6534 104.806 73.6534C100.33 73.6534 99.6351 70.9405 99.6351 69.418C99.6351 67.0533 101.635 65.2987 104.672 65.2987C106.111 65.2987 107.39 65.5795 108.43 65.9304V61.6032L108.003 61.533C107.151 61.3927 105.579 61.0876 103.446 61.0876C95.1299 61.0876 92.1187 65.3473 92.1187 69.5584C92.1187 74.4956 96.0368 78.0318 103.257 78.0318C104.617 78.0318 106.323 77.8914 108.48 77.3732V73.0217H108.486ZM56.4143 61.3711V77.7511H72.8859V73.8882H63.5587V71.3373H72.3017V67.5932H63.5587V65.2312H72.6999V61.3711H56.4143ZM77.1353 67.7822V71.1267H83.585C83.4513 71.5478 82.6781 73.7721 78.8676 73.7721C78.5479 73.7721 76.7371 73.7721 74.5223 73.0217V77.3758C75.9872 77.7025 77.9084 78.0345 79.8791 78.0345C87.8751 78.0345 91.02 73.6561 91.02 69.5611C91.02 66.3542 89.1801 61.0903 79.6931 61.0903C78.6264 61.0903 77.1353 61.1362 74.9234 61.5357L74.5252 61.6059V65.9331C76.3098 65.2771 78.0712 65.1853 78.7106 65.1853C82.309 65.1853 83.2682 66.94 83.5879 67.7822H77.1353Z" fill="#F1B900"/>
</svg>
