<svg width="225" height="97" viewBox="0 0 225 97" fill="none" xmlns="http://www.w3.org/2000/svg">
<path d="M145.832 42.4606C145.402 42.6555 144.902 42.8047 144.327 42.9084C143.751 43.012 143.123 43.0659 142.445 43.0659C141.237 43.0659 140.152 42.8959 139.201 42.5601C138.249 42.2201 137.439 41.735 136.775 41.0966C136.111 40.4581 135.602 39.6952 135.248 38.8038C134.894 37.9124 134.717 36.9091 134.717 35.7897C134.717 34.5584 134.894 33.468 135.248 32.5144C135.602 31.5608 136.111 30.7606 136.775 30.1097C137.439 29.4588 138.24 28.9696 139.179 28.6379C140.117 28.3062 141.157 28.1404 142.308 28.1404C143.193 28.1404 143.915 28.1984 144.468 28.3145C145.021 28.4306 145.482 28.5591 145.854 28.6959L145.477 30.3336C144.99 30.1678 144.495 30.0517 143.995 29.9812C143.494 29.9107 142.999 29.8775 142.512 29.8775C140.666 29.8775 139.263 30.3626 138.298 31.3286C137.333 32.2947 136.846 33.7209 136.846 35.599C136.846 36.4987 136.983 37.303 137.258 38.0161C137.532 38.7292 137.917 39.3304 138.422 39.8196C138.922 40.3088 139.537 40.682 140.259 40.939C140.98 41.1961 141.799 41.3204 142.715 41.3204C143.202 41.3204 143.694 41.279 144.189 41.1961C144.685 41.1131 145.123 40.9805 145.508 40.8022L145.832 42.4606Z" fill="#3C3C3B"/>
<path d="M160.168 42.8559L156.14 36.6991L152.09 42.8559H149.655L154.901 35.3102L150.164 28.345H152.599L156.184 34.0457L159.925 28.345H162.226L157.468 35.2688L162.735 42.8559H160.168Z" fill="#3C3C3B"/>
<path d="M174.546 40.4505C174.095 39.7747 173.714 39.1901 173.404 38.6967C173.094 38.2075 172.837 37.8053 172.629 37.4944C172.421 37.1835 172.227 36.943 172.041 36.7689C171.855 36.5947 171.656 36.4745 171.443 36.404C171.231 36.3335 170.965 36.3004 170.655 36.3004H169.199V42.851H167.207V28.3401H169.199V34.9322H170.505L175.971 28.3401H178.516L172.563 35.0151C172.992 35.0856 173.369 35.2805 173.692 35.608C174.015 35.9314 174.387 36.4082 174.798 37.0383C175.21 37.6685 175.723 38.4604 176.339 39.4223C176.95 40.3841 177.76 41.5284 178.764 42.8552H176.241C175.56 41.9265 174.998 41.1263 174.546 40.4505Z" fill="#3C3C3B"/>
<path d="M119.015 8.41602H117.953V88.5826H119.015V8.41602Z" fill="#3C3C3B"/>
<path d="M136.312 70.036H134.719V58.4148H138.371C139.079 58.4148 139.716 58.4853 140.278 58.6221C140.84 58.7589 141.323 58.9786 141.721 59.2772C142.124 59.5757 142.43 59.953 142.642 60.4049C142.854 60.8609 142.961 61.3999 142.961 62.0301C142.961 63.2366 142.545 64.157 141.712 64.7955C140.88 65.4339 139.721 65.749 138.229 65.749H136.312V70.036ZM136.312 64.356H138.229C139.22 64.356 139.977 64.1694 140.491 63.7921C141.004 63.4148 141.261 62.8386 141.261 62.0633C141.261 61.2672 141.004 60.6909 140.491 60.3344C139.977 59.982 139.225 59.8037 138.229 59.8037H136.312V64.356Z" fill="#11559B"/>
<path d="M151.948 70.2011C151.085 70.2011 150.306 70.0643 149.615 69.7865C148.924 69.5088 148.331 69.1149 147.84 68.6008C147.349 68.0867 146.972 67.4565 146.716 66.7144C146.455 65.9722 146.326 65.143 146.326 64.2226C146.326 63.2939 146.463 62.4606 146.733 61.7226C147.003 60.9846 147.389 60.3627 147.875 59.8445C148.367 59.3304 148.955 58.9324 149.642 58.6587C150.328 58.381 151.076 58.2441 151.895 58.2441C152.815 58.2441 153.63 58.3892 154.334 58.6836C155.037 58.978 155.626 59.3884 156.109 59.9108C156.587 60.4374 156.95 61.0676 157.197 61.8014C157.445 62.5394 157.569 63.3437 157.569 64.2185C157.569 65.2052 157.428 66.0717 157.144 66.818C156.861 67.5643 156.472 68.1862 155.976 68.6879C155.48 69.1854 154.887 69.5627 154.205 69.8156C153.515 70.0726 152.762 70.2011 151.948 70.2011ZM152.107 68.8081C153.276 68.8081 154.196 68.4225 154.865 67.6555C155.533 66.8844 155.865 65.7442 155.865 64.2268C155.865 63.4308 155.772 62.7425 155.591 62.1662C155.409 61.5899 155.144 61.1132 154.803 60.74C154.462 60.3627 154.041 60.085 153.555 59.9108C153.063 59.7325 152.51 59.6455 151.899 59.6455C151.355 59.6455 150.846 59.7408 150.376 59.9274C149.903 60.114 149.495 60.4001 149.155 60.7732C148.814 61.1505 148.539 61.6273 148.34 62.2035C148.141 62.7798 148.039 63.4556 148.039 64.2268C148.039 64.9896 148.137 65.6613 148.331 66.2376C148.526 66.8139 148.801 67.2907 149.155 67.6721C149.509 68.0535 149.938 68.3396 150.438 68.5262C150.934 68.7127 151.492 68.8081 152.107 68.8081Z" fill="#11559B"/>
<path d="M170.188 69.7202C169.847 69.8778 169.444 69.9938 168.984 70.0768C168.524 70.1597 168.019 70.2011 167.479 70.2011C166.51 70.2011 165.647 70.0643 164.881 69.7948C164.119 69.5253 163.473 69.1356 162.938 68.6257C162.406 68.1157 161.999 67.5063 161.716 66.789C161.433 66.0759 161.291 65.2716 161.291 64.3719C161.291 63.3852 161.433 62.5103 161.716 61.7475C161.999 60.9846 162.406 60.342 162.938 59.8196C163.469 59.2972 164.111 58.9075 164.859 58.6422C165.611 58.3768 166.443 58.2441 167.368 58.2441C168.077 58.2441 168.652 58.2897 169.095 58.3851C169.537 58.4805 169.909 58.58 170.201 58.6919L169.9 60.002C169.511 59.8694 169.112 59.774 168.714 59.7201C168.311 59.6662 167.917 59.6372 167.528 59.6372C166.049 59.6372 164.925 60.0228 164.15 60.7981C163.376 61.5734 162.991 62.7135 162.991 64.2185C162.991 64.9399 163.101 65.5825 163.318 66.1547C163.535 66.7227 163.845 67.2077 164.248 67.5975C164.651 67.9913 165.142 68.2898 165.717 68.493C166.297 68.6961 166.952 68.7998 167.687 68.7998C168.077 68.7998 168.471 68.7666 168.865 68.7003C169.259 68.634 169.613 68.5303 169.918 68.3852L170.188 69.7202Z" fill="#11559B"/>
<path d="M181.337 66.9306H176.039L174.835 70.036H173.224L177.955 58.4148H179.549L184.192 70.036H182.528L181.337 66.9306ZM176.552 65.5707H180.824L178.748 60.1105H178.677L176.552 65.5707Z" fill="#11559B"/>
<path d="M190.7 70.036H189.106V59.8078H185.437V58.4148H194.369V59.8078H190.7V70.036Z" fill="#11559B"/>
<path d="M202.645 70.2011C201.782 70.2011 201.003 70.0643 200.312 69.7865C199.621 69.5088 199.028 69.1149 198.537 68.6008C198.046 68.0867 197.669 67.4565 197.413 66.7144C197.152 65.9722 197.023 65.143 197.023 64.2226C197.023 63.2939 197.16 62.4606 197.43 61.7226C197.7 60.9846 198.086 60.3627 198.572 59.8445C199.064 59.3304 199.652 58.9324 200.339 58.6587C201.025 58.381 201.773 58.2441 202.592 58.2441C203.512 58.2441 204.327 58.3892 205.031 58.6836C205.734 58.978 206.323 59.3884 206.806 59.9108C207.284 60.4374 207.647 61.0676 207.894 61.8014C208.142 62.5394 208.266 63.3437 208.266 64.2185C208.266 65.2052 208.125 66.0717 207.841 66.818C207.558 67.5643 207.169 68.1862 206.673 68.6879C206.177 69.1854 205.584 69.5627 204.898 69.8156C204.212 70.0726 203.459 70.2011 202.645 70.2011ZM202.804 68.8081C203.973 68.8081 204.893 68.4225 205.562 67.6555C206.23 66.8844 206.562 65.7442 206.562 64.2268C206.562 63.4308 206.469 62.7425 206.288 62.1662C206.106 61.5899 205.841 61.1132 205.5 60.74C205.159 60.3627 204.738 60.085 204.252 59.9108C203.76 59.7325 203.207 59.6455 202.596 59.6455C202.052 59.6455 201.543 59.7408 201.073 59.9274C200.6 60.114 200.193 60.4001 199.852 60.7732C199.511 61.1505 199.236 61.6273 199.037 62.2035C198.838 62.7798 198.736 63.4556 198.736 64.2268C198.736 64.9896 198.834 65.6613 199.028 66.2376C199.223 66.8139 199.498 67.2907 199.852 67.6721C200.206 68.0535 200.635 68.3396 201.135 68.5262C201.631 68.7127 202.189 68.8081 202.804 68.8081Z" fill="#11559B"/>
<path d="M224.647 70.036H223.054L222.292 60.9521L219.154 70.036H217.49L214.369 60.9853L213.59 70.036H211.992L213.055 58.4148H215.002L218.353 68.4107L221.633 58.4148H223.581L224.647 70.036Z" fill="#11559B"/>
<path d="M59.4981 55.2465C55.5321 59.3593 48.7729 59.6702 44.3952 55.9471C40.0175 52.224 39.6767 45.8682 43.6383 41.7554C47.6044 37.6426 54.3679 37.3358 58.7456 41.0548C63.1189 44.782 63.4598 51.1336 59.4981 55.2465Z" fill="url(#paint0_radial_6_1016)"/>
<path d="M54.35 14.138C55.2486 14.963 56.0763 15.8088 56.8288 16.6504C61.1313 21.4805 63.1453 26.2235 63.1453 26.2235C65.8897 26.7003 68.457 26.833 70.8473 26.721C71.0022 26.7127 71.1438 26.7127 71.3032 26.7044C71.4448 26.692 71.5776 26.6754 71.7193 26.6671C77.0132 26.2193 83.8919 24.3205 90.1774 18.4166C90.3943 18.2135 90.6112 17.9979 90.8236 17.7864C89.8498 16.7002 88.8495 15.6264 87.7606 14.6023C69.4972 -2.45423 40.9956 -3.93849 20.9307 10.1122C36.671 2.96456 47.5776 7.89827 54.35 14.138Z" fill="url(#paint1_linear_6_1016)"/>
<path d="M18.0896 62.8618C18.4038 61.7217 18.7712 60.6271 19.174 59.5948C21.489 53.6909 24.8708 49.6859 24.8708 49.6859C23.9413 47.2191 22.7771 45.0714 21.4802 43.1892C21.3961 43.0689 21.3253 42.9487 21.2367 42.8285C21.1571 42.7207 21.073 42.617 20.9933 42.5092C17.9302 38.4379 12.7336 33.811 4.13752 31.6634C3.84095 31.5887 3.53553 31.5224 3.23011 31.4561C2.70779 32.7869 2.22089 34.1385 1.81366 35.5315C-4.8171 58.8734 8.05932 82.7418 31.0811 91.9873C16.6023 82.7915 15.7082 71.4772 18.0896 62.8618Z" fill="url(#paint2_linear_6_1016)"/>
<path d="M81.3975 67.9696C80.1847 68.2847 78.9896 68.5335 77.8343 68.7242C71.2168 69.798 65.8254 69.06 65.8254 69.06C64.0106 71.0459 62.6074 73.065 61.5141 75.0592C61.4477 75.1878 61.3725 75.308 61.3061 75.4407C61.2441 75.5609 61.1954 75.677 61.1334 75.7972C58.8981 80.3163 57.2205 86.8463 59.5355 94.8977C59.6152 95.1714 59.7081 95.4574 59.7967 95.7394C61.2884 95.4948 62.7801 95.217 64.2718 94.8439C89.1703 88.5544 104.8 66.1744 101.834 42.874C100.564 59.2133 90.5558 65.594 81.3975 67.9696Z" fill="url(#paint3_linear_6_1016)"/>
<path d="M20.9309 10.1115C20.9309 10.1115 9.81623 16.629 4.00879 29.7179C5.53147 29.9666 21.0327 32.8937 26.8092 49.0298C28.2212 48.184 32.5591 44.9792 35.4717 36.14C38.9951 25.4558 45.6834 17.5702 54.3547 14.1373C54.3503 14.1373 43.3684 -0.527037 20.9309 10.1115Z" fill="url(#paint4_linear_6_1016)"/>
<path d="M56.143 87.0504C56.1386 81.6316 57.7454 74.4632 64.1681 67.7094L64.2389 67.6058C63.1898 66.5569 59.5204 63.9698 50.0788 65.9847C38.4374 68.4723 25.5964 68.1821 18.0848 62.8628C18.0848 62.8628 10.0199 79.1067 31.0763 91.9883C31.0763 91.9883 42.6469 97.7346 57.6303 95.9145C57.3647 95.218 56.1474 91.8058 56.143 87.0504Z" fill="url(#paint5_linear_6_1016)"/>
<path d="M92.1707 19.3491C90.5152 21.2314 82.6451 28.9553 69.5119 28.9636C67.3961 28.9636 65.1519 28.7646 62.7794 28.3044L62.6687 28.2796C62.2349 29.768 61.8764 33.9844 68.2903 40.4563C76.4039 48.657 82.561 59.221 81.4013 67.969C81.4013 67.969 100.453 66.3894 101.834 42.8692C101.829 42.8692 101.356 30.5972 92.1707 19.3491Z" fill="url(#paint6_linear_6_1016)"/>
<defs>
<radialGradient id="paint0_radial_6_1016" cx="0" cy="0" r="1" gradientUnits="userSpaceOnUse" gradientTransform="translate(48.1499 42.9027) rotate(0.0516018) scale(15.0485 14.1358)">
<stop stop-color="#4A96D2"/>
<stop offset="1" stop-color="#1F2466"/>
</radialGradient>
<linearGradient id="paint1_linear_6_1016" x1="36.8802" y1="3.79995" x2="81.036" y2="22.7835" gradientUnits="userSpaceOnUse">
<stop stop-color="#4A96D2"/>
<stop offset="1" stop-color="#1F2466"/>
</linearGradient>
<linearGradient id="paint2_linear_6_1016" x1="17.2687" y1="82.2047" x2="11.2798" y2="37.0907" gradientUnits="userSpaceOnUse">
<stop stop-color="#4A96D2"/>
<stop offset="1" stop-color="#1F2466"/>
</linearGradient>
<linearGradient id="paint3_linear_6_1016" x1="99.69" y1="58.9658" x2="63.4115" y2="89.2982" gradientUnits="userSpaceOnUse">
<stop stop-color="#4995D1"/>
<stop offset="1" stop-color="#292B64"/>
</linearGradient>
<linearGradient id="paint4_linear_6_1016" x1="18.8724" y1="36.0764" x2="37.299" y2="5.88854" gradientUnits="userSpaceOnUse">
<stop stop-color="#4A96D2"/>
<stop offset="1" stop-color="#1F2466"/>
</linearGradient>
<linearGradient id="paint5_linear_6_1016" x1="57.1556" y1="77.556" x2="20.9076" y2="81.5011" gradientUnits="userSpaceOnUse">
<stop stop-color="#4A96D2"/>
<stop offset="1" stop-color="#1F2466"/>
</linearGradient>
<linearGradient id="paint6_linear_6_1016" x1="80.5283" y1="28.3729" x2="87.0513" y2="63.5263" gradientUnits="userSpaceOnUse">
<stop stop-color="#4A96D2"/>
<stop offset="1" stop-color="#1F2466"/>
</linearGradient>
</defs>
</svg>
