<svg width="95" height="42" viewBox="0 0 95 42" fill="none" xmlns="http://www.w3.org/2000/svg">
<path d="M61.48 18.6795C61.2995 18.7626 61.0893 18.8262 60.8475 18.8704C60.6056 18.9146 60.3414 18.9376 60.0568 18.9376C59.5489 18.9376 59.0931 18.8651 58.6932 18.7219C58.2932 18.577 57.9527 18.3702 57.6737 18.098C57.3946 17.8258 57.1807 17.5006 57.0318 17.1206C56.883 16.7406 56.8086 16.3129 56.8086 15.8357C56.8086 15.3107 56.883 14.8459 57.0318 14.4394C57.1807 14.0329 57.3946 13.6917 57.6737 13.4142C57.9527 13.1368 58.2894 12.9282 58.6838 12.7868C59.0782 12.6454 59.5154 12.5747 59.9991 12.5747C60.3712 12.5747 60.6745 12.5995 60.907 12.6489C61.1395 12.6984 61.333 12.7532 61.4893 12.8115L61.3312 13.5097C61.1265 13.439 60.9182 13.3895 60.7079 13.3595C60.4977 13.3294 60.2894 13.3153 60.0847 13.3153C59.3089 13.3153 58.7192 13.5221 58.3136 13.9339C57.9081 14.3457 57.7034 14.9537 57.7034 15.7544C57.7034 16.1379 57.7611 16.4808 57.8764 16.7848C57.9918 17.0888 58.1536 17.3451 58.3657 17.5536C58.5759 17.7622 58.8345 17.9213 59.1378 18.0309C59.441 18.1404 59.7852 18.1935 60.1703 18.1935C60.3749 18.1935 60.5814 18.1758 60.7898 18.1404C60.9982 18.1051 61.1823 18.0485 61.3442 17.9725L61.48 18.6795Z" fill="#3C3C3B"/>
<path d="M67.5053 18.8482L65.8124 16.2235L64.1101 18.8482H63.0869L65.2915 15.6314L63.3009 12.6621H64.3241L65.831 15.0924L67.403 12.6621H68.3704L66.3705 15.6138L68.5843 18.8482H67.5053Z" fill="#3C3C3B"/>
<path d="M73.5484 17.8229C73.3586 17.5348 73.1986 17.2856 73.0684 17.0753C72.9382 16.8667 72.8303 16.6953 72.7428 16.5627C72.6554 16.4301 72.5735 16.3276 72.4954 16.2534C72.4173 16.1792 72.3335 16.1279 72.2442 16.0979C72.1549 16.0678 72.0433 16.0537 71.9131 16.0537H71.301V18.8463H70.4639V12.6602H71.301V15.4704H71.8498L74.1474 12.6602H75.2171L72.7149 15.5058C72.8954 15.5358 73.0535 15.6189 73.1893 15.7585C73.3251 15.8964 73.4814 16.0996 73.6544 16.3683C73.8274 16.6369 74.0432 16.9745 74.3018 17.3846C74.5586 17.7946 74.899 18.2824 75.3213 18.848H74.2609C73.9744 18.4521 73.7381 18.111 73.5484 17.8229Z" fill="#3C3C3B"/>
<path d="M50.2092 4.1665H49.7627V38.3421H50.2092V4.1665Z" fill="#3C3C3B"/>
<path d="M57.4793 30.435H56.8096V25.4808H58.3444C58.642 25.4808 58.9099 25.5109 59.1462 25.5692C59.3825 25.6275 59.5852 25.7212 59.7527 25.8485C59.922 25.9757 60.0503 26.1366 60.1396 26.3292C60.2289 26.5236 60.2736 26.7534 60.2736 27.0221C60.2736 27.5364 60.0987 27.9288 59.749 28.201C59.3992 28.4731 58.9118 28.6075 58.2849 28.6075H57.4793V30.435ZM57.4793 28.0136H58.2849C58.7016 28.0136 59.0197 27.9341 59.2355 27.7732C59.4513 27.6124 59.5592 27.3667 59.5592 27.0362C59.5592 26.6968 59.4513 26.4512 59.2355 26.2992C59.0197 26.1489 58.7034 26.0729 58.2849 26.0729H57.4793V28.0136Z" fill="#11559B"/>
<path d="M64.0502 30.5054C63.6874 30.5054 63.36 30.4471 63.0698 30.3287C62.7795 30.2103 62.5303 30.0424 62.3238 29.8232C62.1172 29.604 61.9591 29.3354 61.8512 29.019C61.7415 28.7026 61.6875 28.3491 61.6875 27.9568C61.6875 27.5608 61.7452 27.2056 61.8587 26.891C61.9721 26.5764 62.134 26.3113 62.3386 26.0903C62.5451 25.8712 62.7926 25.7015 63.0809 25.5848C63.3693 25.4664 63.6837 25.4081 64.0279 25.4081C64.4148 25.4081 64.7571 25.4699 65.0529 25.5954C65.3487 25.7209 65.5961 25.8959 65.7989 26.1186C65.9998 26.3431 66.1524 26.6117 66.2566 26.9246C66.3608 27.2392 66.4129 27.5821 66.4129 27.955C66.4129 28.3756 66.3533 28.745 66.2343 29.0632C66.1152 29.3813 65.9515 29.6464 65.7431 29.8603C65.5348 30.0724 65.2855 30.2332 64.999 30.3411C64.7088 30.4506 64.3925 30.5054 64.0502 30.5054ZM64.1172 29.9116C64.6083 29.9116 64.9952 29.7472 65.2762 29.4202C65.5571 29.0915 65.6966 28.6054 65.6966 27.9585C65.6966 27.6192 65.6575 27.3258 65.5813 27.0801C65.505 26.8344 65.3934 26.6312 65.2501 26.4721C65.1069 26.3113 64.9301 26.1928 64.7255 26.1186C64.519 26.0426 64.2864 26.0055 64.0297 26.0055C63.8009 26.0055 63.5869 26.0461 63.3897 26.1257C63.1907 26.2052 63.0195 26.3272 62.8763 26.4862C62.733 26.6471 62.6177 26.8503 62.534 27.096C62.4503 27.3417 62.4075 27.6298 62.4075 27.9585C62.4075 28.2837 62.4484 28.5701 62.5302 28.8157C62.6121 29.0614 62.7275 29.2647 62.8763 29.4273C63.0251 29.5899 63.2056 29.7118 63.4158 29.7914C63.6242 29.8709 63.8586 29.9116 64.1172 29.9116Z" fill="#11559B"/>
<path d="M71.7169 30.3004C71.5736 30.3676 71.4043 30.4171 71.2109 30.4524C71.0174 30.4878 70.8053 30.5054 70.5783 30.5054C70.1709 30.5054 69.8081 30.4471 69.4863 30.3322C69.1663 30.2173 68.8947 30.0512 68.6696 29.8338C68.4463 29.6164 68.2752 29.3566 68.1561 29.0508C68.0371 28.7468 67.9775 28.4039 67.9775 28.0204C67.9775 27.5997 68.0371 27.2268 68.1561 26.9016C68.2752 26.5764 68.4463 26.3024 68.6696 26.0797C68.8928 25.857 69.1626 25.6909 69.477 25.5778C69.7933 25.4646 70.143 25.4081 70.5318 25.4081C70.8295 25.4081 71.0713 25.4275 71.2574 25.4682C71.4434 25.5088 71.5997 25.5512 71.7225 25.599L71.596 26.1575C71.4323 26.1009 71.2648 26.0603 71.0974 26.0373C70.9281 26.0143 70.7625 26.0019 70.5988 26.0019C69.9774 26.0019 69.5049 26.1663 69.1793 26.4968C68.8538 26.8274 68.6919 27.3134 68.6919 27.955C68.6919 28.2625 68.7384 28.5365 68.8296 28.7804C68.9207 29.0225 69.051 29.2293 69.2203 29.3955C69.3896 29.5634 69.5961 29.6906 69.8379 29.7772C70.0816 29.8638 70.357 29.908 70.6658 29.908C70.8295 29.908 70.9951 29.8939 71.1606 29.8656C71.3262 29.8373 71.475 29.7931 71.6034 29.7313L71.7169 30.3004Z" fill="#11559B"/>
<path d="M76.4023 29.1112H74.1754L73.6694 30.435H72.9922L74.9809 25.4808H75.6507L77.6022 30.435H76.9027L76.4023 29.1112ZM74.3912 28.5315H76.1864L75.3139 26.2037H75.2842L74.3912 28.5315Z" fill="#11559B"/>
<path d="M80.338 30.435H79.6682V26.0747H78.126V25.4808H81.8802V26.0747H80.338V30.435Z" fill="#11559B"/>
<path d="M85.3578 30.5054C84.995 30.5054 84.6676 30.4471 84.3774 30.3287C84.0872 30.2103 83.8379 30.0424 83.6314 29.8232C83.4249 29.604 83.2667 29.3354 83.1588 29.019C83.0491 28.7026 82.9951 28.3491 82.9951 27.9568C82.9951 27.5608 83.0528 27.2056 83.1663 26.891C83.2798 26.5764 83.4416 26.3113 83.6462 26.0903C83.8527 25.8712 84.1002 25.7015 84.3885 25.5848C84.6769 25.4664 84.9913 25.4081 85.3355 25.4081C85.7224 25.4081 86.0647 25.4699 86.3605 25.5954C86.6563 25.7209 86.9038 25.8959 87.1065 26.1186C87.3075 26.3431 87.46 26.6117 87.5642 26.9246C87.6684 27.2392 87.7205 27.5821 87.7205 27.955C87.7205 28.3756 87.6609 28.745 87.5419 29.0632C87.4228 29.3813 87.2591 29.6464 87.0507 29.8603C86.8424 30.0724 86.5931 30.2332 86.3047 30.3411C86.0164 30.4506 85.7001 30.5054 85.3578 30.5054ZM85.4248 29.9116C85.9159 29.9116 86.3029 29.7472 86.5838 29.4202C86.8647 29.0915 87.0042 28.6054 87.0042 27.9585C87.0042 27.6192 86.9652 27.3258 86.8889 27.0801C86.8126 26.8344 86.701 26.6312 86.5577 26.4721C86.4145 26.3113 86.2378 26.1928 86.0331 26.1186C85.8266 26.0426 85.5941 26.0055 85.3373 26.0055C85.1085 26.0055 84.8946 26.0461 84.6974 26.1257C84.4983 26.2052 84.3271 26.3272 84.1839 26.4862C84.0407 26.6471 83.9253 26.8503 83.8416 27.096C83.7579 27.3417 83.7151 27.6298 83.7151 27.9585C83.7151 28.2837 83.756 28.5701 83.8379 28.8157C83.9197 29.0614 84.0351 29.2647 84.1839 29.4273C84.3327 29.5899 84.5132 29.7118 84.7234 29.7914C84.9318 29.8709 85.1662 29.9116 85.4248 29.9116Z" fill="#11559B"/>
<path d="M94.6049 30.435H93.9352L93.6152 26.5625L92.2962 30.435H91.5967L90.2852 26.5767L89.9577 30.435H89.2861L89.7326 25.4808H90.5512L91.9595 29.7422L93.338 25.4808H94.1566L94.6049 30.435Z" fill="#11559B"/>
<path d="M25.1949 24.13C23.528 25.8833 20.6872 26.0159 18.8473 24.4287C17.0074 22.8416 16.8641 20.132 18.5291 18.3787C20.196 16.6254 23.0387 16.4946 24.8786 18.08C26.7167 19.669 26.8599 22.3767 25.1949 24.13Z" fill="url(#paint0_radial_6_679)"/>
<path d="M23.0312 6.60546C23.4088 6.95719 23.7567 7.31775 24.073 7.67654C25.8813 9.73563 26.7277 11.7576 26.7277 11.7576C27.8812 11.9609 28.9602 12.0174 29.9648 11.9697C30.0299 11.9662 30.0894 11.9662 30.1564 11.9626C30.2159 11.9573 30.2718 11.9503 30.3313 11.9467C32.5563 11.7558 35.4473 10.9463 38.089 8.42948C38.1802 8.34288 38.2714 8.25097 38.3607 8.16083C37.9514 7.69775 37.5309 7.23998 37.0733 6.80342C29.3974 -0.467906 17.4184 -1.10066 8.98535 4.88926C15.6008 1.84216 20.1848 3.94544 23.0312 6.60546Z" fill="url(#paint1_linear_6_679)"/>
<path d="M7.79139 27.3768C7.92348 26.8907 8.07789 26.4241 8.24718 25.984C9.22016 23.4672 10.6415 21.7598 10.6415 21.7598C10.2508 20.7082 9.76153 19.7926 9.21644 18.9902C9.18109 18.9389 9.15133 18.8877 9.11412 18.8364C9.08063 18.7905 9.04528 18.7463 9.0118 18.7003C7.72442 16.9647 5.54034 14.9922 1.92749 14.0767C1.80285 14.0448 1.67448 14.0166 1.54612 13.9883C1.32659 14.5556 1.12195 15.1318 0.950795 15.7257C-1.83605 25.6765 3.57578 35.8517 13.2516 39.7932C7.16631 35.8729 6.79051 31.0496 7.79139 27.3768Z" fill="url(#paint2_linear_6_679)"/>
<path d="M34.3988 29.5544C33.889 29.6887 33.3867 29.7948 32.9012 29.8761C30.1199 30.3338 27.854 30.0192 27.854 30.0192C27.0912 30.8658 26.5015 31.7266 26.042 32.5767C26.0141 32.6315 25.9824 32.6828 25.9545 32.7393C25.9285 32.7906 25.908 32.8401 25.882 32.8913C24.9425 34.8179 24.2374 37.6016 25.2104 41.034C25.2439 41.1507 25.2829 41.2726 25.3202 41.3928C25.9471 41.2885 26.574 41.1701 27.201 41.0111C37.6656 38.3298 44.2346 28.7891 42.9881 18.856C42.4542 25.8215 38.2479 28.5416 34.3988 29.5544Z" fill="url(#paint3_linear_6_679)"/>
<path d="M8.98526 4.88893C8.98526 4.88893 4.31386 7.66737 1.87305 13.2472C2.51302 13.3533 9.02804 14.6011 11.4558 21.4801C12.0493 21.1195 13.8725 19.7533 15.0966 15.985C16.5774 11.4303 19.3885 8.06858 23.0329 6.60513C23.0311 6.60513 18.4155 0.353627 8.98526 4.88893Z" fill="url(#paint4_linear_6_679)"/>
<path d="M23.7846 37.6888C23.7827 35.3787 24.4581 32.3228 27.1575 29.4436L27.1872 29.3994C26.7463 28.9522 25.2041 27.8494 21.2359 28.7083C16.3431 29.7688 10.9462 29.6451 7.78911 27.3774C7.78911 27.3774 4.39951 34.3023 13.2493 39.7938C13.2493 39.7938 18.1123 42.2435 24.4097 41.4676C24.2981 41.1707 23.7865 39.7161 23.7846 37.6888Z" fill="url(#paint5_linear_6_679)"/>
<path d="M38.9267 8.82715C38.231 9.62957 34.9232 12.9223 29.4035 12.9259C28.5142 12.9259 27.571 12.841 26.5739 12.6449L26.5273 12.6343C26.345 13.2688 26.1943 15.0663 28.89 17.8253C32.3001 21.3213 34.8879 25.8248 34.4005 29.5541C34.4005 29.5541 42.4075 28.8807 42.9879 18.8539C42.9861 18.8539 42.787 13.6223 38.9267 8.82715Z" fill="url(#paint6_linear_6_679)"/>
<defs>
<radialGradient id="paint0_radial_6_679" cx="0" cy="0" r="1" gradientUnits="userSpaceOnUse" gradientTransform="translate(20.4253 18.8678) rotate(0.0523405) scale(6.32472 6.02617)">
<stop stop-color="#4A96D2"/>
<stop offset="1" stop-color="#1F2466"/>
</radialGradient>
<linearGradient id="paint1_linear_6_679" x1="15.6888" y1="2.1983" x2="34.3285" y2="10.0988" gradientUnits="userSpaceOnUse">
<stop stop-color="#4A96D2"/>
<stop offset="1" stop-color="#1F2466"/>
</linearGradient>
<linearGradient id="paint2_linear_6_679" x1="7.44637" y1="35.6228" x2="4.85801" y2="16.4" gradientUnits="userSpaceOnUse">
<stop stop-color="#4A96D2"/>
<stop offset="1" stop-color="#1F2466"/>
</linearGradient>
<linearGradient id="paint3_linear_6_679" x1="42.0869" y1="25.716" x2="26.6615" y2="38.4311" gradientUnits="userSpaceOnUse">
<stop stop-color="#4995D1"/>
<stop offset="1" stop-color="#292B64"/>
</linearGradient>
<linearGradient id="paint4_linear_6_679" x1="8.12005" y1="15.9579" x2="16.026" y2="3.18859" gradientUnits="userSpaceOnUse">
<stop stop-color="#4A96D2"/>
<stop offset="1" stop-color="#1F2466"/>
</linearGradient>
<linearGradient id="paint5_linear_6_679" x1="24.2102" y1="33.6413" x2="8.97052" y2="35.2765" gradientUnits="userSpaceOnUse">
<stop stop-color="#4A96D2"/>
<stop offset="1" stop-color="#1F2466"/>
</linearGradient>
<linearGradient id="paint6_linear_6_679" x1="34.0335" y1="12.674" x2="36.8515" y2="27.6458" gradientUnits="userSpaceOnUse">
<stop stop-color="#4A96D2"/>
<stop offset="1" stop-color="#1F2466"/>
</linearGradient>
</defs>
</svg>
