<svg width="221" height="42" viewBox="0 0 221 42" fill="none" xmlns="http://www.w3.org/2000/svg">
<path d="M77.6035 15.1235H67.5168L65.0737 26.571H59.6846L65.1456 1.03428H70.5347L68.424 10.8615H78.5106L80.6214 0.981445H86.0105L80.5675 26.5182H75.1783L77.6035 15.1235Z" fill="white"/>
<path d="M77.6035 15.1235H67.5168L65.0737 26.571H59.6846L65.1456 1.03428H70.5347L68.424 10.8615H78.5106L80.6214 0.981445H86.0105L80.5675 26.5182H75.1783L77.6035 15.1235Z" fill="white"/>
<path d="M92.1092 0.981445H112.768L107.226 26.5182H101.837L106.534 5.25225H96.5013L91.8577 26.5534H86.5225L92.1092 0.981445Z" fill="white"/>
<path d="M92.1092 0.981445H112.768L107.226 26.5182H101.837L106.534 5.25225H96.5013L91.8577 26.5534H86.5225L92.1092 0.981445Z" fill="white"/>
<path d="M118.804 0.981341H124.121L121.804 11.8301C122.635 11.8776 123.46 11.6614 124.157 11.2137C125.201 10.1475 126.076 8.93343 126.753 7.61209C127.605 6.07886 128.569 4.60746 129.636 3.2092C130.245 2.45148 131.03 1.84763 131.926 1.44805C133.173 1.0279 134.49 0.84557 135.806 0.910895H137.234L136.058 4.75022H135.16C134.638 4.72235 134.118 4.82859 133.651 5.05842C133.135 5.473 132.725 6.00092 132.456 6.59943C131.526 8.432 130.391 10.1569 129.07 11.742C128.344 12.5864 127.378 13.1996 126.294 13.5032C128.091 14.0579 129.258 15.5989 129.887 18.1086C129.887 18.2495 129.959 18.3816 129.986 18.5137L132.339 26.5533H126.824L124.633 18.6281C124.633 18.5401 124.399 17.9853 124.013 16.955C123.627 15.9248 122.54 15.4669 121.004 15.4404L118.57 26.5533H113.262L118.804 0.981341Z" fill="white"/>
<path d="M118.804 0.981341H124.121L121.804 11.8301C122.635 11.8776 123.46 11.6614 124.157 11.2137C125.201 10.1475 126.076 8.93343 126.753 7.61209C127.605 6.07886 128.569 4.60746 129.636 3.2092C130.245 2.45148 131.03 1.84763 131.926 1.44805C133.173 1.0279 134.49 0.84557 135.806 0.910895H137.234L136.058 4.75022H135.16C134.638 4.72235 134.118 4.82859 133.651 5.05842C133.135 5.473 132.725 6.00092 132.456 6.59943C131.526 8.432 130.391 10.1569 129.07 11.742C128.344 12.5864 127.378 13.1996 126.294 13.5032C128.091 14.0579 129.258 15.5989 129.887 18.1086C129.887 18.2495 129.959 18.3816 129.986 18.5137L132.339 26.5533H126.824L124.633 18.6281C124.633 18.5401 124.399 17.9853 124.013 16.955C123.627 15.9248 122.54 15.4669 121.004 15.4404L118.57 26.5533H113.262L118.804 0.981341Z" fill="white"/>
<path d="M158.018 11.6541H166.21C166.21 9.36456 165.647 7.69146 164.521 6.63477C164.013 6.12787 163.406 5.72576 162.736 5.45205C162.067 5.17834 161.348 5.03856 160.623 5.04092C159.257 4.9796 157.913 5.39798 156.833 6.2209C155.881 6.95882 155.198 7.97787 154.884 9.12681L149.701 8.02608C150.223 5.86618 151.557 3.97914 153.438 2.74261C155.555 1.25396 158.108 0.481236 160.713 0.541168C162.158 0.474642 163.602 0.691127 164.961 1.17797C166.319 1.66482 167.565 2.41226 168.626 3.37663C170.608 5.27281 171.599 8.04369 171.599 11.6893C171.685 15.6129 170.334 19.4367 167.791 22.4676C165.252 25.4791 161.782 26.9849 157.381 26.9849C152.123 26.9849 148.944 24.3931 147.842 19.2094L152.899 17.5187C153.15 19.4912 153.797 20.8297 154.803 21.5253C155.729 22.1976 156.848 22.5645 158 22.5732C159.591 22.5299 161.118 21.9551 162.33 20.9442C163.893 19.623 165.009 17.8659 165.527 15.9073H157.273L158.018 11.6541Z" fill="white"/>
<path d="M158.018 11.6541H166.21C166.21 9.36456 165.647 7.69146 164.521 6.63477C164.013 6.12787 163.406 5.72576 162.736 5.45205C162.067 5.17834 161.348 5.03856 160.623 5.04092C159.257 4.9796 157.913 5.39798 156.833 6.2209C155.881 6.95882 155.198 7.97787 154.884 9.12681L149.701 8.02608C150.223 5.86618 151.557 3.97914 153.438 2.74261C155.555 1.25396 158.108 0.481236 160.713 0.541168C162.158 0.474642 163.602 0.691127 164.961 1.17797C166.319 1.66482 167.565 2.41226 168.626 3.37663C170.608 5.27281 171.599 8.04369 171.599 11.6893C171.685 15.6129 170.334 19.4367 167.791 22.4676C165.252 25.4791 161.782 26.9849 157.381 26.9849C152.123 26.9849 148.944 24.3931 147.842 19.2094L152.899 17.5187C153.15 19.4912 153.797 20.8297 154.803 21.5253C155.729 22.1976 156.848 22.5645 158 22.5732C159.591 22.5299 161.118 21.9551 162.33 20.9442C163.893 19.623 165.009 17.8659 165.527 15.9073H157.273L158.018 11.6541Z" fill="white"/>
<path d="M184.722 26.5536H179.333L183.887 5.25237H176.234L177.133 0.981567H197.683L196.785 5.25237H189.24L184.722 26.5536Z" fill="white"/>
<path d="M184.722 26.5536H179.333L183.887 5.25237H176.234L177.133 0.981567H197.683L196.785 5.25237H189.24L184.722 26.5536Z" fill="white"/>
<path d="M207.482 26.5534H202.093L206.647 5.25225H199.048L199.946 0.981445H220.497L219.598 5.25225H212.054L207.482 26.5534Z" fill="white"/>
<path d="M207.482 26.5534H202.093L206.647 5.25225H199.048L199.946 0.981445H220.497L219.598 5.25225H212.054L207.482 26.5534Z" fill="white"/>
<path fill-rule="evenodd" clip-rule="evenodd" d="M55.4722 2.78667L55.3195 0.990295H19.2302L0 20.0636L18.3859 39.2162L55.2387 38.9872L51.574 35.1743H22.2032L4.50891 20.0636L19.4548 2.03818L55.4722 2.78667Z" fill="white"/>
<path fill-rule="evenodd" clip-rule="evenodd" d="M55.4722 2.78667L55.3195 0.990295H19.2302L0 20.0636L18.3859 39.2162L55.2387 38.9872L51.574 35.1743H22.2032L4.50891 20.0636L19.4548 2.03818L55.4722 2.78667Z" fill="white"/>
<path fill-rule="evenodd" clip-rule="evenodd" d="M50.6403 7.13677L50.6223 6.01843H23.8024L9.76367 19.9844L22.8144 34.012L50.0475 33.8447L47.0026 30.0318L25.5628 29.9349L14.2636 19.9844L24.2425 7.06632L50.6403 7.13677Z" fill="white"/>
<path fill-rule="evenodd" clip-rule="evenodd" d="M50.6403 7.13677L50.6223 6.01843H23.8024L9.76367 19.9844L22.8144 34.012L50.0475 33.8447L47.0026 30.0318L25.5628 29.9349L14.2636 19.9844L24.2425 7.06632L50.6403 7.13677Z" fill="white"/>
<path fill-rule="evenodd" clip-rule="evenodd" d="M46.4546 11.7863L46.4007 10.5007H28.1225L19.2305 19.87L26.5956 28.623L45.1522 28.6054L41.9367 25.7171L30.1345 25.8139L23.4789 20.3896L29.4788 11.8568L46.4546 11.7863Z" fill="white"/>
<path fill-rule="evenodd" clip-rule="evenodd" d="M46.4546 11.7863L46.4007 10.5007H28.1225L19.2305 19.87L26.5956 28.623L45.1522 28.6054L41.9367 25.7171L30.1345 25.8139L23.4789 20.3896L29.4788 11.8568L46.4546 11.7863Z" fill="white"/>
<path fill-rule="evenodd" clip-rule="evenodd" d="M40.4905 16.374L40.5264 15.4846L33.1972 15.5286L28.7871 20.0196L32.4517 24.7923L40.5893 24.7835L37.9037 20.909L32.3529 20.0548L34.7691 16.4004L40.4905 16.374Z" fill="white"/>
<path fill-rule="evenodd" clip-rule="evenodd" d="M40.4905 16.374L40.5264 15.4846L33.1972 15.5286L28.7871 20.0196L32.4517 24.7923L40.5893 24.7835L37.9037 20.909L32.3529 20.0548L34.7691 16.4004L40.4905 16.374Z" fill="white"/>
<path fill-rule="evenodd" clip-rule="evenodd" d="M40.4905 16.374L40.5264 15.4846L33.1972 15.5286L28.7871 20.0196L32.4517 24.7923L40.5893 24.7835L37.9037 20.909L32.3529 20.0548L34.7691 16.4004L40.4905 16.374Z" fill="white"/>
<path d="M40.4905 16.374L40.5264 15.4846L33.1972 15.5286L28.7871 20.0196L32.4517 24.7923L40.5893 24.7835L37.9037 20.909L32.3529 20.0548L34.7691 16.4004L40.4905 16.374Z" fill="white"/>
<path fill-rule="evenodd" clip-rule="evenodd" d="M46.4546 11.7863L46.4007 10.5007H28.1225L19.2305 19.87L26.5956 28.623L45.1522 28.6054L41.9367 25.7171L30.1345 25.8139L23.4789 20.3896L29.4788 11.8568L46.4546 11.7863Z" fill="white"/>
<path d="M46.4546 11.7863L46.4007 10.5007H28.1225L19.2305 19.87L26.5956 28.623L45.1522 28.6054L41.9367 25.7171L30.1345 25.8139L23.4789 20.3896L29.4788 11.8568L46.4546 11.7863Z" fill="white"/>
<path fill-rule="evenodd" clip-rule="evenodd" d="M50.6403 7.13677L50.6223 6.01843H23.8024L9.76367 19.9844L22.8144 34.012L50.0475 33.8447L47.0026 30.0318L25.5628 29.9349L14.2636 19.9844L24.2425 7.06632L50.6403 7.13677Z" fill="white"/>
<path d="M50.6403 7.13677L50.6223 6.01843H23.8024L9.76367 19.9844L22.8144 34.012L50.0475 33.8447L47.0026 30.0318L25.5628 29.9349L14.2636 19.9844L24.2425 7.06632L50.6403 7.13677Z" fill="white"/>
<path fill-rule="evenodd" clip-rule="evenodd" d="M55.4722 2.78667L55.3195 0.990295H19.2302L0 20.0636L18.3859 39.2162L55.2387 38.9872L51.574 35.1743H22.2032L4.50891 20.0636L19.4548 2.03818L55.4722 2.78667Z" fill="white"/>
<path d="M55.4722 2.78667L55.3195 0.990295H19.2302L0 20.0636L18.3859 39.2162L55.2387 38.9872L51.574 35.1743H22.2032L4.50891 20.0636L19.4548 2.03818L55.4722 2.78667Z" fill="white"/>
<path d="M130.336 39.1458L131.98 31.6873H134.674C135.082 31.6786 135.49 31.6962 135.896 31.7401C136.24 31.7771 136.573 31.882 136.875 32.0483C137.133 32.1901 137.345 32.4008 137.486 32.6559C137.629 32.9277 137.7 33.2306 137.692 33.5365C137.704 33.9262 137.573 34.3071 137.324 34.6108C137.034 34.9509 136.64 35.1915 136.201 35.2977C136.57 35.3859 136.902 35.5825 137.153 35.8612C137.363 36.1089 137.481 36.4197 137.486 36.7418C137.482 37.1959 137.345 37.6394 137.09 38.0186C136.826 38.4225 136.435 38.7315 135.977 38.8992C135.354 39.0981 134.7 39.1876 134.045 39.1634L130.336 39.1458ZM132.213 37.9482H133.767C134.208 37.9705 134.65 37.929 135.078 37.8249C135.293 37.7509 135.481 37.6161 135.617 37.4375C135.745 37.2695 135.814 37.0658 135.815 36.8563C135.819 36.7387 135.795 36.6218 135.745 36.5148C135.696 36.4078 135.621 36.3137 135.527 36.2399C135.244 36.0555 134.905 35.9716 134.566 36.0021H132.635L132.213 37.9482ZM132.923 34.6989H134.153C134.554 34.7144 134.956 34.6789 135.348 34.5932C135.566 34.5296 135.757 34.4002 135.896 34.2234C136.011 34.0636 136.074 33.8731 136.075 33.6774C136.082 33.506 136.021 33.3386 135.905 33.2107C135.773 33.0811 135.604 32.9949 135.42 32.9641C135.135 32.9489 134.851 32.9489 134.566 32.9641H133.318L132.923 34.6989Z" fill="white"/>
<path d="M142.156 34.866L142.444 33.5628C143.585 33.1247 144.629 32.4727 145.515 31.6431H146.414L144.761 39.1457H143.216L144.357 33.9767C144.005 34.1922 143.632 34.3722 143.243 34.5138C142.891 34.6605 142.528 34.7783 142.156 34.866Z" fill="white"/>
<path d="M147.644 37.4286L149.081 37.3142C149.08 37.5391 149.16 37.7572 149.306 37.9306C149.369 37.9924 149.445 38.0402 149.529 38.0706C149.612 38.101 149.702 38.1133 149.791 38.1067C149.92 38.1058 150.048 38.0797 150.167 38.0298C150.285 37.9799 150.393 37.9072 150.482 37.8161C150.828 37.4297 151.066 36.9627 151.174 36.46C150.86 36.6557 150.495 36.7595 150.123 36.7594C149.845 36.7681 149.568 36.7201 149.31 36.6186C149.052 36.517 148.818 36.3641 148.623 36.1694C148.422 35.9536 148.267 35.7008 148.167 35.4256C148.067 35.1505 148.023 34.8585 148.039 34.5668C148.033 33.8245 148.301 33.105 148.794 32.5414C149.036 32.2532 149.343 32.0238 149.69 31.871C150.038 31.7183 150.416 31.6463 150.797 31.6608C151.118 31.644 151.439 31.7042 151.732 31.8361C152.025 31.968 152.28 32.1678 152.476 32.4181C152.898 33.0261 153.103 33.7535 153.06 34.4875C153.114 35.683 152.801 36.8668 152.162 37.8865C151.909 38.3185 151.542 38.6756 151.099 38.9204C150.657 39.1653 150.155 39.2887 149.647 39.2779C149.387 39.2986 149.126 39.2662 148.88 39.1825C148.633 39.0988 148.408 38.9657 148.217 38.7918C148.026 38.6178 147.874 38.4068 147.771 38.1721C147.667 37.9374 147.615 37.6842 147.617 37.4286H147.644ZM151.587 33.9768C151.619 33.6627 151.529 33.3485 151.336 33.0962C151.262 33.0075 151.169 32.9361 151.063 32.8873C150.957 32.8385 150.842 32.8136 150.725 32.8144C150.575 32.8168 150.427 32.8539 150.295 32.9228C150.162 32.9916 150.048 33.0903 149.962 33.2107C149.653 33.6262 149.498 34.1324 149.521 34.646C149.492 34.9585 149.578 35.2709 149.764 35.5266C149.835 35.6133 149.925 35.683 150.028 35.7303C150.131 35.7776 150.243 35.8013 150.357 35.7996C150.572 35.7933 150.78 35.7192 150.95 35.5882C151.172 35.4144 151.335 35.1777 151.417 34.9102C151.53 34.6117 151.588 34.2955 151.587 33.9768Z" fill="white"/>
<path d="M153.734 37.4285L155.18 37.314C155.181 37.5372 155.257 37.7539 155.396 37.9304C155.46 37.9909 155.536 38.0378 155.62 38.0681C155.703 38.0984 155.792 38.1115 155.881 38.1065C156.01 38.1067 156.138 38.081 156.257 38.0311C156.376 37.9811 156.484 37.9079 156.573 37.816C156.922 37.4319 157.16 36.9639 157.264 36.4599C156.954 36.6558 156.592 36.7597 156.222 36.7593C155.944 36.769 155.667 36.7216 155.409 36.6199C155.15 36.5183 154.917 36.3648 154.722 36.1693C154.518 35.9553 154.36 35.703 154.258 35.4275C154.157 35.1521 154.113 34.8592 154.13 34.5666C154.123 33.8243 154.391 33.1049 154.884 32.5413C155.127 32.2541 155.434 32.0254 155.781 31.8727C156.128 31.7201 156.507 31.6475 156.887 31.6607C157.21 31.6439 157.532 31.7041 157.826 31.8359C158.12 31.9678 158.377 32.1675 158.576 32.418C158.993 33.0278 159.198 33.7539 159.159 34.4874C159.208 35.6824 158.896 36.8649 158.261 37.8864C158.011 38.3092 157.652 38.6603 157.22 38.9045C156.788 39.1486 156.299 39.2773 155.8 39.2777C155.277 39.301 154.765 39.1242 154.372 38.7846C154.18 38.6108 154.025 38.4016 153.915 38.1689C153.806 37.9362 153.744 37.6846 153.734 37.4285ZM157.677 33.9766C157.707 33.6641 157.621 33.3517 157.435 33.0961C157.356 33.0197 157.262 32.9605 157.158 32.9226C157.054 32.8846 156.944 32.8687 156.833 32.8759C156.682 32.8783 156.533 32.9154 156.399 32.9842C156.265 33.053 156.149 33.1516 156.061 33.2722C155.755 33.6889 155.603 34.195 155.63 34.7075C155.6 35.02 155.686 35.3324 155.872 35.5881C155.941 35.6747 156.03 35.7443 156.131 35.7917C156.233 35.839 156.344 35.8628 156.456 35.8611C156.671 35.8548 156.879 35.7807 157.049 35.6497C157.274 35.4767 157.44 35.2401 157.525 34.9717C157.636 34.6515 157.687 34.3146 157.677 33.9766Z" fill="white"/>
<path d="M160.426 34.866L160.713 33.5628C161.857 33.129 162.901 32.4765 163.785 31.6431H164.683L163.12 39.1457H161.575L162.716 33.9767C162.364 34.1922 161.991 34.3722 161.602 34.5138C161.222 34.6666 160.828 34.7845 160.426 34.866Z" fill="white"/>
<path d="M170.431 31.6871H176.189L175.928 32.9376H171.761L170.36 39.1016H168.761L170.431 31.6871Z" fill="white"/>
<path d="M175.812 36.2223C175.842 35.1113 176.204 34.0334 176.853 33.1226C177.228 32.6405 177.711 32.249 178.264 31.9779C178.869 31.6947 179.533 31.5531 180.204 31.564C180.636 31.549 181.067 31.6192 181.471 31.7704C181.876 31.9217 182.245 32.1509 182.557 32.4446C182.857 32.7446 183.092 33.1017 183.247 33.4939C183.401 33.8861 183.472 34.3052 183.455 34.7253C183.456 35.5239 183.255 36.3104 182.871 37.0148C182.522 37.7176 181.974 38.3071 181.292 38.7131C180.611 39.119 179.824 39.3242 179.027 39.3043C178.394 39.3177 177.771 39.1527 177.231 38.8288C176.768 38.551 176.402 38.1428 176.18 37.6576C175.955 37.2101 175.829 36.7209 175.812 36.2223ZM177.41 36.2223C177.397 36.6977 177.574 37.1594 177.904 37.5079C178.069 37.6805 178.27 37.8162 178.493 37.9058C178.716 37.9955 178.957 38.037 179.198 38.0274C179.648 38.0207 180.084 37.8759 180.446 37.6136C180.887 37.296 181.232 36.8668 181.443 36.372C181.694 35.8666 181.829 35.3136 181.838 34.7517C181.853 34.5007 181.817 34.2493 181.733 34.012C181.648 33.7746 181.516 33.5562 181.344 33.3692C181.179 33.203 180.98 33.0725 180.761 32.986C180.541 32.8996 180.305 32.8591 180.069 32.8673C179.684 32.8673 179.306 32.9636 178.969 33.1469C178.633 33.3303 178.35 33.5947 178.147 33.9152C177.669 34.5834 177.411 35.3796 177.41 36.1958V36.2223Z" fill="white"/>
<path d="M186.033 31.6871H191.521L190.129 37.904H190.82L190.066 41.2062H188.763L189.231 39.1456H184.183L183.716 41.2062H182.404L183.159 37.904H183.859C184.938 35.9672 185.672 33.8651 186.033 31.6871ZM189.626 32.9376H187.371C186.992 34.6616 186.388 36.3307 185.575 37.904H188.557L189.626 32.9376Z" fill="white"/>
<path d="M192.563 31.6871H194.36L195.374 35.5176L198.069 31.7136H199.865L195.06 37.9921C194.78 38.3997 194.427 38.7547 194.018 39.04C193.711 39.2081 193.364 39.2932 193.012 39.2865C192.667 39.2968 192.322 39.2582 191.988 39.172L192.186 37.9921C192.39 38.0331 192.597 38.0567 192.806 38.0625C193.027 38.0567 193.245 38.015 193.452 37.9392C193.686 37.8688 193.964 37.5606 194.351 37.0587L192.563 31.6871Z" fill="white"/>
<path d="M64.4727 36.2575C64.479 35.7839 64.5484 35.3132 64.6792 34.8574C64.833 34.2462 65.1043 33.6693 65.4786 33.1578C65.8462 32.6583 66.3332 32.2549 66.8971 31.9831C67.4609 31.7113 68.0842 31.5795 68.7121 31.5992C69.131 31.5849 69.5483 31.6557 69.9378 31.8073C70.3274 31.9588 70.6807 32.1878 70.9756 32.4798C71.2747 32.7807 71.5086 33.1379 71.6629 33.5299C71.8173 33.9219 71.889 34.3406 71.8737 34.7605C71.8751 35.5533 71.6842 36.335 71.3169 37.0412C70.9782 37.7353 70.4496 38.3237 69.7899 38.7407C69.1357 39.1407 68.3783 39.3486 67.6073 39.3395C66.9729 39.3657 66.3457 39.1997 65.811 38.864C65.3617 38.5808 65.0085 38.1732 64.796 37.6928C64.5865 37.242 64.4763 36.7529 64.4727 36.2575ZM66.0175 36.2575C66.0012 36.7286 66.1682 37.1882 66.4846 37.5431C66.6421 37.7153 66.8366 37.8512 67.054 37.941C67.2714 38.0309 67.5064 38.0724 67.7421 38.0627C68.1772 38.0576 68.5991 37.9156 68.9456 37.6576C69.3754 37.3299 69.7073 36.895 69.9067 36.3984C70.1479 35.8905 70.2764 35.3383 70.2839 34.7781C70.3171 34.2738 70.146 33.777 69.8079 33.3956C69.654 33.2285 69.4653 33.0956 69.2546 33.006C69.0439 32.9164 68.816 32.8721 68.5864 32.8761C68.2103 32.8773 67.8411 32.9747 67.5151 33.1584C67.1891 33.3421 66.9175 33.606 66.7271 33.9239C66.2581 34.6016 66.0106 35.4033 66.0175 36.2223V36.2575Z" fill="white"/>
<path d="M77.6934 36.4953L79.2563 36.7242C79.0064 37.4878 78.5275 38.1599 77.8821 38.6527C77.2564 39.0977 76.4992 39.3297 75.7264 39.3131C75.3261 39.3361 74.9254 39.274 74.5518 39.1312C74.1782 38.9883 73.8405 38.768 73.5618 38.4854C72.9917 37.821 72.7082 36.965 72.7714 36.099C72.7625 35.2887 72.9438 34.4873 73.3013 33.7567C73.618 33.0934 74.1232 32.5338 74.7564 32.1452C75.3639 31.7788 76.064 31.5866 76.7773 31.5904C77.4973 31.5563 78.2047 31.7853 78.7623 32.2333C79.282 32.6849 79.6038 33.3158 79.6605 33.9944L78.1695 34.1353C78.1231 33.7759 77.9518 33.4432 77.6845 33.1931C77.4281 32.9977 77.1109 32.8951 76.7863 32.9025C76.3532 32.9025 75.9315 33.0382 75.5827 33.2899C75.1681 33.5961 74.8556 34.0159 74.6845 34.4963C74.4651 35.0159 74.3492 35.5719 74.3432 36.1342C74.3085 36.6328 74.4655 37.126 74.7833 37.5167C74.9148 37.674 75.0808 37.8001 75.269 37.8855C75.4573 37.9709 75.6628 38.0134 75.8701 38.0098C76.2722 38.0056 76.6612 37.8691 76.9749 37.6224C77.3196 37.3219 77.569 36.9307 77.6934 36.4953Z" fill="white"/>
<path d="M85.0587 35.8435H82.1396L81.43 39.1808H79.8672L81.457 31.7224H83.0109L82.4001 34.6371H85.3282L85.939 31.7576H87.4928L85.8761 39.1808H84.3581L85.0587 35.8435Z" fill="white"/>
<path d="M87.9688 36.2575C87.9763 35.7846 88.0426 35.3144 88.1664 34.8573C88.3269 34.2469 88.6009 33.6708 88.9747 33.1578C89.3374 32.6669 89.8148 32.2684 90.3669 31.9955C90.9459 31.7101 91.5873 31.568 92.2352 31.5816C92.6555 31.566 93.0745 31.6363 93.4657 31.7878C93.8569 31.9394 94.2117 32.1691 94.5076 32.4622C94.8067 32.7631 95.0406 33.1203 95.195 33.5123C95.3494 33.9043 95.4211 34.3229 95.4058 34.7429C95.4028 35.5351 95.2121 36.3159 94.8489 37.0236C94.5097 37.7202 93.9775 38.3091 93.313 38.7231C92.6596 39.125 91.9016 39.3329 91.1304 39.3219C90.4959 39.3487 89.8685 39.1826 89.334 38.8464C88.8814 38.5645 88.5249 38.1568 88.3101 37.6752C88.0999 37.23 87.9838 36.7478 87.9688 36.2575ZM89.5047 36.2575C89.4908 36.7298 89.661 37.1895 89.9807 37.5431C90.1364 37.7151 90.3293 37.851 90.5452 37.9408C90.7612 38.0307 90.9948 38.0723 91.2292 38.0626C91.6673 38.0588 92.0924 37.9168 92.4417 37.6576C92.8715 37.3299 93.2034 36.895 93.4028 36.3984C93.6439 35.8905 93.7725 35.3382 93.78 34.7781C93.8084 34.2744 93.6379 33.7794 93.304 33.3956C93.1484 33.2317 92.959 33.1021 92.7484 33.0156C92.5378 32.929 92.3108 32.8875 92.0825 32.8937C91.7064 32.8949 91.3372 32.9922 91.0112 33.176C90.6851 33.3597 90.4136 33.6236 90.2232 33.9415C89.7422 34.6095 89.4791 35.4047 89.4687 36.2222L89.5047 36.2575Z" fill="white"/>
<path d="M95.6934 39.1809L97.2742 31.7224H99.861C100.254 31.7136 100.647 31.7312 101.038 31.7753C101.373 31.8092 101.697 31.9111 101.99 32.0747C102.237 32.2255 102.438 32.4383 102.573 32.6911C102.717 32.9628 102.788 33.2657 102.78 33.5717C102.784 33.9587 102.658 34.3363 102.421 34.646C102.14 34.9762 101.765 35.2156 101.343 35.3328C101.697 35.4194 102.013 35.6174 102.241 35.8964C102.448 36.1458 102.565 36.4555 102.573 36.777C102.569 37.2268 102.435 37.6663 102.187 38.045C101.938 38.4445 101.563 38.7536 101.118 38.9256C100.517 39.1238 99.8841 39.2134 99.2502 39.1897L95.6934 39.1809ZM97.4897 37.9834H98.9897C99.4158 38.0051 99.8428 37.9635 100.256 37.8601C100.467 37.7831 100.649 37.6448 100.777 37.4638C100.898 37.2932 100.964 37.0906 100.966 36.8826C100.97 36.7672 100.947 36.6525 100.898 36.5472C100.85 36.4419 100.778 36.3488 100.687 36.275C100.427 36.0913 100.109 36.004 99.7891 36.0285H97.9298L97.4897 37.9834ZM98.1724 34.734H99.349C99.7359 34.7525 100.123 34.7139 100.499 34.6195C100.715 34.5677 100.904 34.4391 101.029 34.2585C101.143 34.0982 101.205 33.9081 101.208 33.7125C101.213 33.6276 101.2 33.5425 101.171 33.4624C101.141 33.3823 101.096 33.3087 101.038 33.2458C100.914 33.115 100.75 33.0283 100.571 32.9993C100.298 32.9824 100.025 32.9824 99.7532 32.9993H98.5406L98.1724 34.734Z" fill="white"/>
<path d="M107.89 37.5342H104.891L103.992 39.1808H102.394L106.669 31.7224H108.402L109.624 39.1808H108.151L107.89 37.5342ZM107.702 36.2926L107.262 33.2898L105.465 36.2926H107.702Z" fill="white"/>
<path d="M115.786 35.8436H112.822L112.121 39.181H110.559L112.148 31.7225H113.72L113.127 34.6372H116.056L116.666 31.7577H118.211L116.63 39.2162H115.076L115.786 35.8436Z" fill="white"/>
<path d="M118.695 36.2576C118.698 35.7845 118.765 35.3137 118.893 34.8575C119.053 34.2471 119.328 33.671 119.701 33.158C120.056 32.6778 120.52 32.2857 121.058 32.0133C121.636 31.7272 122.278 31.5851 122.926 31.5994C123.346 31.5849 123.765 31.6556 124.156 31.8071C124.547 31.9587 124.902 32.1877 125.198 32.48C125.497 32.7809 125.731 33.1381 125.886 33.5301C126.04 33.9221 126.112 34.3407 126.096 34.7607C126.093 35.5529 125.903 36.3337 125.54 37.0414C125.2 37.738 124.668 38.3269 124.004 38.7409C123.35 39.1428 122.592 39.3507 121.821 39.3397C121.187 39.3665 120.559 39.2004 120.025 38.8642C119.572 38.5823 119.216 38.1746 119.001 37.693C118.801 37.2398 118.697 36.7515 118.695 36.2576ZM120.231 36.2576C120.217 36.7299 120.388 37.1897 120.707 37.5433C120.863 37.7153 121.056 37.8511 121.272 37.941C121.488 38.0309 121.721 38.0725 121.956 38.0628C122.394 38.059 122.819 37.917 123.168 37.6578C123.598 37.3301 123.93 36.8952 124.129 36.3985C124.371 35.8907 124.499 35.3384 124.507 34.7783C124.535 34.2746 124.364 33.7796 124.031 33.3958C123.874 33.2312 123.683 33.1013 123.471 33.0147C123.258 32.9282 123.03 32.887 122.8 32.8938C122.425 32.8958 122.058 32.9934 121.733 33.1772C121.409 33.361 121.139 33.6245 120.95 33.9417C120.482 34.6137 120.231 35.4086 120.231 36.2224V36.2576Z" fill="white"/>
</svg>
